%TF.GenerationSoftware,KiCad,Pcbnew,(6.0.8)*%
%TF.CreationDate,2022-12-01T23:19:17-05:00*%
%TF.ProjectId,HardwareDesign,48617264-7761-4726-9544-657369676e2e,1.0.*%
%TF.SameCoordinates,Original*%
%TF.FileFunction,Drillmap*%
%TF.FilePolarity,Positive*%
%FSLAX45Y45*%
G04 Gerber Fmt 4.5, Leading zero omitted, Abs format (unit mm)*
G04 Created by KiCad (PCBNEW (6.0.8)) date 2022-12-01 23:19:17*
%MOMM*%
%LPD*%
G01*
G04 APERTURE LIST*
%ADD10C,0.100000*%
%ADD11C,0.200000*%
%ADD12C,0.020000*%
%ADD13C,0.040000*%
%ADD14C,0.110000*%
%ADD15C,0.120000*%
%ADD16C,0.130000*%
%ADD17C,0.160000*%
G04 APERTURE END LIST*
D10*
X11938000Y-7482840D02*
X11940540Y-12443460D01*
X11940540Y-12443460D02*
X21084540Y-12446000D01*
X21082000Y-7485380D02*
X11938000Y-7482840D01*
X21084540Y-12446000D02*
X21082000Y-7485380D01*
D11*
D12*
X13492500Y-10666250D02*
X13512500Y-10686250D01*
X13512500Y-10666250D02*
X13492500Y-10686250D01*
X13492500Y-10849750D02*
X13512500Y-10869750D01*
X13512500Y-10849750D02*
X13492500Y-10869750D01*
X13584250Y-10574500D02*
X13604250Y-10594500D01*
X13604250Y-10574500D02*
X13584250Y-10594500D01*
X13584250Y-10758000D02*
X13604250Y-10778000D01*
X13604250Y-10758000D02*
X13584250Y-10778000D01*
X13584250Y-10941500D02*
X13604250Y-10961500D01*
X13604250Y-10941500D02*
X13584250Y-10961500D01*
X13676000Y-10666250D02*
X13696000Y-10686250D01*
X13696000Y-10666250D02*
X13676000Y-10686250D01*
X13676000Y-10849750D02*
X13696000Y-10869750D01*
X13696000Y-10849750D02*
X13676000Y-10869750D01*
X13767750Y-10574500D02*
X13787750Y-10594500D01*
X13787750Y-10574500D02*
X13767750Y-10594500D01*
X13767750Y-10758000D02*
X13787750Y-10778000D01*
X13787750Y-10758000D02*
X13767750Y-10778000D01*
X13767750Y-10941500D02*
X13787750Y-10961500D01*
X13787750Y-10941500D02*
X13767750Y-10961500D01*
X13859500Y-10666250D02*
X13879500Y-10686250D01*
X13879500Y-10666250D02*
X13859500Y-10686250D01*
X13859500Y-10849750D02*
X13879500Y-10869750D01*
X13879500Y-10849750D02*
X13859500Y-10869750D01*
D13*
X12918120Y-11211560D02*
G75*
G03*
X12918120Y-11211560I-20000J0D01*
G01*
X13210000Y-11262580D02*
G75*
G03*
X13210000Y-11262580I-20000J0D01*
G01*
X13309280Y-10985500D02*
G75*
G03*
X13309280Y-10985500I-20000J0D01*
G01*
X13631860Y-11742420D02*
G75*
G03*
X13631860Y-11742420I-20000J0D01*
G01*
X13776640Y-11722100D02*
G75*
G03*
X13776640Y-11722100I-20000J0D01*
G01*
X13926500Y-9304020D02*
G75*
G03*
X13926500Y-9304020I-20000J0D01*
G01*
X14546260Y-9616440D02*
G75*
G03*
X14546260Y-9616440I-20000J0D01*
G01*
X14881540Y-11518900D02*
G75*
G03*
X14881540Y-11518900I-20000J0D01*
G01*
X14904400Y-10096500D02*
G75*
G03*
X14904400Y-10096500I-20000J0D01*
G01*
X14978060Y-11109960D02*
G75*
G03*
X14978060Y-11109960I-20000J0D01*
G01*
X14998380Y-9951720D02*
G75*
G03*
X14998380Y-9951720I-20000J0D01*
G01*
X15272700Y-8389620D02*
G75*
G03*
X15272700Y-8389620I-20000J0D01*
G01*
X15371027Y-9682480D02*
G75*
G03*
X15371027Y-9682480I-20000J0D01*
G01*
X15458120Y-9768840D02*
G75*
G03*
X15458120Y-9768840I-20000J0D01*
G01*
X15582580Y-9745980D02*
G75*
G03*
X15582580Y-9745980I-20000J0D01*
G01*
X15613060Y-10010150D02*
G75*
G03*
X15613060Y-10010150I-20000J0D01*
G01*
X16568100Y-9339580D02*
G75*
G03*
X16568100Y-9339580I-20000J0D01*
G01*
X17199000Y-10600980D02*
G75*
G03*
X17199000Y-10600980I-20000J0D01*
G01*
X17756820Y-10256520D02*
G75*
G03*
X17756820Y-10256520I-20000J0D01*
G01*
X17998120Y-9217660D02*
G75*
G03*
X17998120Y-9217660I-20000J0D01*
G01*
X18925220Y-9446260D02*
G75*
G03*
X18925220Y-9446260I-20000J0D01*
G01*
X19077620Y-10078720D02*
G75*
G03*
X19077620Y-10078720I-20000J0D01*
G01*
X19837080Y-10731500D02*
G75*
G03*
X19837080Y-10731500I-20000J0D01*
G01*
X20103780Y-10551160D02*
G75*
G03*
X20103780Y-10551160I-20000J0D01*
G01*
X20845460Y-9720580D02*
G75*
G03*
X20845460Y-9720580I-20000J0D01*
G01*
D14*
X12316580Y-8830980D02*
X12316580Y-8940980D01*
X12261580Y-8885980D02*
X12371580Y-8885980D01*
X12316580Y-9280980D02*
X12316580Y-9390980D01*
X12261580Y-9335980D02*
X12371580Y-9335980D01*
X12966580Y-8830980D02*
X12966580Y-8940980D01*
X12911580Y-8885980D02*
X13021580Y-8885980D01*
X12966580Y-9280980D02*
X12966580Y-9390980D01*
X12911580Y-9335980D02*
X13021580Y-9335980D01*
D15*
X15584687Y-9455667D02*
X15584687Y-9370813D01*
X15499833Y-9370813D01*
X15499833Y-9455667D01*
X15584687Y-9455667D01*
X15838687Y-9455667D02*
X15838687Y-9370813D01*
X15753833Y-9370813D01*
X15753833Y-9455667D01*
X15838687Y-9455667D01*
X16935967Y-8167887D02*
X16935967Y-8083033D01*
X16851113Y-8083033D01*
X16851113Y-8167887D01*
X16935967Y-8167887D01*
X17443967Y-8167887D02*
X17443967Y-8083033D01*
X17359113Y-8083033D01*
X17359113Y-8167887D01*
X17443967Y-8167887D01*
X17951967Y-8167887D02*
X17951967Y-8083033D01*
X17867113Y-8083033D01*
X17867113Y-8167887D01*
X17951967Y-8167887D01*
D16*
X14351000Y-8701000D02*
X14416000Y-8636000D01*
X14351000Y-8571000D01*
X14286000Y-8636000D01*
X14351000Y-8701000D01*
X14605000Y-8701000D02*
X14670000Y-8636000D01*
X14605000Y-8571000D01*
X14540000Y-8636000D01*
X14605000Y-8701000D01*
X14859000Y-8701000D02*
X14924000Y-8636000D01*
X14859000Y-8571000D01*
X14794000Y-8636000D01*
X14859000Y-8701000D01*
X15113000Y-8701000D02*
X15178000Y-8636000D01*
X15113000Y-8571000D01*
X15048000Y-8636000D01*
X15113000Y-8701000D01*
X15367000Y-8701000D02*
X15432000Y-8636000D01*
X15367000Y-8571000D01*
X15302000Y-8636000D01*
X15367000Y-8701000D01*
X15621000Y-8701000D02*
X15686000Y-8636000D01*
X15621000Y-8571000D01*
X15556000Y-8636000D01*
X15621000Y-8701000D01*
X15875000Y-8701000D02*
X15940000Y-8636000D01*
X15875000Y-8571000D01*
X15810000Y-8636000D01*
X15875000Y-8701000D01*
X16129000Y-8701000D02*
X16194000Y-8636000D01*
X16129000Y-8571000D01*
X16064000Y-8636000D01*
X16129000Y-8701000D01*
X16891000Y-8701000D02*
X16956000Y-8636000D01*
X16891000Y-8571000D01*
X16826000Y-8636000D01*
X16891000Y-8701000D01*
X17145000Y-8701000D02*
X17210000Y-8636000D01*
X17145000Y-8571000D01*
X17080000Y-8636000D01*
X17145000Y-8701000D01*
X17399000Y-8701000D02*
X17464000Y-8636000D01*
X17399000Y-8571000D01*
X17334000Y-8636000D01*
X17399000Y-8701000D01*
X17653000Y-8701000D02*
X17718000Y-8636000D01*
X17653000Y-8571000D01*
X17588000Y-8636000D01*
X17653000Y-8701000D01*
X17907000Y-8701000D02*
X17972000Y-8636000D01*
X17907000Y-8571000D01*
X17842000Y-8636000D01*
X17907000Y-8701000D01*
X18161000Y-8701000D02*
X18226000Y-8636000D01*
X18161000Y-8571000D01*
X18096000Y-8636000D01*
X18161000Y-8701000D01*
X18415000Y-8701000D02*
X18480000Y-8636000D01*
X18415000Y-8571000D01*
X18350000Y-8636000D01*
X18415000Y-8701000D01*
X18669000Y-8701000D02*
X18734000Y-8636000D01*
X18669000Y-8571000D01*
X18604000Y-8636000D01*
X18669000Y-8701000D01*
X18923000Y-8701000D02*
X18988000Y-8636000D01*
X18923000Y-8571000D01*
X18858000Y-8636000D01*
X18923000Y-8701000D01*
X19177000Y-8701000D02*
X19242000Y-8636000D01*
X19177000Y-8571000D01*
X19112000Y-8636000D01*
X19177000Y-8701000D01*
X19431000Y-8701000D02*
X19496000Y-8636000D01*
X19431000Y-8571000D01*
X19366000Y-8636000D01*
X19431000Y-8701000D01*
X19685000Y-8701000D02*
X19750000Y-8636000D01*
X19685000Y-8571000D01*
X19620000Y-8636000D01*
X19685000Y-8701000D01*
X19939000Y-8701000D02*
X20004000Y-8636000D01*
X19939000Y-8571000D01*
X19874000Y-8636000D01*
X19939000Y-8701000D01*
X20193000Y-8701000D02*
X20258000Y-8636000D01*
X20193000Y-8571000D01*
X20128000Y-8636000D01*
X20193000Y-8701000D01*
X20447000Y-8701000D02*
X20512000Y-8636000D01*
X20447000Y-8571000D01*
X20382000Y-8636000D01*
X20447000Y-8701000D01*
X20701000Y-8701000D02*
X20766000Y-8636000D01*
X20701000Y-8571000D01*
X20636000Y-8636000D01*
X20701000Y-8701000D01*
D17*
X16938000Y-9572000D02*
X17098000Y-9732000D01*
X17098000Y-9572000D02*
X16938000Y-9732000D01*
X17098000Y-9652000D02*
G75*
G03*
X17098000Y-9652000I-80000J0D01*
G01*
X18462000Y-9572000D02*
X18622000Y-9732000D01*
X18622000Y-9572000D02*
X18462000Y-9732000D01*
X18622000Y-9652000D02*
G75*
G03*
X18622000Y-9652000I-80000J0D01*
G01*
D11*
X12190619Y-12761476D02*
X12190619Y-12561476D01*
X12238238Y-12561476D01*
X12266809Y-12571000D01*
X12285857Y-12590048D01*
X12295381Y-12609095D01*
X12304905Y-12647190D01*
X12304905Y-12675762D01*
X12295381Y-12713857D01*
X12285857Y-12732905D01*
X12266809Y-12751952D01*
X12238238Y-12761476D01*
X12190619Y-12761476D01*
X12390619Y-12761476D02*
X12390619Y-12628143D01*
X12390619Y-12666238D02*
X12400143Y-12647190D01*
X12409667Y-12637667D01*
X12428714Y-12628143D01*
X12447762Y-12628143D01*
X12514428Y-12761476D02*
X12514428Y-12628143D01*
X12514428Y-12561476D02*
X12504905Y-12571000D01*
X12514428Y-12580524D01*
X12523952Y-12571000D01*
X12514428Y-12561476D01*
X12514428Y-12580524D01*
X12638238Y-12761476D02*
X12619190Y-12751952D01*
X12609667Y-12732905D01*
X12609667Y-12561476D01*
X12743000Y-12761476D02*
X12723952Y-12751952D01*
X12714428Y-12732905D01*
X12714428Y-12561476D01*
X12971571Y-12761476D02*
X12971571Y-12561476D01*
X13038238Y-12704333D01*
X13104905Y-12561476D01*
X13104905Y-12761476D01*
X13285857Y-12761476D02*
X13285857Y-12656714D01*
X13276333Y-12637667D01*
X13257286Y-12628143D01*
X13219190Y-12628143D01*
X13200143Y-12637667D01*
X13285857Y-12751952D02*
X13266809Y-12761476D01*
X13219190Y-12761476D01*
X13200143Y-12751952D01*
X13190619Y-12732905D01*
X13190619Y-12713857D01*
X13200143Y-12694809D01*
X13219190Y-12685286D01*
X13266809Y-12685286D01*
X13285857Y-12675762D01*
X13381095Y-12628143D02*
X13381095Y-12828143D01*
X13381095Y-12637667D02*
X13400143Y-12628143D01*
X13438238Y-12628143D01*
X13457286Y-12637667D01*
X13466809Y-12647190D01*
X13476333Y-12666238D01*
X13476333Y-12723381D01*
X13466809Y-12742428D01*
X13457286Y-12751952D01*
X13438238Y-12761476D01*
X13400143Y-12761476D01*
X13381095Y-12751952D01*
X13562048Y-12742428D02*
X13571571Y-12751952D01*
X13562048Y-12761476D01*
X13552524Y-12751952D01*
X13562048Y-12742428D01*
X13562048Y-12761476D01*
X13562048Y-12637667D02*
X13571571Y-12647190D01*
X13562048Y-12656714D01*
X13552524Y-12647190D01*
X13562048Y-12637667D01*
X13562048Y-12656714D01*
D12*
X11913000Y-13081000D02*
X11933000Y-13101000D01*
X11933000Y-13081000D02*
X11913000Y-13101000D01*
D11*
X12228714Y-12981476D02*
X12247762Y-12981476D01*
X12266809Y-12991000D01*
X12276333Y-13000524D01*
X12285857Y-13019571D01*
X12295381Y-13057667D01*
X12295381Y-13105286D01*
X12285857Y-13143381D01*
X12276333Y-13162428D01*
X12266809Y-13171952D01*
X12247762Y-13181476D01*
X12228714Y-13181476D01*
X12209667Y-13171952D01*
X12200143Y-13162428D01*
X12190619Y-13143381D01*
X12181095Y-13105286D01*
X12181095Y-13057667D01*
X12190619Y-13019571D01*
X12200143Y-13000524D01*
X12209667Y-12991000D01*
X12228714Y-12981476D01*
X12381095Y-13162428D02*
X12390619Y-13171952D01*
X12381095Y-13181476D01*
X12371571Y-13171952D01*
X12381095Y-13162428D01*
X12381095Y-13181476D01*
X12466809Y-13000524D02*
X12476333Y-12991000D01*
X12495381Y-12981476D01*
X12543000Y-12981476D01*
X12562048Y-12991000D01*
X12571571Y-13000524D01*
X12581095Y-13019571D01*
X12581095Y-13038619D01*
X12571571Y-13067190D01*
X12457286Y-13181476D01*
X12581095Y-13181476D01*
X12704905Y-12981476D02*
X12723952Y-12981476D01*
X12743000Y-12991000D01*
X12752524Y-13000524D01*
X12762048Y-13019571D01*
X12771571Y-13057667D01*
X12771571Y-13105286D01*
X12762048Y-13143381D01*
X12752524Y-13162428D01*
X12743000Y-13171952D01*
X12723952Y-13181476D01*
X12704905Y-13181476D01*
X12685857Y-13171952D01*
X12676333Y-13162428D01*
X12666809Y-13143381D01*
X12657286Y-13105286D01*
X12657286Y-13057667D01*
X12666809Y-13019571D01*
X12676333Y-13000524D01*
X12685857Y-12991000D01*
X12704905Y-12981476D01*
X12895381Y-12981476D02*
X12914428Y-12981476D01*
X12933476Y-12991000D01*
X12943000Y-13000524D01*
X12952524Y-13019571D01*
X12962048Y-13057667D01*
X12962048Y-13105286D01*
X12952524Y-13143381D01*
X12943000Y-13162428D01*
X12933476Y-13171952D01*
X12914428Y-13181476D01*
X12895381Y-13181476D01*
X12876333Y-13171952D01*
X12866809Y-13162428D01*
X12857286Y-13143381D01*
X12847762Y-13105286D01*
X12847762Y-13057667D01*
X12857286Y-13019571D01*
X12866809Y-13000524D01*
X12876333Y-12991000D01*
X12895381Y-12981476D01*
X13047762Y-13181476D02*
X13047762Y-13048143D01*
X13047762Y-13067190D02*
X13057286Y-13057667D01*
X13076333Y-13048143D01*
X13104905Y-13048143D01*
X13123952Y-13057667D01*
X13133476Y-13076714D01*
X13133476Y-13181476D01*
X13133476Y-13076714D02*
X13143000Y-13057667D01*
X13162048Y-13048143D01*
X13190619Y-13048143D01*
X13209667Y-13057667D01*
X13219190Y-13076714D01*
X13219190Y-13181476D01*
X13314428Y-13181476D02*
X13314428Y-13048143D01*
X13314428Y-13067190D02*
X13323952Y-13057667D01*
X13343000Y-13048143D01*
X13371571Y-13048143D01*
X13390619Y-13057667D01*
X13400143Y-13076714D01*
X13400143Y-13181476D01*
X13400143Y-13076714D02*
X13409667Y-13057667D01*
X13428714Y-13048143D01*
X13457286Y-13048143D01*
X13476333Y-13057667D01*
X13485857Y-13076714D01*
X13485857Y-13181476D01*
X13876333Y-12971952D02*
X13704905Y-13229095D01*
X14133476Y-12981476D02*
X14152524Y-12981476D01*
X14171571Y-12991000D01*
X14181095Y-13000524D01*
X14190619Y-13019571D01*
X14200143Y-13057667D01*
X14200143Y-13105286D01*
X14190619Y-13143381D01*
X14181095Y-13162428D01*
X14171571Y-13171952D01*
X14152524Y-13181476D01*
X14133476Y-13181476D01*
X14114428Y-13171952D01*
X14104905Y-13162428D01*
X14095381Y-13143381D01*
X14085857Y-13105286D01*
X14085857Y-13057667D01*
X14095381Y-13019571D01*
X14104905Y-13000524D01*
X14114428Y-12991000D01*
X14133476Y-12981476D01*
X14285857Y-13162428D02*
X14295381Y-13171952D01*
X14285857Y-13181476D01*
X14276333Y-13171952D01*
X14285857Y-13162428D01*
X14285857Y-13181476D01*
X14419190Y-12981476D02*
X14438238Y-12981476D01*
X14457286Y-12991000D01*
X14466809Y-13000524D01*
X14476333Y-13019571D01*
X14485857Y-13057667D01*
X14485857Y-13105286D01*
X14476333Y-13143381D01*
X14466809Y-13162428D01*
X14457286Y-13171952D01*
X14438238Y-13181476D01*
X14419190Y-13181476D01*
X14400143Y-13171952D01*
X14390619Y-13162428D01*
X14381095Y-13143381D01*
X14371571Y-13105286D01*
X14371571Y-13057667D01*
X14381095Y-13019571D01*
X14390619Y-13000524D01*
X14400143Y-12991000D01*
X14419190Y-12981476D01*
X14609667Y-12981476D02*
X14628714Y-12981476D01*
X14647762Y-12991000D01*
X14657286Y-13000524D01*
X14666809Y-13019571D01*
X14676333Y-13057667D01*
X14676333Y-13105286D01*
X14666809Y-13143381D01*
X14657286Y-13162428D01*
X14647762Y-13171952D01*
X14628714Y-13181476D01*
X14609667Y-13181476D01*
X14590619Y-13171952D01*
X14581095Y-13162428D01*
X14571571Y-13143381D01*
X14562048Y-13105286D01*
X14562048Y-13057667D01*
X14571571Y-13019571D01*
X14581095Y-13000524D01*
X14590619Y-12991000D01*
X14609667Y-12981476D01*
X14743000Y-12981476D02*
X14876333Y-12981476D01*
X14790619Y-13181476D01*
X14962048Y-13181476D02*
X15000143Y-13181476D01*
X15019190Y-13171952D01*
X15028714Y-13162428D01*
X15047762Y-13133857D01*
X15057286Y-13095762D01*
X15057286Y-13019571D01*
X15047762Y-13000524D01*
X15038238Y-12991000D01*
X15019190Y-12981476D01*
X14981095Y-12981476D01*
X14962048Y-12991000D01*
X14952524Y-13000524D01*
X14943000Y-13019571D01*
X14943000Y-13067190D01*
X14952524Y-13086238D01*
X14962048Y-13095762D01*
X14981095Y-13105286D01*
X15019190Y-13105286D01*
X15038238Y-13095762D01*
X15047762Y-13086238D01*
X15057286Y-13067190D01*
X15133476Y-12981476D02*
X15133476Y-13019571D01*
X15209667Y-12981476D02*
X15209667Y-13019571D01*
X15504905Y-13257667D02*
X15495381Y-13248143D01*
X15476333Y-13219571D01*
X15466809Y-13200524D01*
X15457286Y-13171952D01*
X15447762Y-13124333D01*
X15447762Y-13086238D01*
X15457286Y-13038619D01*
X15466809Y-13010048D01*
X15476333Y-12991000D01*
X15495381Y-12962428D01*
X15504905Y-12952905D01*
X15685857Y-13181476D02*
X15571571Y-13181476D01*
X15628714Y-13181476D02*
X15628714Y-12981476D01*
X15609667Y-13010048D01*
X15590619Y-13029095D01*
X15571571Y-13038619D01*
X15762048Y-13000524D02*
X15771571Y-12991000D01*
X15790619Y-12981476D01*
X15838238Y-12981476D01*
X15857286Y-12991000D01*
X15866809Y-13000524D01*
X15876333Y-13019571D01*
X15876333Y-13038619D01*
X15866809Y-13067190D01*
X15752524Y-13181476D01*
X15876333Y-13181476D01*
X16114428Y-13181476D02*
X16114428Y-12981476D01*
X16200143Y-13181476D02*
X16200143Y-13076714D01*
X16190619Y-13057667D01*
X16171571Y-13048143D01*
X16143000Y-13048143D01*
X16123952Y-13057667D01*
X16114428Y-13067190D01*
X16323952Y-13181476D02*
X16304905Y-13171952D01*
X16295381Y-13162428D01*
X16285857Y-13143381D01*
X16285857Y-13086238D01*
X16295381Y-13067190D01*
X16304905Y-13057667D01*
X16323952Y-13048143D01*
X16352524Y-13048143D01*
X16371571Y-13057667D01*
X16381095Y-13067190D01*
X16390619Y-13086238D01*
X16390619Y-13143381D01*
X16381095Y-13162428D01*
X16371571Y-13171952D01*
X16352524Y-13181476D01*
X16323952Y-13181476D01*
X16504905Y-13181476D02*
X16485857Y-13171952D01*
X16476333Y-13152905D01*
X16476333Y-12981476D01*
X16657286Y-13171952D02*
X16638238Y-13181476D01*
X16600143Y-13181476D01*
X16581095Y-13171952D01*
X16571571Y-13152905D01*
X16571571Y-13076714D01*
X16581095Y-13057667D01*
X16600143Y-13048143D01*
X16638238Y-13048143D01*
X16657286Y-13057667D01*
X16666809Y-13076714D01*
X16666809Y-13095762D01*
X16571571Y-13114809D01*
X16743000Y-13171952D02*
X16762048Y-13181476D01*
X16800143Y-13181476D01*
X16819190Y-13171952D01*
X16828714Y-13152905D01*
X16828714Y-13143381D01*
X16819190Y-13124333D01*
X16800143Y-13114809D01*
X16771571Y-13114809D01*
X16752524Y-13105286D01*
X16743000Y-13086238D01*
X16743000Y-13076714D01*
X16752524Y-13057667D01*
X16771571Y-13048143D01*
X16800143Y-13048143D01*
X16819190Y-13057667D01*
X16895381Y-13257667D02*
X16904905Y-13248143D01*
X16923952Y-13219571D01*
X16933476Y-13200524D01*
X16943000Y-13171952D01*
X16952524Y-13124333D01*
X16952524Y-13086238D01*
X16943000Y-13038619D01*
X16933476Y-13010048D01*
X16923952Y-12991000D01*
X16904905Y-12962428D01*
X16895381Y-12952905D01*
D13*
X11933000Y-13355000D02*
G75*
G03*
X11933000Y-13355000I-20000J0D01*
G01*
D11*
X12228714Y-13245476D02*
X12247762Y-13245476D01*
X12266809Y-13255000D01*
X12276333Y-13264524D01*
X12285857Y-13283571D01*
X12295381Y-13321667D01*
X12295381Y-13369286D01*
X12285857Y-13407381D01*
X12276333Y-13426428D01*
X12266809Y-13435952D01*
X12247762Y-13445476D01*
X12228714Y-13445476D01*
X12209667Y-13435952D01*
X12200143Y-13426428D01*
X12190619Y-13407381D01*
X12181095Y-13369286D01*
X12181095Y-13321667D01*
X12190619Y-13283571D01*
X12200143Y-13264524D01*
X12209667Y-13255000D01*
X12228714Y-13245476D01*
X12381095Y-13426428D02*
X12390619Y-13435952D01*
X12381095Y-13445476D01*
X12371571Y-13435952D01*
X12381095Y-13426428D01*
X12381095Y-13445476D01*
X12562048Y-13312143D02*
X12562048Y-13445476D01*
X12514428Y-13235952D02*
X12466809Y-13378809D01*
X12590619Y-13378809D01*
X12704905Y-13245476D02*
X12723952Y-13245476D01*
X12743000Y-13255000D01*
X12752524Y-13264524D01*
X12762048Y-13283571D01*
X12771571Y-13321667D01*
X12771571Y-13369286D01*
X12762048Y-13407381D01*
X12752524Y-13426428D01*
X12743000Y-13435952D01*
X12723952Y-13445476D01*
X12704905Y-13445476D01*
X12685857Y-13435952D01*
X12676333Y-13426428D01*
X12666809Y-13407381D01*
X12657286Y-13369286D01*
X12657286Y-13321667D01*
X12666809Y-13283571D01*
X12676333Y-13264524D01*
X12685857Y-13255000D01*
X12704905Y-13245476D01*
X12895381Y-13245476D02*
X12914428Y-13245476D01*
X12933476Y-13255000D01*
X12943000Y-13264524D01*
X12952524Y-13283571D01*
X12962048Y-13321667D01*
X12962048Y-13369286D01*
X12952524Y-13407381D01*
X12943000Y-13426428D01*
X12933476Y-13435952D01*
X12914428Y-13445476D01*
X12895381Y-13445476D01*
X12876333Y-13435952D01*
X12866809Y-13426428D01*
X12857286Y-13407381D01*
X12847762Y-13369286D01*
X12847762Y-13321667D01*
X12857286Y-13283571D01*
X12866809Y-13264524D01*
X12876333Y-13255000D01*
X12895381Y-13245476D01*
X13047762Y-13445476D02*
X13047762Y-13312143D01*
X13047762Y-13331190D02*
X13057286Y-13321667D01*
X13076333Y-13312143D01*
X13104905Y-13312143D01*
X13123952Y-13321667D01*
X13133476Y-13340714D01*
X13133476Y-13445476D01*
X13133476Y-13340714D02*
X13143000Y-13321667D01*
X13162048Y-13312143D01*
X13190619Y-13312143D01*
X13209667Y-13321667D01*
X13219190Y-13340714D01*
X13219190Y-13445476D01*
X13314428Y-13445476D02*
X13314428Y-13312143D01*
X13314428Y-13331190D02*
X13323952Y-13321667D01*
X13343000Y-13312143D01*
X13371571Y-13312143D01*
X13390619Y-13321667D01*
X13400143Y-13340714D01*
X13400143Y-13445476D01*
X13400143Y-13340714D02*
X13409667Y-13321667D01*
X13428714Y-13312143D01*
X13457286Y-13312143D01*
X13476333Y-13321667D01*
X13485857Y-13340714D01*
X13485857Y-13445476D01*
X13876333Y-13235952D02*
X13704905Y-13493095D01*
X14133476Y-13245476D02*
X14152524Y-13245476D01*
X14171571Y-13255000D01*
X14181095Y-13264524D01*
X14190619Y-13283571D01*
X14200143Y-13321667D01*
X14200143Y-13369286D01*
X14190619Y-13407381D01*
X14181095Y-13426428D01*
X14171571Y-13435952D01*
X14152524Y-13445476D01*
X14133476Y-13445476D01*
X14114428Y-13435952D01*
X14104905Y-13426428D01*
X14095381Y-13407381D01*
X14085857Y-13369286D01*
X14085857Y-13321667D01*
X14095381Y-13283571D01*
X14104905Y-13264524D01*
X14114428Y-13255000D01*
X14133476Y-13245476D01*
X14285857Y-13426428D02*
X14295381Y-13435952D01*
X14285857Y-13445476D01*
X14276333Y-13435952D01*
X14285857Y-13426428D01*
X14285857Y-13445476D01*
X14419190Y-13245476D02*
X14438238Y-13245476D01*
X14457286Y-13255000D01*
X14466809Y-13264524D01*
X14476333Y-13283571D01*
X14485857Y-13321667D01*
X14485857Y-13369286D01*
X14476333Y-13407381D01*
X14466809Y-13426428D01*
X14457286Y-13435952D01*
X14438238Y-13445476D01*
X14419190Y-13445476D01*
X14400143Y-13435952D01*
X14390619Y-13426428D01*
X14381095Y-13407381D01*
X14371571Y-13369286D01*
X14371571Y-13321667D01*
X14381095Y-13283571D01*
X14390619Y-13264524D01*
X14400143Y-13255000D01*
X14419190Y-13245476D01*
X14676333Y-13445476D02*
X14562048Y-13445476D01*
X14619190Y-13445476D02*
X14619190Y-13245476D01*
X14600143Y-13274048D01*
X14581095Y-13293095D01*
X14562048Y-13302619D01*
X14857286Y-13245476D02*
X14762048Y-13245476D01*
X14752524Y-13340714D01*
X14762048Y-13331190D01*
X14781095Y-13321667D01*
X14828714Y-13321667D01*
X14847762Y-13331190D01*
X14857286Y-13340714D01*
X14866809Y-13359762D01*
X14866809Y-13407381D01*
X14857286Y-13426428D01*
X14847762Y-13435952D01*
X14828714Y-13445476D01*
X14781095Y-13445476D01*
X14762048Y-13435952D01*
X14752524Y-13426428D01*
X14933476Y-13245476D02*
X15066809Y-13245476D01*
X14981095Y-13445476D01*
X15133476Y-13245476D02*
X15133476Y-13283571D01*
X15209667Y-13245476D02*
X15209667Y-13283571D01*
X15504905Y-13521667D02*
X15495381Y-13512143D01*
X15476333Y-13483571D01*
X15466809Y-13464524D01*
X15457286Y-13435952D01*
X15447762Y-13388333D01*
X15447762Y-13350238D01*
X15457286Y-13302619D01*
X15466809Y-13274048D01*
X15476333Y-13255000D01*
X15495381Y-13226428D01*
X15504905Y-13216905D01*
X15571571Y-13264524D02*
X15581095Y-13255000D01*
X15600143Y-13245476D01*
X15647762Y-13245476D01*
X15666809Y-13255000D01*
X15676333Y-13264524D01*
X15685857Y-13283571D01*
X15685857Y-13302619D01*
X15676333Y-13331190D01*
X15562048Y-13445476D01*
X15685857Y-13445476D01*
X15866809Y-13245476D02*
X15771571Y-13245476D01*
X15762048Y-13340714D01*
X15771571Y-13331190D01*
X15790619Y-13321667D01*
X15838238Y-13321667D01*
X15857286Y-13331190D01*
X15866809Y-13340714D01*
X15876333Y-13359762D01*
X15876333Y-13407381D01*
X15866809Y-13426428D01*
X15857286Y-13435952D01*
X15838238Y-13445476D01*
X15790619Y-13445476D01*
X15771571Y-13435952D01*
X15762048Y-13426428D01*
X16114428Y-13445476D02*
X16114428Y-13245476D01*
X16200143Y-13445476D02*
X16200143Y-13340714D01*
X16190619Y-13321667D01*
X16171571Y-13312143D01*
X16143000Y-13312143D01*
X16123952Y-13321667D01*
X16114428Y-13331190D01*
X16323952Y-13445476D02*
X16304905Y-13435952D01*
X16295381Y-13426428D01*
X16285857Y-13407381D01*
X16285857Y-13350238D01*
X16295381Y-13331190D01*
X16304905Y-13321667D01*
X16323952Y-13312143D01*
X16352524Y-13312143D01*
X16371571Y-13321667D01*
X16381095Y-13331190D01*
X16390619Y-13350238D01*
X16390619Y-13407381D01*
X16381095Y-13426428D01*
X16371571Y-13435952D01*
X16352524Y-13445476D01*
X16323952Y-13445476D01*
X16504905Y-13445476D02*
X16485857Y-13435952D01*
X16476333Y-13416905D01*
X16476333Y-13245476D01*
X16657286Y-13435952D02*
X16638238Y-13445476D01*
X16600143Y-13445476D01*
X16581095Y-13435952D01*
X16571571Y-13416905D01*
X16571571Y-13340714D01*
X16581095Y-13321667D01*
X16600143Y-13312143D01*
X16638238Y-13312143D01*
X16657286Y-13321667D01*
X16666809Y-13340714D01*
X16666809Y-13359762D01*
X16571571Y-13378809D01*
X16743000Y-13435952D02*
X16762048Y-13445476D01*
X16800143Y-13445476D01*
X16819190Y-13435952D01*
X16828714Y-13416905D01*
X16828714Y-13407381D01*
X16819190Y-13388333D01*
X16800143Y-13378809D01*
X16771571Y-13378809D01*
X16752524Y-13369286D01*
X16743000Y-13350238D01*
X16743000Y-13340714D01*
X16752524Y-13321667D01*
X16771571Y-13312143D01*
X16800143Y-13312143D01*
X16819190Y-13321667D01*
X16895381Y-13521667D02*
X16904905Y-13512143D01*
X16923952Y-13483571D01*
X16933476Y-13464524D01*
X16943000Y-13435952D01*
X16952524Y-13388333D01*
X16952524Y-13350238D01*
X16943000Y-13302619D01*
X16933476Y-13274048D01*
X16923952Y-13255000D01*
X16904905Y-13226428D01*
X16895381Y-13216905D01*
D14*
X11878000Y-13564000D02*
X11878000Y-13674000D01*
X11823000Y-13619000D02*
X11933000Y-13619000D01*
D11*
X12295381Y-13709476D02*
X12181095Y-13709476D01*
X12238238Y-13709476D02*
X12238238Y-13509476D01*
X12219190Y-13538048D01*
X12200143Y-13557095D01*
X12181095Y-13566619D01*
X12381095Y-13690428D02*
X12390619Y-13699952D01*
X12381095Y-13709476D01*
X12371571Y-13699952D01*
X12381095Y-13690428D01*
X12381095Y-13709476D01*
X12581095Y-13709476D02*
X12466809Y-13709476D01*
X12523952Y-13709476D02*
X12523952Y-13509476D01*
X12504905Y-13538048D01*
X12485857Y-13557095D01*
X12466809Y-13566619D01*
X12704905Y-13509476D02*
X12723952Y-13509476D01*
X12743000Y-13519000D01*
X12752524Y-13528524D01*
X12762048Y-13547571D01*
X12771571Y-13585667D01*
X12771571Y-13633286D01*
X12762048Y-13671381D01*
X12752524Y-13690428D01*
X12743000Y-13699952D01*
X12723952Y-13709476D01*
X12704905Y-13709476D01*
X12685857Y-13699952D01*
X12676333Y-13690428D01*
X12666809Y-13671381D01*
X12657286Y-13633286D01*
X12657286Y-13585667D01*
X12666809Y-13547571D01*
X12676333Y-13528524D01*
X12685857Y-13519000D01*
X12704905Y-13509476D01*
X12895381Y-13509476D02*
X12914428Y-13509476D01*
X12933476Y-13519000D01*
X12943000Y-13528524D01*
X12952524Y-13547571D01*
X12962048Y-13585667D01*
X12962048Y-13633286D01*
X12952524Y-13671381D01*
X12943000Y-13690428D01*
X12933476Y-13699952D01*
X12914428Y-13709476D01*
X12895381Y-13709476D01*
X12876333Y-13699952D01*
X12866809Y-13690428D01*
X12857286Y-13671381D01*
X12847762Y-13633286D01*
X12847762Y-13585667D01*
X12857286Y-13547571D01*
X12866809Y-13528524D01*
X12876333Y-13519000D01*
X12895381Y-13509476D01*
X13047762Y-13709476D02*
X13047762Y-13576143D01*
X13047762Y-13595190D02*
X13057286Y-13585667D01*
X13076333Y-13576143D01*
X13104905Y-13576143D01*
X13123952Y-13585667D01*
X13133476Y-13604714D01*
X13133476Y-13709476D01*
X13133476Y-13604714D02*
X13143000Y-13585667D01*
X13162048Y-13576143D01*
X13190619Y-13576143D01*
X13209667Y-13585667D01*
X13219190Y-13604714D01*
X13219190Y-13709476D01*
X13314428Y-13709476D02*
X13314428Y-13576143D01*
X13314428Y-13595190D02*
X13323952Y-13585667D01*
X13343000Y-13576143D01*
X13371571Y-13576143D01*
X13390619Y-13585667D01*
X13400143Y-13604714D01*
X13400143Y-13709476D01*
X13400143Y-13604714D02*
X13409667Y-13585667D01*
X13428714Y-13576143D01*
X13457286Y-13576143D01*
X13476333Y-13585667D01*
X13485857Y-13604714D01*
X13485857Y-13709476D01*
X13876333Y-13499952D02*
X13704905Y-13757095D01*
X14133476Y-13509476D02*
X14152524Y-13509476D01*
X14171571Y-13519000D01*
X14181095Y-13528524D01*
X14190619Y-13547571D01*
X14200143Y-13585667D01*
X14200143Y-13633286D01*
X14190619Y-13671381D01*
X14181095Y-13690428D01*
X14171571Y-13699952D01*
X14152524Y-13709476D01*
X14133476Y-13709476D01*
X14114428Y-13699952D01*
X14104905Y-13690428D01*
X14095381Y-13671381D01*
X14085857Y-13633286D01*
X14085857Y-13585667D01*
X14095381Y-13547571D01*
X14104905Y-13528524D01*
X14114428Y-13519000D01*
X14133476Y-13509476D01*
X14285857Y-13690428D02*
X14295381Y-13699952D01*
X14285857Y-13709476D01*
X14276333Y-13699952D01*
X14285857Y-13690428D01*
X14285857Y-13709476D01*
X14419190Y-13509476D02*
X14438238Y-13509476D01*
X14457286Y-13519000D01*
X14466809Y-13528524D01*
X14476333Y-13547571D01*
X14485857Y-13585667D01*
X14485857Y-13633286D01*
X14476333Y-13671381D01*
X14466809Y-13690428D01*
X14457286Y-13699952D01*
X14438238Y-13709476D01*
X14419190Y-13709476D01*
X14400143Y-13699952D01*
X14390619Y-13690428D01*
X14381095Y-13671381D01*
X14371571Y-13633286D01*
X14371571Y-13585667D01*
X14381095Y-13547571D01*
X14390619Y-13528524D01*
X14400143Y-13519000D01*
X14419190Y-13509476D01*
X14657286Y-13576143D02*
X14657286Y-13709476D01*
X14609667Y-13499952D02*
X14562048Y-13642809D01*
X14685857Y-13642809D01*
X14743000Y-13509476D02*
X14866809Y-13509476D01*
X14800143Y-13585667D01*
X14828714Y-13585667D01*
X14847762Y-13595190D01*
X14857286Y-13604714D01*
X14866809Y-13623762D01*
X14866809Y-13671381D01*
X14857286Y-13690428D01*
X14847762Y-13699952D01*
X14828714Y-13709476D01*
X14771571Y-13709476D01*
X14752524Y-13699952D01*
X14743000Y-13690428D01*
X14933476Y-13509476D02*
X15057286Y-13509476D01*
X14990619Y-13585667D01*
X15019190Y-13585667D01*
X15038238Y-13595190D01*
X15047762Y-13604714D01*
X15057286Y-13623762D01*
X15057286Y-13671381D01*
X15047762Y-13690428D01*
X15038238Y-13699952D01*
X15019190Y-13709476D01*
X14962048Y-13709476D01*
X14943000Y-13699952D01*
X14933476Y-13690428D01*
X15133476Y-13509476D02*
X15133476Y-13547571D01*
X15209667Y-13509476D02*
X15209667Y-13547571D01*
X15504905Y-13785667D02*
X15495381Y-13776143D01*
X15476333Y-13747571D01*
X15466809Y-13728524D01*
X15457286Y-13699952D01*
X15447762Y-13652333D01*
X15447762Y-13614238D01*
X15457286Y-13566619D01*
X15466809Y-13538048D01*
X15476333Y-13519000D01*
X15495381Y-13490428D01*
X15504905Y-13480905D01*
X15666809Y-13576143D02*
X15666809Y-13709476D01*
X15619190Y-13499952D02*
X15571571Y-13642809D01*
X15695381Y-13642809D01*
X15923952Y-13709476D02*
X15923952Y-13509476D01*
X16009667Y-13709476D02*
X16009667Y-13604714D01*
X16000143Y-13585667D01*
X15981095Y-13576143D01*
X15952524Y-13576143D01*
X15933476Y-13585667D01*
X15923952Y-13595190D01*
X16133476Y-13709476D02*
X16114428Y-13699952D01*
X16104905Y-13690428D01*
X16095381Y-13671381D01*
X16095381Y-13614238D01*
X16104905Y-13595190D01*
X16114428Y-13585667D01*
X16133476Y-13576143D01*
X16162048Y-13576143D01*
X16181095Y-13585667D01*
X16190619Y-13595190D01*
X16200143Y-13614238D01*
X16200143Y-13671381D01*
X16190619Y-13690428D01*
X16181095Y-13699952D01*
X16162048Y-13709476D01*
X16133476Y-13709476D01*
X16314428Y-13709476D02*
X16295381Y-13699952D01*
X16285857Y-13680905D01*
X16285857Y-13509476D01*
X16466809Y-13699952D02*
X16447762Y-13709476D01*
X16409667Y-13709476D01*
X16390619Y-13699952D01*
X16381095Y-13680905D01*
X16381095Y-13604714D01*
X16390619Y-13585667D01*
X16409667Y-13576143D01*
X16447762Y-13576143D01*
X16466809Y-13585667D01*
X16476333Y-13604714D01*
X16476333Y-13623762D01*
X16381095Y-13642809D01*
X16552524Y-13699952D02*
X16571571Y-13709476D01*
X16609667Y-13709476D01*
X16628714Y-13699952D01*
X16638238Y-13680905D01*
X16638238Y-13671381D01*
X16628714Y-13652333D01*
X16609667Y-13642809D01*
X16581095Y-13642809D01*
X16562048Y-13633286D01*
X16552524Y-13614238D01*
X16552524Y-13604714D01*
X16562048Y-13585667D01*
X16581095Y-13576143D01*
X16609667Y-13576143D01*
X16628714Y-13585667D01*
X16704905Y-13785667D02*
X16714428Y-13776143D01*
X16733476Y-13747571D01*
X16743000Y-13728524D01*
X16752524Y-13699952D01*
X16762048Y-13652333D01*
X16762048Y-13614238D01*
X16752524Y-13566619D01*
X16743000Y-13538048D01*
X16733476Y-13519000D01*
X16714428Y-13490428D01*
X16704905Y-13480905D01*
D15*
X11915427Y-13925427D02*
X11915427Y-13840573D01*
X11830573Y-13840573D01*
X11830573Y-13925427D01*
X11915427Y-13925427D01*
D11*
X12295381Y-13973476D02*
X12181095Y-13973476D01*
X12238238Y-13973476D02*
X12238238Y-13773476D01*
X12219190Y-13802048D01*
X12200143Y-13821095D01*
X12181095Y-13830619D01*
X12381095Y-13954428D02*
X12390619Y-13963952D01*
X12381095Y-13973476D01*
X12371571Y-13963952D01*
X12381095Y-13954428D01*
X12381095Y-13973476D01*
X12466809Y-13792524D02*
X12476333Y-13783000D01*
X12495381Y-13773476D01*
X12543000Y-13773476D01*
X12562048Y-13783000D01*
X12571571Y-13792524D01*
X12581095Y-13811571D01*
X12581095Y-13830619D01*
X12571571Y-13859190D01*
X12457286Y-13973476D01*
X12581095Y-13973476D01*
X12704905Y-13773476D02*
X12723952Y-13773476D01*
X12743000Y-13783000D01*
X12752524Y-13792524D01*
X12762048Y-13811571D01*
X12771571Y-13849667D01*
X12771571Y-13897286D01*
X12762048Y-13935381D01*
X12752524Y-13954428D01*
X12743000Y-13963952D01*
X12723952Y-13973476D01*
X12704905Y-13973476D01*
X12685857Y-13963952D01*
X12676333Y-13954428D01*
X12666809Y-13935381D01*
X12657286Y-13897286D01*
X12657286Y-13849667D01*
X12666809Y-13811571D01*
X12676333Y-13792524D01*
X12685857Y-13783000D01*
X12704905Y-13773476D01*
X12895381Y-13773476D02*
X12914428Y-13773476D01*
X12933476Y-13783000D01*
X12943000Y-13792524D01*
X12952524Y-13811571D01*
X12962048Y-13849667D01*
X12962048Y-13897286D01*
X12952524Y-13935381D01*
X12943000Y-13954428D01*
X12933476Y-13963952D01*
X12914428Y-13973476D01*
X12895381Y-13973476D01*
X12876333Y-13963952D01*
X12866809Y-13954428D01*
X12857286Y-13935381D01*
X12847762Y-13897286D01*
X12847762Y-13849667D01*
X12857286Y-13811571D01*
X12866809Y-13792524D01*
X12876333Y-13783000D01*
X12895381Y-13773476D01*
X13047762Y-13973476D02*
X13047762Y-13840143D01*
X13047762Y-13859190D02*
X13057286Y-13849667D01*
X13076333Y-13840143D01*
X13104905Y-13840143D01*
X13123952Y-13849667D01*
X13133476Y-13868714D01*
X13133476Y-13973476D01*
X13133476Y-13868714D02*
X13143000Y-13849667D01*
X13162048Y-13840143D01*
X13190619Y-13840143D01*
X13209667Y-13849667D01*
X13219190Y-13868714D01*
X13219190Y-13973476D01*
X13314428Y-13973476D02*
X13314428Y-13840143D01*
X13314428Y-13859190D02*
X13323952Y-13849667D01*
X13343000Y-13840143D01*
X13371571Y-13840143D01*
X13390619Y-13849667D01*
X13400143Y-13868714D01*
X13400143Y-13973476D01*
X13400143Y-13868714D02*
X13409667Y-13849667D01*
X13428714Y-13840143D01*
X13457286Y-13840143D01*
X13476333Y-13849667D01*
X13485857Y-13868714D01*
X13485857Y-13973476D01*
X13876333Y-13763952D02*
X13704905Y-14021095D01*
X14133476Y-13773476D02*
X14152524Y-13773476D01*
X14171571Y-13783000D01*
X14181095Y-13792524D01*
X14190619Y-13811571D01*
X14200143Y-13849667D01*
X14200143Y-13897286D01*
X14190619Y-13935381D01*
X14181095Y-13954428D01*
X14171571Y-13963952D01*
X14152524Y-13973476D01*
X14133476Y-13973476D01*
X14114428Y-13963952D01*
X14104905Y-13954428D01*
X14095381Y-13935381D01*
X14085857Y-13897286D01*
X14085857Y-13849667D01*
X14095381Y-13811571D01*
X14104905Y-13792524D01*
X14114428Y-13783000D01*
X14133476Y-13773476D01*
X14285857Y-13954428D02*
X14295381Y-13963952D01*
X14285857Y-13973476D01*
X14276333Y-13963952D01*
X14285857Y-13954428D01*
X14285857Y-13973476D01*
X14419190Y-13773476D02*
X14438238Y-13773476D01*
X14457286Y-13783000D01*
X14466809Y-13792524D01*
X14476333Y-13811571D01*
X14485857Y-13849667D01*
X14485857Y-13897286D01*
X14476333Y-13935381D01*
X14466809Y-13954428D01*
X14457286Y-13963952D01*
X14438238Y-13973476D01*
X14419190Y-13973476D01*
X14400143Y-13963952D01*
X14390619Y-13954428D01*
X14381095Y-13935381D01*
X14371571Y-13897286D01*
X14371571Y-13849667D01*
X14381095Y-13811571D01*
X14390619Y-13792524D01*
X14400143Y-13783000D01*
X14419190Y-13773476D01*
X14657286Y-13840143D02*
X14657286Y-13973476D01*
X14609667Y-13763952D02*
X14562048Y-13906809D01*
X14685857Y-13906809D01*
X14743000Y-13773476D02*
X14876333Y-13773476D01*
X14790619Y-13973476D01*
X14943000Y-13792524D02*
X14952524Y-13783000D01*
X14971571Y-13773476D01*
X15019190Y-13773476D01*
X15038238Y-13783000D01*
X15047762Y-13792524D01*
X15057286Y-13811571D01*
X15057286Y-13830619D01*
X15047762Y-13859190D01*
X14933476Y-13973476D01*
X15057286Y-13973476D01*
X15133476Y-13773476D02*
X15133476Y-13811571D01*
X15209667Y-13773476D02*
X15209667Y-13811571D01*
X15504905Y-14049667D02*
X15495381Y-14040143D01*
X15476333Y-14011571D01*
X15466809Y-13992524D01*
X15457286Y-13963952D01*
X15447762Y-13916333D01*
X15447762Y-13878238D01*
X15457286Y-13830619D01*
X15466809Y-13802048D01*
X15476333Y-13783000D01*
X15495381Y-13754428D01*
X15504905Y-13744905D01*
X15676333Y-13773476D02*
X15581095Y-13773476D01*
X15571571Y-13868714D01*
X15581095Y-13859190D01*
X15600143Y-13849667D01*
X15647762Y-13849667D01*
X15666809Y-13859190D01*
X15676333Y-13868714D01*
X15685857Y-13887762D01*
X15685857Y-13935381D01*
X15676333Y-13954428D01*
X15666809Y-13963952D01*
X15647762Y-13973476D01*
X15600143Y-13973476D01*
X15581095Y-13963952D01*
X15571571Y-13954428D01*
X15923952Y-13973476D02*
X15923952Y-13773476D01*
X16009667Y-13973476D02*
X16009667Y-13868714D01*
X16000143Y-13849667D01*
X15981095Y-13840143D01*
X15952524Y-13840143D01*
X15933476Y-13849667D01*
X15923952Y-13859190D01*
X16133476Y-13973476D02*
X16114428Y-13963952D01*
X16104905Y-13954428D01*
X16095381Y-13935381D01*
X16095381Y-13878238D01*
X16104905Y-13859190D01*
X16114428Y-13849667D01*
X16133476Y-13840143D01*
X16162048Y-13840143D01*
X16181095Y-13849667D01*
X16190619Y-13859190D01*
X16200143Y-13878238D01*
X16200143Y-13935381D01*
X16190619Y-13954428D01*
X16181095Y-13963952D01*
X16162048Y-13973476D01*
X16133476Y-13973476D01*
X16314428Y-13973476D02*
X16295381Y-13963952D01*
X16285857Y-13944905D01*
X16285857Y-13773476D01*
X16466809Y-13963952D02*
X16447762Y-13973476D01*
X16409667Y-13973476D01*
X16390619Y-13963952D01*
X16381095Y-13944905D01*
X16381095Y-13868714D01*
X16390619Y-13849667D01*
X16409667Y-13840143D01*
X16447762Y-13840143D01*
X16466809Y-13849667D01*
X16476333Y-13868714D01*
X16476333Y-13887762D01*
X16381095Y-13906809D01*
X16552524Y-13963952D02*
X16571571Y-13973476D01*
X16609667Y-13973476D01*
X16628714Y-13963952D01*
X16638238Y-13944905D01*
X16638238Y-13935381D01*
X16628714Y-13916333D01*
X16609667Y-13906809D01*
X16581095Y-13906809D01*
X16562048Y-13897286D01*
X16552524Y-13878238D01*
X16552524Y-13868714D01*
X16562048Y-13849667D01*
X16581095Y-13840143D01*
X16609667Y-13840143D01*
X16628714Y-13849667D01*
X16704905Y-14049667D02*
X16714428Y-14040143D01*
X16733476Y-14011571D01*
X16743000Y-13992524D01*
X16752524Y-13963952D01*
X16762048Y-13916333D01*
X16762048Y-13878238D01*
X16752524Y-13830619D01*
X16743000Y-13802048D01*
X16733476Y-13783000D01*
X16714428Y-13754428D01*
X16704905Y-13744905D01*
D16*
X11868000Y-14212000D02*
X11933000Y-14147000D01*
X11868000Y-14082000D01*
X11803000Y-14147000D01*
X11868000Y-14212000D01*
D11*
X12295381Y-14237476D02*
X12181095Y-14237476D01*
X12238238Y-14237476D02*
X12238238Y-14037476D01*
X12219190Y-14066048D01*
X12200143Y-14085095D01*
X12181095Y-14094619D01*
X12381095Y-14218428D02*
X12390619Y-14227952D01*
X12381095Y-14237476D01*
X12371571Y-14227952D01*
X12381095Y-14218428D01*
X12381095Y-14237476D01*
X12457286Y-14037476D02*
X12581095Y-14037476D01*
X12514428Y-14113667D01*
X12543000Y-14113667D01*
X12562048Y-14123190D01*
X12571571Y-14132714D01*
X12581095Y-14151762D01*
X12581095Y-14199381D01*
X12571571Y-14218428D01*
X12562048Y-14227952D01*
X12543000Y-14237476D01*
X12485857Y-14237476D01*
X12466809Y-14227952D01*
X12457286Y-14218428D01*
X12704905Y-14037476D02*
X12723952Y-14037476D01*
X12743000Y-14047000D01*
X12752524Y-14056524D01*
X12762048Y-14075571D01*
X12771571Y-14113667D01*
X12771571Y-14161286D01*
X12762048Y-14199381D01*
X12752524Y-14218428D01*
X12743000Y-14227952D01*
X12723952Y-14237476D01*
X12704905Y-14237476D01*
X12685857Y-14227952D01*
X12676333Y-14218428D01*
X12666809Y-14199381D01*
X12657286Y-14161286D01*
X12657286Y-14113667D01*
X12666809Y-14075571D01*
X12676333Y-14056524D01*
X12685857Y-14047000D01*
X12704905Y-14037476D01*
X12895381Y-14037476D02*
X12914428Y-14037476D01*
X12933476Y-14047000D01*
X12943000Y-14056524D01*
X12952524Y-14075571D01*
X12962048Y-14113667D01*
X12962048Y-14161286D01*
X12952524Y-14199381D01*
X12943000Y-14218428D01*
X12933476Y-14227952D01*
X12914428Y-14237476D01*
X12895381Y-14237476D01*
X12876333Y-14227952D01*
X12866809Y-14218428D01*
X12857286Y-14199381D01*
X12847762Y-14161286D01*
X12847762Y-14113667D01*
X12857286Y-14075571D01*
X12866809Y-14056524D01*
X12876333Y-14047000D01*
X12895381Y-14037476D01*
X13047762Y-14237476D02*
X13047762Y-14104143D01*
X13047762Y-14123190D02*
X13057286Y-14113667D01*
X13076333Y-14104143D01*
X13104905Y-14104143D01*
X13123952Y-14113667D01*
X13133476Y-14132714D01*
X13133476Y-14237476D01*
X13133476Y-14132714D02*
X13143000Y-14113667D01*
X13162048Y-14104143D01*
X13190619Y-14104143D01*
X13209667Y-14113667D01*
X13219190Y-14132714D01*
X13219190Y-14237476D01*
X13314428Y-14237476D02*
X13314428Y-14104143D01*
X13314428Y-14123190D02*
X13323952Y-14113667D01*
X13343000Y-14104143D01*
X13371571Y-14104143D01*
X13390619Y-14113667D01*
X13400143Y-14132714D01*
X13400143Y-14237476D01*
X13400143Y-14132714D02*
X13409667Y-14113667D01*
X13428714Y-14104143D01*
X13457286Y-14104143D01*
X13476333Y-14113667D01*
X13485857Y-14132714D01*
X13485857Y-14237476D01*
X13876333Y-14027952D02*
X13704905Y-14285095D01*
X14133476Y-14037476D02*
X14152524Y-14037476D01*
X14171571Y-14047000D01*
X14181095Y-14056524D01*
X14190619Y-14075571D01*
X14200143Y-14113667D01*
X14200143Y-14161286D01*
X14190619Y-14199381D01*
X14181095Y-14218428D01*
X14171571Y-14227952D01*
X14152524Y-14237476D01*
X14133476Y-14237476D01*
X14114428Y-14227952D01*
X14104905Y-14218428D01*
X14095381Y-14199381D01*
X14085857Y-14161286D01*
X14085857Y-14113667D01*
X14095381Y-14075571D01*
X14104905Y-14056524D01*
X14114428Y-14047000D01*
X14133476Y-14037476D01*
X14285857Y-14218428D02*
X14295381Y-14227952D01*
X14285857Y-14237476D01*
X14276333Y-14227952D01*
X14285857Y-14218428D01*
X14285857Y-14237476D01*
X14419190Y-14037476D02*
X14438238Y-14037476D01*
X14457286Y-14047000D01*
X14466809Y-14056524D01*
X14476333Y-14075571D01*
X14485857Y-14113667D01*
X14485857Y-14161286D01*
X14476333Y-14199381D01*
X14466809Y-14218428D01*
X14457286Y-14227952D01*
X14438238Y-14237476D01*
X14419190Y-14237476D01*
X14400143Y-14227952D01*
X14390619Y-14218428D01*
X14381095Y-14199381D01*
X14371571Y-14161286D01*
X14371571Y-14113667D01*
X14381095Y-14075571D01*
X14390619Y-14056524D01*
X14400143Y-14047000D01*
X14419190Y-14037476D01*
X14666809Y-14037476D02*
X14571571Y-14037476D01*
X14562048Y-14132714D01*
X14571571Y-14123190D01*
X14590619Y-14113667D01*
X14638238Y-14113667D01*
X14657286Y-14123190D01*
X14666809Y-14132714D01*
X14676333Y-14151762D01*
X14676333Y-14199381D01*
X14666809Y-14218428D01*
X14657286Y-14227952D01*
X14638238Y-14237476D01*
X14590619Y-14237476D01*
X14571571Y-14227952D01*
X14562048Y-14218428D01*
X14866809Y-14237476D02*
X14752524Y-14237476D01*
X14809667Y-14237476D02*
X14809667Y-14037476D01*
X14790619Y-14066048D01*
X14771571Y-14085095D01*
X14752524Y-14094619D01*
X14943000Y-14056524D02*
X14952524Y-14047000D01*
X14971571Y-14037476D01*
X15019190Y-14037476D01*
X15038238Y-14047000D01*
X15047762Y-14056524D01*
X15057286Y-14075571D01*
X15057286Y-14094619D01*
X15047762Y-14123190D01*
X14933476Y-14237476D01*
X15057286Y-14237476D01*
X15133476Y-14037476D02*
X15133476Y-14075571D01*
X15209667Y-14037476D02*
X15209667Y-14075571D01*
X15504905Y-14313667D02*
X15495381Y-14304143D01*
X15476333Y-14275571D01*
X15466809Y-14256524D01*
X15457286Y-14227952D01*
X15447762Y-14180333D01*
X15447762Y-14142238D01*
X15457286Y-14094619D01*
X15466809Y-14066048D01*
X15476333Y-14047000D01*
X15495381Y-14018428D01*
X15504905Y-14008905D01*
X15571571Y-14056524D02*
X15581095Y-14047000D01*
X15600143Y-14037476D01*
X15647762Y-14037476D01*
X15666809Y-14047000D01*
X15676333Y-14056524D01*
X15685857Y-14075571D01*
X15685857Y-14094619D01*
X15676333Y-14123190D01*
X15562048Y-14237476D01*
X15685857Y-14237476D01*
X15857286Y-14104143D02*
X15857286Y-14237476D01*
X15809667Y-14027952D02*
X15762048Y-14170809D01*
X15885857Y-14170809D01*
X16114428Y-14237476D02*
X16114428Y-14037476D01*
X16200143Y-14237476D02*
X16200143Y-14132714D01*
X16190619Y-14113667D01*
X16171571Y-14104143D01*
X16143000Y-14104143D01*
X16123952Y-14113667D01*
X16114428Y-14123190D01*
X16323952Y-14237476D02*
X16304905Y-14227952D01*
X16295381Y-14218428D01*
X16285857Y-14199381D01*
X16285857Y-14142238D01*
X16295381Y-14123190D01*
X16304905Y-14113667D01*
X16323952Y-14104143D01*
X16352524Y-14104143D01*
X16371571Y-14113667D01*
X16381095Y-14123190D01*
X16390619Y-14142238D01*
X16390619Y-14199381D01*
X16381095Y-14218428D01*
X16371571Y-14227952D01*
X16352524Y-14237476D01*
X16323952Y-14237476D01*
X16504905Y-14237476D02*
X16485857Y-14227952D01*
X16476333Y-14208905D01*
X16476333Y-14037476D01*
X16657286Y-14227952D02*
X16638238Y-14237476D01*
X16600143Y-14237476D01*
X16581095Y-14227952D01*
X16571571Y-14208905D01*
X16571571Y-14132714D01*
X16581095Y-14113667D01*
X16600143Y-14104143D01*
X16638238Y-14104143D01*
X16657286Y-14113667D01*
X16666809Y-14132714D01*
X16666809Y-14151762D01*
X16571571Y-14170809D01*
X16743000Y-14227952D02*
X16762048Y-14237476D01*
X16800143Y-14237476D01*
X16819190Y-14227952D01*
X16828714Y-14208905D01*
X16828714Y-14199381D01*
X16819190Y-14180333D01*
X16800143Y-14170809D01*
X16771571Y-14170809D01*
X16752524Y-14161286D01*
X16743000Y-14142238D01*
X16743000Y-14132714D01*
X16752524Y-14113667D01*
X16771571Y-14104143D01*
X16800143Y-14104143D01*
X16819190Y-14113667D01*
X16895381Y-14313667D02*
X16904905Y-14304143D01*
X16923952Y-14275571D01*
X16933476Y-14256524D01*
X16943000Y-14227952D01*
X16952524Y-14180333D01*
X16952524Y-14142238D01*
X16943000Y-14094619D01*
X16933476Y-14066048D01*
X16923952Y-14047000D01*
X16904905Y-14018428D01*
X16895381Y-14008905D01*
D17*
X11773000Y-14331000D02*
X11933000Y-14491000D01*
X11933000Y-14331000D02*
X11773000Y-14491000D01*
X11933000Y-14411000D02*
G75*
G03*
X11933000Y-14411000I-80000J0D01*
G01*
D11*
X12295381Y-14501476D02*
X12181095Y-14501476D01*
X12238238Y-14501476D02*
X12238238Y-14301476D01*
X12219190Y-14330048D01*
X12200143Y-14349095D01*
X12181095Y-14358619D01*
X12381095Y-14482428D02*
X12390619Y-14491952D01*
X12381095Y-14501476D01*
X12371571Y-14491952D01*
X12381095Y-14482428D01*
X12381095Y-14501476D01*
X12562048Y-14301476D02*
X12523952Y-14301476D01*
X12504905Y-14311000D01*
X12495381Y-14320524D01*
X12476333Y-14349095D01*
X12466809Y-14387190D01*
X12466809Y-14463381D01*
X12476333Y-14482428D01*
X12485857Y-14491952D01*
X12504905Y-14501476D01*
X12543000Y-14501476D01*
X12562048Y-14491952D01*
X12571571Y-14482428D01*
X12581095Y-14463381D01*
X12581095Y-14415762D01*
X12571571Y-14396714D01*
X12562048Y-14387190D01*
X12543000Y-14377667D01*
X12504905Y-14377667D01*
X12485857Y-14387190D01*
X12476333Y-14396714D01*
X12466809Y-14415762D01*
X12704905Y-14301476D02*
X12723952Y-14301476D01*
X12743000Y-14311000D01*
X12752524Y-14320524D01*
X12762048Y-14339571D01*
X12771571Y-14377667D01*
X12771571Y-14425286D01*
X12762048Y-14463381D01*
X12752524Y-14482428D01*
X12743000Y-14491952D01*
X12723952Y-14501476D01*
X12704905Y-14501476D01*
X12685857Y-14491952D01*
X12676333Y-14482428D01*
X12666809Y-14463381D01*
X12657286Y-14425286D01*
X12657286Y-14377667D01*
X12666809Y-14339571D01*
X12676333Y-14320524D01*
X12685857Y-14311000D01*
X12704905Y-14301476D01*
X12895381Y-14301476D02*
X12914428Y-14301476D01*
X12933476Y-14311000D01*
X12943000Y-14320524D01*
X12952524Y-14339571D01*
X12962048Y-14377667D01*
X12962048Y-14425286D01*
X12952524Y-14463381D01*
X12943000Y-14482428D01*
X12933476Y-14491952D01*
X12914428Y-14501476D01*
X12895381Y-14501476D01*
X12876333Y-14491952D01*
X12866809Y-14482428D01*
X12857286Y-14463381D01*
X12847762Y-14425286D01*
X12847762Y-14377667D01*
X12857286Y-14339571D01*
X12866809Y-14320524D01*
X12876333Y-14311000D01*
X12895381Y-14301476D01*
X13047762Y-14501476D02*
X13047762Y-14368143D01*
X13047762Y-14387190D02*
X13057286Y-14377667D01*
X13076333Y-14368143D01*
X13104905Y-14368143D01*
X13123952Y-14377667D01*
X13133476Y-14396714D01*
X13133476Y-14501476D01*
X13133476Y-14396714D02*
X13143000Y-14377667D01*
X13162048Y-14368143D01*
X13190619Y-14368143D01*
X13209667Y-14377667D01*
X13219190Y-14396714D01*
X13219190Y-14501476D01*
X13314428Y-14501476D02*
X13314428Y-14368143D01*
X13314428Y-14387190D02*
X13323952Y-14377667D01*
X13343000Y-14368143D01*
X13371571Y-14368143D01*
X13390619Y-14377667D01*
X13400143Y-14396714D01*
X13400143Y-14501476D01*
X13400143Y-14396714D02*
X13409667Y-14377667D01*
X13428714Y-14368143D01*
X13457286Y-14368143D01*
X13476333Y-14377667D01*
X13485857Y-14396714D01*
X13485857Y-14501476D01*
X13876333Y-14291952D02*
X13704905Y-14549095D01*
X14133476Y-14301476D02*
X14152524Y-14301476D01*
X14171571Y-14311000D01*
X14181095Y-14320524D01*
X14190619Y-14339571D01*
X14200143Y-14377667D01*
X14200143Y-14425286D01*
X14190619Y-14463381D01*
X14181095Y-14482428D01*
X14171571Y-14491952D01*
X14152524Y-14501476D01*
X14133476Y-14501476D01*
X14114428Y-14491952D01*
X14104905Y-14482428D01*
X14095381Y-14463381D01*
X14085857Y-14425286D01*
X14085857Y-14377667D01*
X14095381Y-14339571D01*
X14104905Y-14320524D01*
X14114428Y-14311000D01*
X14133476Y-14301476D01*
X14285857Y-14482428D02*
X14295381Y-14491952D01*
X14285857Y-14501476D01*
X14276333Y-14491952D01*
X14285857Y-14482428D01*
X14285857Y-14501476D01*
X14419190Y-14301476D02*
X14438238Y-14301476D01*
X14457286Y-14311000D01*
X14466809Y-14320524D01*
X14476333Y-14339571D01*
X14485857Y-14377667D01*
X14485857Y-14425286D01*
X14476333Y-14463381D01*
X14466809Y-14482428D01*
X14457286Y-14491952D01*
X14438238Y-14501476D01*
X14419190Y-14501476D01*
X14400143Y-14491952D01*
X14390619Y-14482428D01*
X14381095Y-14463381D01*
X14371571Y-14425286D01*
X14371571Y-14377667D01*
X14381095Y-14339571D01*
X14390619Y-14320524D01*
X14400143Y-14311000D01*
X14419190Y-14301476D01*
X14657286Y-14301476D02*
X14619190Y-14301476D01*
X14600143Y-14311000D01*
X14590619Y-14320524D01*
X14571571Y-14349095D01*
X14562048Y-14387190D01*
X14562048Y-14463381D01*
X14571571Y-14482428D01*
X14581095Y-14491952D01*
X14600143Y-14501476D01*
X14638238Y-14501476D01*
X14657286Y-14491952D01*
X14666809Y-14482428D01*
X14676333Y-14463381D01*
X14676333Y-14415762D01*
X14666809Y-14396714D01*
X14657286Y-14387190D01*
X14638238Y-14377667D01*
X14600143Y-14377667D01*
X14581095Y-14387190D01*
X14571571Y-14396714D01*
X14562048Y-14415762D01*
X14743000Y-14301476D02*
X14866809Y-14301476D01*
X14800143Y-14377667D01*
X14828714Y-14377667D01*
X14847762Y-14387190D01*
X14857286Y-14396714D01*
X14866809Y-14415762D01*
X14866809Y-14463381D01*
X14857286Y-14482428D01*
X14847762Y-14491952D01*
X14828714Y-14501476D01*
X14771571Y-14501476D01*
X14752524Y-14491952D01*
X14743000Y-14482428D01*
X14990619Y-14301476D02*
X15009667Y-14301476D01*
X15028714Y-14311000D01*
X15038238Y-14320524D01*
X15047762Y-14339571D01*
X15057286Y-14377667D01*
X15057286Y-14425286D01*
X15047762Y-14463381D01*
X15038238Y-14482428D01*
X15028714Y-14491952D01*
X15009667Y-14501476D01*
X14990619Y-14501476D01*
X14971571Y-14491952D01*
X14962048Y-14482428D01*
X14952524Y-14463381D01*
X14943000Y-14425286D01*
X14943000Y-14377667D01*
X14952524Y-14339571D01*
X14962048Y-14320524D01*
X14971571Y-14311000D01*
X14990619Y-14301476D01*
X15133476Y-14301476D02*
X15133476Y-14339571D01*
X15209667Y-14301476D02*
X15209667Y-14339571D01*
X15504905Y-14577667D02*
X15495381Y-14568143D01*
X15476333Y-14539571D01*
X15466809Y-14520524D01*
X15457286Y-14491952D01*
X15447762Y-14444333D01*
X15447762Y-14406238D01*
X15457286Y-14358619D01*
X15466809Y-14330048D01*
X15476333Y-14311000D01*
X15495381Y-14282428D01*
X15504905Y-14272905D01*
X15571571Y-14320524D02*
X15581095Y-14311000D01*
X15600143Y-14301476D01*
X15647762Y-14301476D01*
X15666809Y-14311000D01*
X15676333Y-14320524D01*
X15685857Y-14339571D01*
X15685857Y-14358619D01*
X15676333Y-14387190D01*
X15562048Y-14501476D01*
X15685857Y-14501476D01*
X15923952Y-14501476D02*
X15923952Y-14301476D01*
X16009667Y-14501476D02*
X16009667Y-14396714D01*
X16000143Y-14377667D01*
X15981095Y-14368143D01*
X15952524Y-14368143D01*
X15933476Y-14377667D01*
X15923952Y-14387190D01*
X16133476Y-14501476D02*
X16114428Y-14491952D01*
X16104905Y-14482428D01*
X16095381Y-14463381D01*
X16095381Y-14406238D01*
X16104905Y-14387190D01*
X16114428Y-14377667D01*
X16133476Y-14368143D01*
X16162048Y-14368143D01*
X16181095Y-14377667D01*
X16190619Y-14387190D01*
X16200143Y-14406238D01*
X16200143Y-14463381D01*
X16190619Y-14482428D01*
X16181095Y-14491952D01*
X16162048Y-14501476D01*
X16133476Y-14501476D01*
X16314428Y-14501476D02*
X16295381Y-14491952D01*
X16285857Y-14472905D01*
X16285857Y-14301476D01*
X16466809Y-14491952D02*
X16447762Y-14501476D01*
X16409667Y-14501476D01*
X16390619Y-14491952D01*
X16381095Y-14472905D01*
X16381095Y-14396714D01*
X16390619Y-14377667D01*
X16409667Y-14368143D01*
X16447762Y-14368143D01*
X16466809Y-14377667D01*
X16476333Y-14396714D01*
X16476333Y-14415762D01*
X16381095Y-14434809D01*
X16552524Y-14491952D02*
X16571571Y-14501476D01*
X16609667Y-14501476D01*
X16628714Y-14491952D01*
X16638238Y-14472905D01*
X16638238Y-14463381D01*
X16628714Y-14444333D01*
X16609667Y-14434809D01*
X16581095Y-14434809D01*
X16562048Y-14425286D01*
X16552524Y-14406238D01*
X16552524Y-14396714D01*
X16562048Y-14377667D01*
X16581095Y-14368143D01*
X16609667Y-14368143D01*
X16628714Y-14377667D01*
X16704905Y-14577667D02*
X16714428Y-14568143D01*
X16733476Y-14539571D01*
X16743000Y-14520524D01*
X16752524Y-14491952D01*
X16762048Y-14444333D01*
X16762048Y-14406238D01*
X16752524Y-14358619D01*
X16743000Y-14330048D01*
X16733476Y-14311000D01*
X16714428Y-14282428D01*
X16704905Y-14272905D01*
M02*
