%TF.GenerationSoftware,KiCad,Pcbnew,(6.0.8)*%
%TF.CreationDate,2022-12-01T23:18:13-05:00*%
%TF.ProjectId,HardwareDesign,48617264-7761-4726-9544-657369676e2e,1.0.*%
%TF.SameCoordinates,Original*%
%TF.FileFunction,Soldermask,Bot*%
%TF.FilePolarity,Negative*%
%FSLAX46Y46*%
G04 Gerber Fmt 4.6, Leading zero omitted, Abs format (unit mm)*
G04 Created by KiCad (PCBNEW (6.0.8)) date 2022-12-01 23:18:13*
%MOMM*%
%LPD*%
G01*
G04 APERTURE LIST*
%TA.AperFunction,Profile*%
%ADD10C,0.100000*%
%TD*%
%ADD11C,0.300000*%
%ADD12R,1.524000X1.524000*%
%ADD13C,1.824000*%
%ADD14R,2.000000X2.000000*%
%ADD15C,2.000000*%
%ADD16C,2.100000*%
%ADD17C,1.800000*%
%ADD18R,3.200000X3.200000*%
%ADD19O,3.200000X3.200000*%
%ADD20C,0.650000*%
G04 APERTURE END LIST*
D10*
X119380000Y-74828400D02*
X119405400Y-124434600D01*
X119405400Y-124434600D02*
X210845400Y-124460000D01*
X210820000Y-74853800D02*
X119380000Y-74828400D01*
X210845400Y-124460000D02*
X210820000Y-74853800D01*
D11*
%TO.C,U2*%
X135025000Y-108597500D03*
X135025000Y-106762500D03*
X135942500Y-109515000D03*
X135942500Y-107680000D03*
X135942500Y-105845000D03*
X136860000Y-108597500D03*
X136860000Y-106762500D03*
X137777500Y-109515000D03*
X137777500Y-107680000D03*
X137777500Y-105845000D03*
X138695000Y-108597500D03*
X138695000Y-106762500D03*
%TD*%
D12*
%TO.C,H1x2_1*%
X155422600Y-94132400D03*
D13*
X157962600Y-94132400D03*
%TD*%
D14*
%TO.C,U4*%
X168910000Y-86360000D03*
D15*
X171450000Y-86360000D03*
X173990000Y-86360000D03*
X176530000Y-86360000D03*
X179070000Y-86360000D03*
X181610000Y-86360000D03*
X184150000Y-86360000D03*
X186690000Y-86360000D03*
X189230000Y-86360000D03*
X191770000Y-86360000D03*
X194310000Y-86360000D03*
X196850000Y-86360000D03*
X199390000Y-86360000D03*
X201930000Y-86360000D03*
X204470000Y-86360000D03*
X207010000Y-86360000D03*
%TD*%
D14*
%TO.C,RFID1*%
X143510000Y-86360000D03*
D15*
X146050000Y-86360000D03*
X148590000Y-86360000D03*
X151130000Y-86360000D03*
X153670000Y-86360000D03*
X156210000Y-86360000D03*
X158750000Y-86360000D03*
X161290000Y-86360000D03*
%TD*%
D16*
%TO.C,H2*%
X206476600Y-78689200D03*
%TD*%
%TO.C,H4*%
X206146400Y-120421400D03*
%TD*%
%TO.C,H1*%
X126314200Y-78841600D03*
%TD*%
D15*
%TO.C,SW1*%
X129665800Y-93359800D03*
X123165800Y-93359800D03*
X129665800Y-88859800D03*
X123165800Y-88859800D03*
%TD*%
D12*
%TO.C,RV1*%
X179095400Y-81254600D03*
D17*
X174015400Y-81254600D03*
X168935400Y-81254600D03*
%TD*%
D18*
%TO.C,D1*%
X185420000Y-96520000D03*
D19*
X170180000Y-96520000D03*
%TD*%
D16*
%TO.C,H3*%
X125831600Y-120370600D03*
%TD*%
D20*
%TO.C,J1*%
X203931500Y-110382800D03*
X203931500Y-104602800D03*
%TD*%
M02*
