%TF.GenerationSoftware,KiCad,Pcbnew,(6.0.8)*%
%TF.CreationDate,2022-12-01T23:18:13-05:00*%
%TF.ProjectId,HardwareDesign,48617264-7761-4726-9544-657369676e2e,1.0.*%
%TF.SameCoordinates,Original*%
%TF.FileFunction,Legend,Top*%
%TF.FilePolarity,Positive*%
%FSLAX46Y46*%
G04 Gerber Fmt 4.6, Leading zero omitted, Abs format (unit mm)*
G04 Created by KiCad (PCBNEW (6.0.8)) date 2022-12-01 23:18:13*
%MOMM*%
%LPD*%
G01*
G04 APERTURE LIST*
%TA.AperFunction,Profile*%
%ADD10C,0.100000*%
%TD*%
%ADD11C,0.300000*%
%ADD12C,0.150000*%
%ADD13C,0.120000*%
%ADD14C,0.127000*%
%ADD15C,0.200000*%
G04 APERTURE END LIST*
D10*
X119380000Y-74828400D02*
X119405400Y-124434600D01*
X119405400Y-124434600D02*
X210845400Y-124460000D01*
X210820000Y-74853800D02*
X119380000Y-74828400D01*
X210845400Y-124460000D02*
X210820000Y-74853800D01*
D11*
X158844371Y-91690000D02*
X158130085Y-92190000D01*
X158844371Y-92547142D02*
X157344371Y-92547142D01*
X157344371Y-91975714D01*
X157415800Y-91832857D01*
X157487228Y-91761428D01*
X157630085Y-91690000D01*
X157844371Y-91690000D01*
X157987228Y-91761428D01*
X158058657Y-91832857D01*
X158130085Y-91975714D01*
X158130085Y-92547142D01*
X157344371Y-91190000D02*
X158844371Y-90190000D01*
X157344371Y-90190000D02*
X158844371Y-91190000D01*
X154804371Y-92582857D02*
X154804371Y-91725714D01*
X156304371Y-92154285D02*
X154804371Y-92154285D01*
X154804371Y-91368571D02*
X156304371Y-90368571D01*
X154804371Y-90368571D02*
X156304371Y-91368571D01*
D12*
%TO.C,R3*%
X151640780Y-91403466D02*
X151164590Y-91736800D01*
X151640780Y-91974895D02*
X150640780Y-91974895D01*
X150640780Y-91593942D01*
X150688400Y-91498704D01*
X150736019Y-91451085D01*
X150831257Y-91403466D01*
X150974114Y-91403466D01*
X151069352Y-91451085D01*
X151116971Y-91498704D01*
X151164590Y-91593942D01*
X151164590Y-91974895D01*
X150640780Y-91070133D02*
X150640780Y-90451085D01*
X151021733Y-90784419D01*
X151021733Y-90641561D01*
X151069352Y-90546323D01*
X151116971Y-90498704D01*
X151212209Y-90451085D01*
X151450304Y-90451085D01*
X151545542Y-90498704D01*
X151593161Y-90546323D01*
X151640780Y-90641561D01*
X151640780Y-90927276D01*
X151593161Y-91022514D01*
X151545542Y-91070133D01*
%TO.C,U2*%
X120187380Y-113766904D02*
X120996904Y-113766904D01*
X121092142Y-113719285D01*
X121139761Y-113671666D01*
X121187380Y-113576428D01*
X121187380Y-113385952D01*
X121139761Y-113290714D01*
X121092142Y-113243095D01*
X120996904Y-113195476D01*
X120187380Y-113195476D01*
X120282619Y-112766904D02*
X120235000Y-112719285D01*
X120187380Y-112624047D01*
X120187380Y-112385952D01*
X120235000Y-112290714D01*
X120282619Y-112243095D01*
X120377857Y-112195476D01*
X120473095Y-112195476D01*
X120615952Y-112243095D01*
X121187380Y-112814523D01*
X121187380Y-112195476D01*
%TO.C,C5*%
X195000942Y-97601066D02*
X195048561Y-97648685D01*
X195096180Y-97791542D01*
X195096180Y-97886780D01*
X195048561Y-98029638D01*
X194953323Y-98124876D01*
X194858085Y-98172495D01*
X194667609Y-98220114D01*
X194524752Y-98220114D01*
X194334276Y-98172495D01*
X194239038Y-98124876D01*
X194143800Y-98029638D01*
X194096180Y-97886780D01*
X194096180Y-97791542D01*
X194143800Y-97648685D01*
X194191419Y-97601066D01*
X194096180Y-96696304D02*
X194096180Y-97172495D01*
X194572371Y-97220114D01*
X194524752Y-97172495D01*
X194477133Y-97077257D01*
X194477133Y-96839161D01*
X194524752Y-96743923D01*
X194572371Y-96696304D01*
X194667609Y-96648685D01*
X194905704Y-96648685D01*
X195000942Y-96696304D01*
X195048561Y-96743923D01*
X195096180Y-96839161D01*
X195096180Y-97077257D01*
X195048561Y-97172495D01*
X195000942Y-97220114D01*
%TO.C,H1x2_1*%
X153334980Y-96632400D02*
X152334980Y-96632400D01*
X152811171Y-96632400D02*
X152811171Y-96060971D01*
X153334980Y-96060971D02*
X152334980Y-96060971D01*
X153334980Y-95060971D02*
X153334980Y-95632400D01*
X153334980Y-95346685D02*
X152334980Y-95346685D01*
X152477838Y-95441923D01*
X152573076Y-95537161D01*
X152620695Y-95632400D01*
X153334980Y-94727638D02*
X152668314Y-94203828D01*
X152668314Y-94727638D02*
X153334980Y-94203828D01*
X152430219Y-93870495D02*
X152382600Y-93822876D01*
X152334980Y-93727638D01*
X152334980Y-93489542D01*
X152382600Y-93394304D01*
X152430219Y-93346685D01*
X152525457Y-93299066D01*
X152620695Y-93299066D01*
X152763552Y-93346685D01*
X153334980Y-93918114D01*
X153334980Y-93299066D01*
X153430219Y-93108590D02*
X153430219Y-92346685D01*
X153334980Y-91584780D02*
X153334980Y-92156209D01*
X153334980Y-91870495D02*
X152334980Y-91870495D01*
X152477838Y-91965733D01*
X152573076Y-92060971D01*
X152620695Y-92156209D01*
%TO.C,R2*%
X147348180Y-91327266D02*
X146871990Y-91660600D01*
X147348180Y-91898695D02*
X146348180Y-91898695D01*
X146348180Y-91517742D01*
X146395800Y-91422504D01*
X146443419Y-91374885D01*
X146538657Y-91327266D01*
X146681514Y-91327266D01*
X146776752Y-91374885D01*
X146824371Y-91422504D01*
X146871990Y-91517742D01*
X146871990Y-91898695D01*
X146443419Y-90946314D02*
X146395800Y-90898695D01*
X146348180Y-90803457D01*
X146348180Y-90565361D01*
X146395800Y-90470123D01*
X146443419Y-90422504D01*
X146538657Y-90374885D01*
X146633895Y-90374885D01*
X146776752Y-90422504D01*
X147348180Y-90993933D01*
X147348180Y-90374885D01*
%TO.C,U4*%
X165187380Y-88391904D02*
X165996904Y-88391904D01*
X166092142Y-88344285D01*
X166139761Y-88296666D01*
X166187380Y-88201428D01*
X166187380Y-88010952D01*
X166139761Y-87915714D01*
X166092142Y-87868095D01*
X165996904Y-87820476D01*
X165187380Y-87820476D01*
X165520714Y-86915714D02*
X166187380Y-86915714D01*
X165139761Y-87153809D02*
X165854047Y-87391904D01*
X165854047Y-86772857D01*
%TO.C,R6*%
X198844180Y-103392266D02*
X198367990Y-103725600D01*
X198844180Y-103963695D02*
X197844180Y-103963695D01*
X197844180Y-103582742D01*
X197891800Y-103487504D01*
X197939419Y-103439885D01*
X198034657Y-103392266D01*
X198177514Y-103392266D01*
X198272752Y-103439885D01*
X198320371Y-103487504D01*
X198367990Y-103582742D01*
X198367990Y-103963695D01*
X197844180Y-102535123D02*
X197844180Y-102725600D01*
X197891800Y-102820838D01*
X197939419Y-102868457D01*
X198082276Y-102963695D01*
X198272752Y-103011314D01*
X198653704Y-103011314D01*
X198748942Y-102963695D01*
X198796561Y-102916076D01*
X198844180Y-102820838D01*
X198844180Y-102630361D01*
X198796561Y-102535123D01*
X198748942Y-102487504D01*
X198653704Y-102439885D01*
X198415609Y-102439885D01*
X198320371Y-102487504D01*
X198272752Y-102535123D01*
X198225133Y-102630361D01*
X198225133Y-102820838D01*
X198272752Y-102916076D01*
X198320371Y-102963695D01*
X198415609Y-103011314D01*
%TO.C,R5*%
X194881780Y-103519266D02*
X194405590Y-103852600D01*
X194881780Y-104090695D02*
X193881780Y-104090695D01*
X193881780Y-103709742D01*
X193929400Y-103614504D01*
X193977019Y-103566885D01*
X194072257Y-103519266D01*
X194215114Y-103519266D01*
X194310352Y-103566885D01*
X194357971Y-103614504D01*
X194405590Y-103709742D01*
X194405590Y-104090695D01*
X193881780Y-102614504D02*
X193881780Y-103090695D01*
X194357971Y-103138314D01*
X194310352Y-103090695D01*
X194262733Y-102995457D01*
X194262733Y-102757361D01*
X194310352Y-102662123D01*
X194357971Y-102614504D01*
X194453209Y-102566885D01*
X194691304Y-102566885D01*
X194786542Y-102614504D01*
X194834161Y-102662123D01*
X194881780Y-102757361D01*
X194881780Y-102995457D01*
X194834161Y-103090695D01*
X194786542Y-103138314D01*
%TO.C,RFID1*%
X140787380Y-87693333D02*
X140311190Y-88026666D01*
X140787380Y-88264761D02*
X139787380Y-88264761D01*
X139787380Y-87883809D01*
X139835000Y-87788571D01*
X139882619Y-87740952D01*
X139977857Y-87693333D01*
X140120714Y-87693333D01*
X140215952Y-87740952D01*
X140263571Y-87788571D01*
X140311190Y-87883809D01*
X140311190Y-88264761D01*
X140263571Y-86931428D02*
X140263571Y-87264761D01*
X140787380Y-87264761D02*
X139787380Y-87264761D01*
X139787380Y-86788571D01*
X140787380Y-86407619D02*
X139787380Y-86407619D01*
X140787380Y-85931428D02*
X139787380Y-85931428D01*
X139787380Y-85693333D01*
X139835000Y-85550476D01*
X139930238Y-85455238D01*
X140025476Y-85407619D01*
X140215952Y-85360000D01*
X140358809Y-85360000D01*
X140549285Y-85407619D01*
X140644523Y-85455238D01*
X140739761Y-85550476D01*
X140787380Y-85693333D01*
X140787380Y-85931428D01*
X140787380Y-84407619D02*
X140787380Y-84979047D01*
X140787380Y-84693333D02*
X139787380Y-84693333D01*
X139930238Y-84788571D01*
X140025476Y-84883809D01*
X140073095Y-84979047D01*
%TO.C,L1*%
X167473333Y-116022380D02*
X166997142Y-116022380D01*
X166997142Y-115022380D01*
X168330476Y-116022380D02*
X167759047Y-116022380D01*
X168044761Y-116022380D02*
X168044761Y-115022380D01*
X167949523Y-115165238D01*
X167854285Y-115260476D01*
X167759047Y-115308095D01*
%TO.C,C6*%
X170013333Y-90117142D02*
X169965714Y-90164761D01*
X169822857Y-90212380D01*
X169727619Y-90212380D01*
X169584761Y-90164761D01*
X169489523Y-90069523D01*
X169441904Y-89974285D01*
X169394285Y-89783809D01*
X169394285Y-89640952D01*
X169441904Y-89450476D01*
X169489523Y-89355238D01*
X169584761Y-89260000D01*
X169727619Y-89212380D01*
X169822857Y-89212380D01*
X169965714Y-89260000D01*
X170013333Y-89307619D01*
X170870476Y-89212380D02*
X170680000Y-89212380D01*
X170584761Y-89260000D01*
X170537142Y-89307619D01*
X170441904Y-89450476D01*
X170394285Y-89640952D01*
X170394285Y-90021904D01*
X170441904Y-90117142D01*
X170489523Y-90164761D01*
X170584761Y-90212380D01*
X170775238Y-90212380D01*
X170870476Y-90164761D01*
X170918095Y-90117142D01*
X170965714Y-90021904D01*
X170965714Y-89783809D01*
X170918095Y-89688571D01*
X170870476Y-89640952D01*
X170775238Y-89593333D01*
X170584761Y-89593333D01*
X170489523Y-89640952D01*
X170441904Y-89688571D01*
X170394285Y-89783809D01*
%TO.C,H2*%
X203728980Y-79451104D02*
X202728980Y-79451104D01*
X203205171Y-79451104D02*
X203205171Y-78879676D01*
X203728980Y-78879676D02*
X202728980Y-78879676D01*
X202824219Y-78451104D02*
X202776600Y-78403485D01*
X202728980Y-78308247D01*
X202728980Y-78070152D01*
X202776600Y-77974914D01*
X202824219Y-77927295D01*
X202919457Y-77879676D01*
X203014695Y-77879676D01*
X203157552Y-77927295D01*
X203728980Y-78498723D01*
X203728980Y-77879676D01*
%TO.C,H4*%
X203398780Y-121183304D02*
X202398780Y-121183304D01*
X202874971Y-121183304D02*
X202874971Y-120611876D01*
X203398780Y-120611876D02*
X202398780Y-120611876D01*
X202732114Y-119707114D02*
X203398780Y-119707114D01*
X202351161Y-119945209D02*
X203065447Y-120183304D01*
X203065447Y-119564257D01*
%TO.C,H1*%
X129966580Y-79603504D02*
X128966580Y-79603504D01*
X129442771Y-79603504D02*
X129442771Y-79032076D01*
X129966580Y-79032076D02*
X128966580Y-79032076D01*
X129966580Y-78032076D02*
X129966580Y-78603504D01*
X129966580Y-78317790D02*
X128966580Y-78317790D01*
X129109438Y-78413028D01*
X129204676Y-78508266D01*
X129252295Y-78603504D01*
%TO.C,SW1*%
X125082466Y-95764561D02*
X125225323Y-95812180D01*
X125463419Y-95812180D01*
X125558657Y-95764561D01*
X125606276Y-95716942D01*
X125653895Y-95621704D01*
X125653895Y-95526466D01*
X125606276Y-95431228D01*
X125558657Y-95383609D01*
X125463419Y-95335990D01*
X125272942Y-95288371D01*
X125177704Y-95240752D01*
X125130085Y-95193133D01*
X125082466Y-95097895D01*
X125082466Y-95002657D01*
X125130085Y-94907419D01*
X125177704Y-94859800D01*
X125272942Y-94812180D01*
X125511038Y-94812180D01*
X125653895Y-94859800D01*
X125987228Y-94812180D02*
X126225323Y-95812180D01*
X126415800Y-95097895D01*
X126606276Y-95812180D01*
X126844371Y-94812180D01*
X127749133Y-95812180D02*
X127177704Y-95812180D01*
X127463419Y-95812180D02*
X127463419Y-94812180D01*
X127368180Y-94955038D01*
X127272942Y-95050276D01*
X127177704Y-95097895D01*
%TO.C,C3*%
X191587142Y-111926666D02*
X191634761Y-111974285D01*
X191682380Y-112117142D01*
X191682380Y-112212380D01*
X191634761Y-112355238D01*
X191539523Y-112450476D01*
X191444285Y-112498095D01*
X191253809Y-112545714D01*
X191110952Y-112545714D01*
X190920476Y-112498095D01*
X190825238Y-112450476D01*
X190730000Y-112355238D01*
X190682380Y-112212380D01*
X190682380Y-112117142D01*
X190730000Y-111974285D01*
X190777619Y-111926666D01*
X190682380Y-111593333D02*
X190682380Y-110974285D01*
X191063333Y-111307619D01*
X191063333Y-111164761D01*
X191110952Y-111069523D01*
X191158571Y-111021904D01*
X191253809Y-110974285D01*
X191491904Y-110974285D01*
X191587142Y-111021904D01*
X191634761Y-111069523D01*
X191682380Y-111164761D01*
X191682380Y-111450476D01*
X191634761Y-111545714D01*
X191587142Y-111593333D01*
%TO.C,C7*%
X150947142Y-109386666D02*
X150994761Y-109434285D01*
X151042380Y-109577142D01*
X151042380Y-109672380D01*
X150994761Y-109815238D01*
X150899523Y-109910476D01*
X150804285Y-109958095D01*
X150613809Y-110005714D01*
X150470952Y-110005714D01*
X150280476Y-109958095D01*
X150185238Y-109910476D01*
X150090000Y-109815238D01*
X150042380Y-109672380D01*
X150042380Y-109577142D01*
X150090000Y-109434285D01*
X150137619Y-109386666D01*
X150042380Y-109053333D02*
X150042380Y-108386666D01*
X151042380Y-108815238D01*
%TO.C,C4*%
X192613342Y-103722466D02*
X192660961Y-103770085D01*
X192708580Y-103912942D01*
X192708580Y-104008180D01*
X192660961Y-104151038D01*
X192565723Y-104246276D01*
X192470485Y-104293895D01*
X192280009Y-104341514D01*
X192137152Y-104341514D01*
X191946676Y-104293895D01*
X191851438Y-104246276D01*
X191756200Y-104151038D01*
X191708580Y-104008180D01*
X191708580Y-103912942D01*
X191756200Y-103770085D01*
X191803819Y-103722466D01*
X192041914Y-102865323D02*
X192708580Y-102865323D01*
X191660961Y-103103419D02*
X192375247Y-103341514D01*
X192375247Y-102722466D01*
%TO.C,RV1*%
X166847780Y-81849838D02*
X166371590Y-82183171D01*
X166847780Y-82421266D02*
X165847780Y-82421266D01*
X165847780Y-82040314D01*
X165895400Y-81945076D01*
X165943019Y-81897457D01*
X166038257Y-81849838D01*
X166181114Y-81849838D01*
X166276352Y-81897457D01*
X166323971Y-81945076D01*
X166371590Y-82040314D01*
X166371590Y-82421266D01*
X165847780Y-81564123D02*
X166847780Y-81230790D01*
X165847780Y-80897457D01*
X166847780Y-80040314D02*
X166847780Y-80611742D01*
X166847780Y-80326028D02*
X165847780Y-80326028D01*
X165990638Y-80421266D01*
X166085876Y-80516504D01*
X166133495Y-80611742D01*
%TO.C,R4*%
X192367180Y-91505066D02*
X191890990Y-91838400D01*
X192367180Y-92076495D02*
X191367180Y-92076495D01*
X191367180Y-91695542D01*
X191414800Y-91600304D01*
X191462419Y-91552685D01*
X191557657Y-91505066D01*
X191700514Y-91505066D01*
X191795752Y-91552685D01*
X191843371Y-91600304D01*
X191890990Y-91695542D01*
X191890990Y-92076495D01*
X191700514Y-90647923D02*
X192367180Y-90647923D01*
X191319561Y-90886019D02*
X192033847Y-91124114D01*
X192033847Y-90505066D01*
%TO.C,D1*%
X177061904Y-100692380D02*
X177061904Y-99692380D01*
X177300000Y-99692380D01*
X177442857Y-99740000D01*
X177538095Y-99835238D01*
X177585714Y-99930476D01*
X177633333Y-100120952D01*
X177633333Y-100263809D01*
X177585714Y-100454285D01*
X177538095Y-100549523D01*
X177442857Y-100644761D01*
X177300000Y-100692380D01*
X177061904Y-100692380D01*
X178585714Y-100692380D02*
X178014285Y-100692380D01*
X178300000Y-100692380D02*
X178300000Y-99692380D01*
X178204761Y-99835238D01*
X178109523Y-99930476D01*
X178014285Y-99978095D01*
X185158095Y-99572380D02*
X185158095Y-98572380D01*
X185729523Y-99572380D02*
X185300952Y-99000952D01*
X185729523Y-98572380D02*
X185158095Y-99143809D01*
%TO.C,H3*%
X129483980Y-121132504D02*
X128483980Y-121132504D01*
X128960171Y-121132504D02*
X128960171Y-120561076D01*
X129483980Y-120561076D02*
X128483980Y-120561076D01*
X128483980Y-120180123D02*
X128483980Y-119561076D01*
X128864933Y-119894409D01*
X128864933Y-119751552D01*
X128912552Y-119656314D01*
X128960171Y-119608695D01*
X129055409Y-119561076D01*
X129293504Y-119561076D01*
X129388742Y-119608695D01*
X129436361Y-119656314D01*
X129483980Y-119751552D01*
X129483980Y-120037266D01*
X129436361Y-120132504D01*
X129388742Y-120180123D01*
%TO.C,C1*%
X132585942Y-90946266D02*
X132633561Y-90993885D01*
X132681180Y-91136742D01*
X132681180Y-91231980D01*
X132633561Y-91374838D01*
X132538323Y-91470076D01*
X132443085Y-91517695D01*
X132252609Y-91565314D01*
X132109752Y-91565314D01*
X131919276Y-91517695D01*
X131824038Y-91470076D01*
X131728800Y-91374838D01*
X131681180Y-91231980D01*
X131681180Y-91136742D01*
X131728800Y-90993885D01*
X131776419Y-90946266D01*
X132681180Y-89993885D02*
X132681180Y-90565314D01*
X132681180Y-90279600D02*
X131681180Y-90279600D01*
X131824038Y-90374838D01*
X131919276Y-90470076D01*
X131966895Y-90565314D01*
%TO.C,J1*%
X200248880Y-109251133D02*
X200963166Y-109251133D01*
X201106023Y-109298752D01*
X201201261Y-109393990D01*
X201248880Y-109536847D01*
X201248880Y-109632085D01*
X201248880Y-108251133D02*
X201248880Y-108822561D01*
X201248880Y-108536847D02*
X200248880Y-108536847D01*
X200391738Y-108632085D01*
X200486976Y-108727323D01*
X200534595Y-108822561D01*
%TO.C,C2*%
X159015133Y-104424542D02*
X158967514Y-104472161D01*
X158824657Y-104519780D01*
X158729419Y-104519780D01*
X158586561Y-104472161D01*
X158491323Y-104376923D01*
X158443704Y-104281685D01*
X158396085Y-104091209D01*
X158396085Y-103948352D01*
X158443704Y-103757876D01*
X158491323Y-103662638D01*
X158586561Y-103567400D01*
X158729419Y-103519780D01*
X158824657Y-103519780D01*
X158967514Y-103567400D01*
X159015133Y-103615019D01*
X159396085Y-103615019D02*
X159443704Y-103567400D01*
X159538942Y-103519780D01*
X159777038Y-103519780D01*
X159872276Y-103567400D01*
X159919895Y-103615019D01*
X159967514Y-103710257D01*
X159967514Y-103805495D01*
X159919895Y-103948352D01*
X159348466Y-104519780D01*
X159967514Y-104519780D01*
%TO.C,R1*%
X137867380Y-90641466D02*
X137391190Y-90974800D01*
X137867380Y-91212895D02*
X136867380Y-91212895D01*
X136867380Y-90831942D01*
X136915000Y-90736704D01*
X136962619Y-90689085D01*
X137057857Y-90641466D01*
X137200714Y-90641466D01*
X137295952Y-90689085D01*
X137343571Y-90736704D01*
X137391190Y-90831942D01*
X137391190Y-91212895D01*
X137867380Y-89689085D02*
X137867380Y-90260514D01*
X137867380Y-89974800D02*
X136867380Y-89974800D01*
X137010238Y-90070038D01*
X137105476Y-90165276D01*
X137153095Y-90260514D01*
%TO.C,C8*%
X163983333Y-93477142D02*
X163935714Y-93524761D01*
X163792857Y-93572380D01*
X163697619Y-93572380D01*
X163554761Y-93524761D01*
X163459523Y-93429523D01*
X163411904Y-93334285D01*
X163364285Y-93143809D01*
X163364285Y-93000952D01*
X163411904Y-92810476D01*
X163459523Y-92715238D01*
X163554761Y-92620000D01*
X163697619Y-92572380D01*
X163792857Y-92572380D01*
X163935714Y-92620000D01*
X163983333Y-92667619D01*
X164554761Y-93000952D02*
X164459523Y-92953333D01*
X164411904Y-92905714D01*
X164364285Y-92810476D01*
X164364285Y-92762857D01*
X164411904Y-92667619D01*
X164459523Y-92620000D01*
X164554761Y-92572380D01*
X164745238Y-92572380D01*
X164840476Y-92620000D01*
X164888095Y-92667619D01*
X164935714Y-92762857D01*
X164935714Y-92810476D01*
X164888095Y-92905714D01*
X164840476Y-92953333D01*
X164745238Y-93000952D01*
X164554761Y-93000952D01*
X164459523Y-93048571D01*
X164411904Y-93096190D01*
X164364285Y-93191428D01*
X164364285Y-93381904D01*
X164411904Y-93477142D01*
X164459523Y-93524761D01*
X164554761Y-93572380D01*
X164745238Y-93572380D01*
X164840476Y-93524761D01*
X164888095Y-93477142D01*
X164935714Y-93381904D01*
X164935714Y-93191428D01*
X164888095Y-93096190D01*
X164840476Y-93048571D01*
X164745238Y-93000952D01*
%TO.C,U1*%
X199898095Y-100472380D02*
X199898095Y-101281904D01*
X199945714Y-101377142D01*
X199993333Y-101424761D01*
X200088571Y-101472380D01*
X200279047Y-101472380D01*
X200374285Y-101424761D01*
X200421904Y-101377142D01*
X200469523Y-101281904D01*
X200469523Y-100472380D01*
X201469523Y-101472380D02*
X200898095Y-101472380D01*
X201183809Y-101472380D02*
X201183809Y-100472380D01*
X201088571Y-100615238D01*
X200993333Y-100710476D01*
X200898095Y-100758095D01*
%TO.C,U3*%
X188982380Y-109146904D02*
X189791904Y-109146904D01*
X189887142Y-109099285D01*
X189934761Y-109051666D01*
X189982380Y-108956428D01*
X189982380Y-108765952D01*
X189934761Y-108670714D01*
X189887142Y-108623095D01*
X189791904Y-108575476D01*
X188982380Y-108575476D01*
X188982380Y-108194523D02*
X188982380Y-107575476D01*
X189363333Y-107908809D01*
X189363333Y-107765952D01*
X189410952Y-107670714D01*
X189458571Y-107623095D01*
X189553809Y-107575476D01*
X189791904Y-107575476D01*
X189887142Y-107623095D01*
X189934761Y-107670714D01*
X189982380Y-107765952D01*
X189982380Y-108051666D01*
X189934761Y-108146904D01*
X189887142Y-108194523D01*
D13*
%TO.C,R3*%
X150280900Y-90999542D02*
X150280900Y-91474058D01*
X149235900Y-90999542D02*
X149235900Y-91474058D01*
D14*
%TO.C,U2*%
X147370000Y-97680000D02*
X146720000Y-97680000D01*
X147370000Y-115680000D02*
X147370000Y-113230000D01*
X147370000Y-100130000D02*
X147370000Y-97680000D01*
X121870000Y-97680000D02*
X128370000Y-97680000D01*
X146720000Y-115680000D02*
X147370000Y-115680000D01*
X128370000Y-115680000D02*
X121870000Y-115680000D01*
X121870000Y-115680000D02*
X121870000Y-97680000D01*
D15*
X129470000Y-116680000D02*
G75*
G03*
X129470000Y-116680000I-100000J0D01*
G01*
D13*
%TO.C,C5*%
X193698800Y-97173148D02*
X193698800Y-97695652D01*
X192228800Y-97173148D02*
X192228800Y-97695652D01*
%TO.C,H1x2_1*%
X154152600Y-95402400D02*
X159232600Y-95402400D01*
X159232600Y-95402400D02*
X159232600Y-92862400D01*
X159232600Y-92862400D02*
X154152600Y-92862400D01*
X154152600Y-92862400D02*
X154152600Y-95402400D01*
%TO.C,R2*%
X144943300Y-90923342D02*
X144943300Y-91397858D01*
X145988300Y-90923342D02*
X145988300Y-91397858D01*
%TO.C,U4*%
X167005000Y-88900000D02*
X208915000Y-88900000D01*
X208915000Y-88900000D02*
X208915000Y-83820000D01*
X208915000Y-83820000D02*
X167005000Y-83820000D01*
X167005000Y-83820000D02*
X167005000Y-88900000D01*
%TO.C,R6*%
X200344300Y-103462858D02*
X200344300Y-102988342D01*
X199299300Y-103462858D02*
X199299300Y-102988342D01*
%TO.C,R5*%
X196381900Y-103589858D02*
X196381900Y-103115342D01*
X195336900Y-103589858D02*
X195336900Y-103115342D01*
%TO.C,RFID1*%
X141605000Y-88265000D02*
X163195000Y-88265000D01*
X163195000Y-88265000D02*
X163195000Y-84455000D01*
X163195000Y-84455000D02*
X141605000Y-84455000D01*
X141605000Y-84455000D02*
X141605000Y-88265000D01*
%TO.C,L1*%
X172940000Y-114520000D02*
X162340000Y-114520000D01*
X162340000Y-114520000D02*
X162340000Y-111320000D01*
X172940000Y-103920000D02*
X172940000Y-107120000D01*
X172940000Y-111320000D02*
X172940000Y-114520000D01*
X162340000Y-103920000D02*
X172940000Y-103920000D01*
X162340000Y-107120000D02*
X162340000Y-103920000D01*
%TO.C,C6*%
X169918748Y-92175000D02*
X170441252Y-92175000D01*
X169918748Y-90705000D02*
X170441252Y-90705000D01*
%TO.C,SW1*%
X128665800Y-87859800D02*
X124165800Y-87859800D01*
X124165800Y-94359800D02*
X128665800Y-94359800D01*
X122915800Y-90359800D02*
X122915800Y-91859800D01*
X129915800Y-91859800D02*
X129915800Y-90359800D01*
%TO.C,C3*%
X193234437Y-115170000D02*
X192170000Y-114105563D01*
X193234437Y-115170000D02*
X194520000Y-115170000D01*
X197925563Y-115170000D02*
X198990000Y-114105563D01*
X198990000Y-108350000D02*
X196640000Y-108350000D01*
X192170000Y-114105563D02*
X192170000Y-108350000D01*
X197925563Y-115170000D02*
X196640000Y-115170000D01*
X193338750Y-115803750D02*
X194126250Y-115803750D01*
X193732500Y-116197500D02*
X193732500Y-115410000D01*
X192170000Y-108350000D02*
X194520000Y-108350000D01*
X198990000Y-114105563D02*
X198990000Y-108350000D01*
%TO.C,C7*%
X152594437Y-112630000D02*
X153880000Y-112630000D01*
X157285563Y-112630000D02*
X156000000Y-112630000D01*
X158350000Y-111565563D02*
X158350000Y-105810000D01*
X158350000Y-105810000D02*
X156000000Y-105810000D01*
X152594437Y-112630000D02*
X151530000Y-111565563D01*
X151530000Y-111565563D02*
X151530000Y-105810000D01*
X152698750Y-113263750D02*
X153486250Y-113263750D01*
X151530000Y-105810000D02*
X153880000Y-105810000D01*
X153092500Y-113657500D02*
X153092500Y-112870000D01*
X157285563Y-112630000D02*
X158350000Y-111565563D01*
%TO.C,C4*%
X191311200Y-103294548D02*
X191311200Y-103817052D01*
X189841200Y-103294548D02*
X189841200Y-103817052D01*
%TO.C,RV1*%
X167030400Y-79349600D02*
X181000400Y-79349600D01*
X167030400Y-83159600D02*
X167030400Y-79349600D01*
X181000400Y-83159600D02*
X167030400Y-83159600D01*
X181000400Y-79349600D02*
X181000400Y-83159600D01*
%TO.C,R4*%
X193867300Y-91575658D02*
X193867300Y-91101142D01*
X192822300Y-91575658D02*
X192822300Y-91101142D01*
%TO.C,D1*%
X183580000Y-96520000D02*
X182670000Y-96520000D01*
X181245000Y-99240000D02*
X181245000Y-93800000D01*
X182670000Y-99240000D02*
X182670000Y-93800000D01*
X172930000Y-93800000D02*
X172930000Y-99240000D01*
X172930000Y-99240000D02*
X182670000Y-99240000D01*
X181005000Y-99240000D02*
X181005000Y-93800000D01*
X172020000Y-96520000D02*
X172930000Y-96520000D01*
X182670000Y-93800000D02*
X172930000Y-93800000D01*
X181125000Y-99240000D02*
X181125000Y-93800000D01*
%TO.C,C1*%
X133173800Y-91040852D02*
X133173800Y-90518348D01*
X134643800Y-91040852D02*
X134643800Y-90518348D01*
D15*
%TO.C,J1*%
X210211500Y-103022800D02*
X208721500Y-103022800D01*
X208721500Y-111962800D02*
X210211500Y-111962800D01*
X204791500Y-111962800D02*
X206001500Y-111962800D01*
X204791500Y-103022800D02*
X206001500Y-103022800D01*
X210211500Y-111962800D02*
X210211500Y-103022800D01*
X201801500Y-111272800D02*
G75*
G03*
X201801500Y-111272800I-100000J0D01*
G01*
D13*
%TO.C,C2*%
X159443052Y-101652400D02*
X158920548Y-101652400D01*
X159443052Y-103122400D02*
X158920548Y-103122400D01*
%TO.C,R1*%
X139800000Y-90701864D02*
X139800000Y-90247736D01*
X138330000Y-90701864D02*
X138330000Y-90247736D01*
%TO.C,C8*%
X164411252Y-92175000D02*
X163888748Y-92175000D01*
X164411252Y-90705000D02*
X163888748Y-90705000D01*
%TO.C,U1*%
X204760000Y-99930000D02*
X198750000Y-99930000D01*
X198750000Y-99930000D02*
X198750000Y-98670000D01*
X202510000Y-93110000D02*
X198750000Y-93110000D01*
X198750000Y-93110000D02*
X198750000Y-94370000D01*
%TO.C,U3*%
X188080000Y-105435000D02*
X187130000Y-105435000D01*
X178630000Y-105435000D02*
X178630000Y-104335000D01*
X177680000Y-105435000D02*
X178630000Y-105435000D01*
X187130000Y-105435000D02*
X187130000Y-100310000D01*
X188080000Y-106935000D02*
X188080000Y-105435000D01*
X177680000Y-106935000D02*
X177680000Y-105435000D01*
%TD*%
M02*
