%TF.GenerationSoftware,KiCad,Pcbnew,(6.0.8)*%
%TF.CreationDate,2022-12-01T23:18:13-05:00*%
%TF.ProjectId,HardwareDesign,48617264-7761-4726-9544-657369676e2e,1.0.*%
%TF.SameCoordinates,Original*%
%TF.FileFunction,Soldermask,Top*%
%TF.FilePolarity,Negative*%
%FSLAX46Y46*%
G04 Gerber Fmt 4.6, Leading zero omitted, Abs format (unit mm)*
G04 Created by KiCad (PCBNEW (6.0.8)) date 2022-12-01 23:18:13*
%MOMM*%
%LPD*%
G01*
G04 APERTURE LIST*
G04 Aperture macros list*
%AMRoundRect*
0 Rectangle with rounded corners*
0 $1 Rounding radius*
0 $2 $3 $4 $5 $6 $7 $8 $9 X,Y pos of 4 corners*
0 Add a 4 corners polygon primitive as box body*
4,1,4,$2,$3,$4,$5,$6,$7,$8,$9,$2,$3,0*
0 Add four circle primitives for the rounded corners*
1,1,$1+$1,$2,$3*
1,1,$1+$1,$4,$5*
1,1,$1+$1,$6,$7*
1,1,$1+$1,$8,$9*
0 Add four rect primitives between the rounded corners*
20,1,$1+$1,$2,$3,$4,$5,0*
20,1,$1+$1,$4,$5,$6,$7,0*
20,1,$1+$1,$6,$7,$8,$9,0*
20,1,$1+$1,$8,$9,$2,$3,0*%
G04 Aperture macros list end*
%TA.AperFunction,Profile*%
%ADD10C,0.100000*%
%TD*%
%ADD11RoundRect,0.200000X-0.275000X0.200000X-0.275000X-0.200000X0.275000X-0.200000X0.275000X0.200000X0*%
%ADD12R,0.900000X2.000000*%
%ADD13R,2.000000X0.900000*%
%ADD14R,1.330000X1.330000*%
%ADD15C,0.300000*%
%ADD16RoundRect,0.250000X-0.475000X0.250000X-0.475000X-0.250000X0.475000X-0.250000X0.475000X0.250000X0*%
%ADD17R,1.524000X1.524000*%
%ADD18C,1.824000*%
%ADD19R,2.000000X2.000000*%
%ADD20C,2.000000*%
%ADD21RoundRect,0.200000X0.275000X-0.200000X0.275000X0.200000X-0.275000X0.200000X-0.275000X-0.200000X0*%
%ADD22R,2.700000X3.600000*%
%ADD23RoundRect,0.250000X-0.250000X-0.475000X0.250000X-0.475000X0.250000X0.475000X-0.250000X0.475000X0*%
%ADD24C,2.100000*%
%ADD25RoundRect,0.250000X0.550000X-1.500000X0.550000X1.500000X-0.550000X1.500000X-0.550000X-1.500000X0*%
%ADD26C,1.800000*%
%ADD27R,3.200000X3.200000*%
%ADD28O,3.200000X3.200000*%
%ADD29RoundRect,0.250000X0.475000X-0.250000X0.475000X0.250000X-0.475000X0.250000X-0.475000X-0.250000X0*%
%ADD30C,0.650000*%
%ADD31R,1.150000X0.600000*%
%ADD32R,1.150000X0.300000*%
%ADD33R,2.000000X2.180000*%
%ADD34RoundRect,0.250000X0.250000X0.475000X-0.250000X0.475000X-0.250000X-0.475000X0.250000X-0.475000X0*%
%ADD35RoundRect,0.250000X0.450000X-0.262500X0.450000X0.262500X-0.450000X0.262500X-0.450000X-0.262500X0*%
%ADD36R,2.000000X1.500000*%
%ADD37R,2.000000X3.800000*%
%ADD38R,1.100000X4.600000*%
%ADD39R,10.800000X9.400000*%
G04 APERTURE END LIST*
D10*
X119380000Y-74828400D02*
X119405400Y-124434600D01*
X119405400Y-124434600D02*
X210845400Y-124460000D01*
X210820000Y-74853800D02*
X119380000Y-74828400D01*
X210845400Y-124460000D02*
X210820000Y-74853800D01*
D11*
%TO.C,R3*%
X149758400Y-90411800D03*
X149758400Y-92061800D03*
%TD*%
D12*
%TO.C,U2*%
X129360000Y-115180000D03*
X130630000Y-115180000D03*
X131900000Y-115180000D03*
X133170000Y-115180000D03*
X134440000Y-115180000D03*
X135710000Y-115180000D03*
X136980000Y-115180000D03*
X138250000Y-115180000D03*
X139520000Y-115180000D03*
X140790000Y-115180000D03*
X142060000Y-115180000D03*
X143330000Y-115180000D03*
X144600000Y-115180000D03*
X145870000Y-115180000D03*
D13*
X146870000Y-112395000D03*
X146870000Y-111125000D03*
X146870000Y-109855000D03*
X146870000Y-108585000D03*
X146870000Y-107315000D03*
X146870000Y-106045000D03*
X146870000Y-104775000D03*
X146870000Y-103505000D03*
X146870000Y-102235000D03*
X146870000Y-100965000D03*
D12*
X145870000Y-98180000D03*
X144600000Y-98180000D03*
X143330000Y-98180000D03*
X142060000Y-98180000D03*
X140790000Y-98180000D03*
X139520000Y-98180000D03*
X138250000Y-98180000D03*
X136980000Y-98180000D03*
X135710000Y-98180000D03*
X134440000Y-98180000D03*
X133170000Y-98180000D03*
X131900000Y-98180000D03*
X130630000Y-98180000D03*
X129360000Y-98180000D03*
D14*
X135025000Y-109515000D03*
X135025000Y-107680000D03*
X135025000Y-105845000D03*
X136860000Y-109515000D03*
X136860000Y-107680000D03*
X136860000Y-105845000D03*
X138695000Y-109515000D03*
X138695000Y-107680000D03*
X138695000Y-105845000D03*
D15*
X135025000Y-108597500D03*
X135025000Y-106762500D03*
X135942500Y-109515000D03*
X135942500Y-107680000D03*
X135942500Y-105845000D03*
X136860000Y-108597500D03*
X136860000Y-106762500D03*
X137777500Y-109515000D03*
X137777500Y-107680000D03*
X137777500Y-105845000D03*
X138695000Y-108597500D03*
X138695000Y-106762500D03*
%TD*%
D16*
%TO.C,C5*%
X192963800Y-96484400D03*
X192963800Y-98384400D03*
%TD*%
D17*
%TO.C,H1x2_1*%
X155422600Y-94132400D03*
D18*
X157962600Y-94132400D03*
%TD*%
D11*
%TO.C,R2*%
X145465800Y-90335600D03*
X145465800Y-91985600D03*
%TD*%
D19*
%TO.C,U4*%
X168910000Y-86360000D03*
D20*
X171450000Y-86360000D03*
X173990000Y-86360000D03*
X176530000Y-86360000D03*
X179070000Y-86360000D03*
X181610000Y-86360000D03*
X184150000Y-86360000D03*
X186690000Y-86360000D03*
X189230000Y-86360000D03*
X191770000Y-86360000D03*
X194310000Y-86360000D03*
X196850000Y-86360000D03*
X199390000Y-86360000D03*
X201930000Y-86360000D03*
X204470000Y-86360000D03*
X207010000Y-86360000D03*
%TD*%
D21*
%TO.C,R6*%
X199821800Y-104050600D03*
X199821800Y-102400600D03*
%TD*%
%TO.C,R5*%
X195859400Y-104177600D03*
X195859400Y-102527600D03*
%TD*%
D19*
%TO.C,RFID1*%
X143510000Y-86360000D03*
D20*
X146050000Y-86360000D03*
X148590000Y-86360000D03*
X151130000Y-86360000D03*
X153670000Y-86360000D03*
X156210000Y-86360000D03*
X158750000Y-86360000D03*
X161290000Y-86360000D03*
%TD*%
D22*
%TO.C,L1*%
X171790000Y-109220000D03*
X163490000Y-109220000D03*
%TD*%
D23*
%TO.C,C6*%
X169230000Y-91440000D03*
X171130000Y-91440000D03*
%TD*%
D24*
%TO.C,H2*%
X206476600Y-78689200D03*
%TD*%
%TO.C,H4*%
X206146400Y-120421400D03*
%TD*%
%TO.C,H1*%
X126314200Y-78841600D03*
%TD*%
D20*
%TO.C,SW1*%
X129665800Y-93359800D03*
X123165800Y-93359800D03*
X129665800Y-88859800D03*
X123165800Y-88859800D03*
%TD*%
D25*
%TO.C,C3*%
X195580000Y-114460000D03*
X195580000Y-109060000D03*
%TD*%
%TO.C,C7*%
X154940000Y-111920000D03*
X154940000Y-106520000D03*
%TD*%
D16*
%TO.C,C4*%
X190576200Y-102605800D03*
X190576200Y-104505800D03*
%TD*%
D17*
%TO.C,RV1*%
X179095400Y-81254600D03*
D26*
X174015400Y-81254600D03*
X168935400Y-81254600D03*
%TD*%
D21*
%TO.C,R4*%
X193344800Y-92163400D03*
X193344800Y-90513400D03*
%TD*%
D27*
%TO.C,D1*%
X185420000Y-96520000D03*
D28*
X170180000Y-96520000D03*
%TD*%
D24*
%TO.C,H3*%
X125831600Y-120370600D03*
%TD*%
D29*
%TO.C,C1*%
X133908800Y-91729600D03*
X133908800Y-89829600D03*
%TD*%
D30*
%TO.C,J1*%
X203931500Y-110382800D03*
X203931500Y-104602800D03*
D31*
X202856500Y-110692800D03*
X202856500Y-109892800D03*
D32*
X202856500Y-108742800D03*
X202856500Y-107742800D03*
X202856500Y-107242800D03*
X202856500Y-106242800D03*
D31*
X202856500Y-104292800D03*
X202856500Y-105092800D03*
D32*
X202856500Y-105742800D03*
X202856500Y-106742800D03*
X202856500Y-108242800D03*
X202856500Y-109242800D03*
D33*
X203431500Y-112602800D03*
X203431500Y-102382800D03*
X207361500Y-112602800D03*
X207361500Y-102382800D03*
%TD*%
D34*
%TO.C,C2*%
X160131800Y-102387400D03*
X158231800Y-102387400D03*
%TD*%
D35*
%TO.C,R1*%
X139065000Y-91387300D03*
X139065000Y-89562300D03*
%TD*%
D34*
%TO.C,C8*%
X165100000Y-91440000D03*
X163200000Y-91440000D03*
%TD*%
D36*
%TO.C,U1*%
X203810000Y-98820000D03*
X203810000Y-96520000D03*
D37*
X197510000Y-96520000D03*
D36*
X203810000Y-94220000D03*
%TD*%
D38*
%TO.C,U3*%
X186280000Y-102610000D03*
X184580000Y-102610000D03*
D39*
X182880000Y-111760000D03*
D38*
X182880000Y-102610000D03*
X181180000Y-102610000D03*
X179480000Y-102610000D03*
%TD*%
M02*
