M48
; DRILL file {KiCad (6.0.8)} date Thu Dec  1 23:19:20 2022
; FORMAT={-:-/ absolute / metric / decimal}
; #@! TF.CreationDate,2022-12-01T23:19:20-05:00
; #@! TF.GenerationSoftware,Kicad,Pcbnew,(6.0.8)
; #@! TF.FileFunction,Plated,1,2,PTH
FMAT,2
METRIC
; #@! TA.AperFunction,Plated,PTH,ComponentDrill
T1C0.200
; #@! TA.AperFunction,Plated,PTH,ViaDrill
T2C0.400
; #@! TA.AperFunction,Plated,PTH,ComponentDrill
T3C1.100
; #@! TA.AperFunction,Plated,PTH,ComponentDrill
T4C1.200
; #@! TA.AperFunction,Plated,PTH,ComponentDrill
T5C1.300
; #@! TA.AperFunction,Plated,PTH,ComponentDrill
T6C1.600
%
G90
G05
T1
X135.025Y-106.762
X135.025Y-108.597
X135.942Y-105.845
X135.942Y-107.68
X135.942Y-109.515
X136.86Y-106.762
X136.86Y-108.597
X137.778Y-105.845
X137.778Y-107.68
X137.778Y-109.515
X138.695Y-106.762
X138.695Y-108.597
T2
X128.981Y-112.116
X131.9Y-112.626
X132.893Y-109.855
X136.119Y-117.424
X137.566Y-117.221
X139.065Y-93.04
X145.263Y-96.164
X148.615Y-115.189
X148.844Y-100.965
X149.581Y-111.1
X149.784Y-99.517
X152.527Y-83.896
X153.51Y-96.825
X154.381Y-97.688
X155.626Y-97.46
X155.931Y-100.102
X165.481Y-93.396
X171.79Y-106.01
X177.368Y-102.565
X179.781Y-92.177
X189.052Y-94.463
X190.576Y-100.787
X198.171Y-107.315
X200.838Y-105.512
X208.255Y-97.206
T3
X123.166Y-88.86
X123.166Y-93.36
X129.666Y-88.86
X129.666Y-93.36
T4
X155.423Y-94.132
X157.963Y-94.132
X168.935Y-81.255
X174.015Y-81.255
X179.095Y-81.255
T5
X143.51Y-86.36
X146.05Y-86.36
X148.59Y-86.36
X151.13Y-86.36
X153.67Y-86.36
X156.21Y-86.36
X158.75Y-86.36
X161.29Y-86.36
X168.91Y-86.36
X171.45Y-86.36
X173.99Y-86.36
X176.53Y-86.36
X179.07Y-86.36
X181.61Y-86.36
X184.15Y-86.36
X186.69Y-86.36
X189.23Y-86.36
X191.77Y-86.36
X194.31Y-86.36
X196.85Y-86.36
X199.39Y-86.36
X201.93Y-86.36
X204.47Y-86.36
X207.01Y-86.36
T6
X170.18Y-96.52
X185.42Y-96.52
T0
M30
