%TF.GenerationSoftware,KiCad,Pcbnew,(6.0.8)*%
%TF.CreationDate,2022-12-01T23:18:13-05:00*%
%TF.ProjectId,HardwareDesign,48617264-7761-4726-9544-657369676e2e,1.0.*%
%TF.SameCoordinates,Original*%
%TF.FileFunction,Paste,Top*%
%TF.FilePolarity,Positive*%
%FSLAX46Y46*%
G04 Gerber Fmt 4.6, Leading zero omitted, Abs format (unit mm)*
G04 Created by KiCad (PCBNEW (6.0.8)) date 2022-12-01 23:18:13*
%MOMM*%
%LPD*%
G01*
G04 APERTURE LIST*
G04 Aperture macros list*
%AMRoundRect*
0 Rectangle with rounded corners*
0 $1 Rounding radius*
0 $2 $3 $4 $5 $6 $7 $8 $9 X,Y pos of 4 corners*
0 Add a 4 corners polygon primitive as box body*
4,1,4,$2,$3,$4,$5,$6,$7,$8,$9,$2,$3,0*
0 Add four circle primitives for the rounded corners*
1,1,$1+$1,$2,$3*
1,1,$1+$1,$4,$5*
1,1,$1+$1,$6,$7*
1,1,$1+$1,$8,$9*
0 Add four rect primitives between the rounded corners*
20,1,$1+$1,$2,$3,$4,$5,0*
20,1,$1+$1,$4,$5,$6,$7,0*
20,1,$1+$1,$6,$7,$8,$9,0*
20,1,$1+$1,$8,$9,$2,$3,0*%
G04 Aperture macros list end*
%TA.AperFunction,Profile*%
%ADD10C,0.100000*%
%TD*%
%ADD11RoundRect,0.200000X-0.275000X0.200000X-0.275000X-0.200000X0.275000X-0.200000X0.275000X0.200000X0*%
%ADD12R,0.900000X2.000000*%
%ADD13R,2.000000X0.900000*%
%ADD14R,1.330000X1.330000*%
%ADD15RoundRect,0.250000X-0.475000X0.250000X-0.475000X-0.250000X0.475000X-0.250000X0.475000X0.250000X0*%
%ADD16RoundRect,0.200000X0.275000X-0.200000X0.275000X0.200000X-0.275000X0.200000X-0.275000X-0.200000X0*%
%ADD17R,2.700000X3.600000*%
%ADD18RoundRect,0.250000X-0.250000X-0.475000X0.250000X-0.475000X0.250000X0.475000X-0.250000X0.475000X0*%
%ADD19RoundRect,0.250000X0.550000X-1.500000X0.550000X1.500000X-0.550000X1.500000X-0.550000X-1.500000X0*%
%ADD20RoundRect,0.250000X0.475000X-0.250000X0.475000X0.250000X-0.475000X0.250000X-0.475000X-0.250000X0*%
%ADD21R,1.150000X0.600000*%
%ADD22R,1.150000X0.300000*%
%ADD23R,2.000000X2.180000*%
%ADD24RoundRect,0.250000X0.250000X0.475000X-0.250000X0.475000X-0.250000X-0.475000X0.250000X-0.475000X0*%
%ADD25RoundRect,0.250000X0.450000X-0.262500X0.450000X0.262500X-0.450000X0.262500X-0.450000X-0.262500X0*%
%ADD26R,2.000000X1.500000*%
%ADD27R,2.000000X3.800000*%
%ADD28R,5.250000X4.550000*%
%ADD29R,1.100000X4.600000*%
G04 APERTURE END LIST*
D10*
X119380000Y-74828400D02*
X119405400Y-124434600D01*
X119405400Y-124434600D02*
X210845400Y-124460000D01*
X210820000Y-74853800D02*
X119380000Y-74828400D01*
X210845400Y-124460000D02*
X210820000Y-74853800D01*
D11*
%TO.C,R3*%
X149758400Y-90411800D03*
X149758400Y-92061800D03*
%TD*%
D12*
%TO.C,U2*%
X129360000Y-115180000D03*
X130630000Y-115180000D03*
X131900000Y-115180000D03*
X133170000Y-115180000D03*
X134440000Y-115180000D03*
X135710000Y-115180000D03*
X136980000Y-115180000D03*
X138250000Y-115180000D03*
X139520000Y-115180000D03*
X140790000Y-115180000D03*
X142060000Y-115180000D03*
X143330000Y-115180000D03*
X144600000Y-115180000D03*
X145870000Y-115180000D03*
D13*
X146870000Y-112395000D03*
X146870000Y-111125000D03*
X146870000Y-109855000D03*
X146870000Y-108585000D03*
X146870000Y-107315000D03*
X146870000Y-106045000D03*
X146870000Y-104775000D03*
X146870000Y-103505000D03*
X146870000Y-102235000D03*
X146870000Y-100965000D03*
D12*
X145870000Y-98180000D03*
X144600000Y-98180000D03*
X143330000Y-98180000D03*
X142060000Y-98180000D03*
X140790000Y-98180000D03*
X139520000Y-98180000D03*
X138250000Y-98180000D03*
X136980000Y-98180000D03*
X135710000Y-98180000D03*
X134440000Y-98180000D03*
X133170000Y-98180000D03*
X131900000Y-98180000D03*
X130630000Y-98180000D03*
X129360000Y-98180000D03*
D14*
X135025000Y-109515000D03*
X135025000Y-107680000D03*
X135025000Y-105845000D03*
X136860000Y-109515000D03*
X136860000Y-107680000D03*
X136860000Y-105845000D03*
X138695000Y-109515000D03*
X138695000Y-107680000D03*
X138695000Y-105845000D03*
%TD*%
D15*
%TO.C,C5*%
X192963800Y-96484400D03*
X192963800Y-98384400D03*
%TD*%
D11*
%TO.C,R2*%
X145465800Y-90335600D03*
X145465800Y-91985600D03*
%TD*%
D16*
%TO.C,R6*%
X199821800Y-104050600D03*
X199821800Y-102400600D03*
%TD*%
%TO.C,R5*%
X195859400Y-104177600D03*
X195859400Y-102527600D03*
%TD*%
D17*
%TO.C,L1*%
X171790000Y-109220000D03*
X163490000Y-109220000D03*
%TD*%
D18*
%TO.C,C6*%
X169230000Y-91440000D03*
X171130000Y-91440000D03*
%TD*%
D19*
%TO.C,C3*%
X195580000Y-114460000D03*
X195580000Y-109060000D03*
%TD*%
%TO.C,C7*%
X154940000Y-111920000D03*
X154940000Y-106520000D03*
%TD*%
D15*
%TO.C,C4*%
X190576200Y-102605800D03*
X190576200Y-104505800D03*
%TD*%
D16*
%TO.C,R4*%
X193344800Y-92163400D03*
X193344800Y-90513400D03*
%TD*%
D20*
%TO.C,C1*%
X133908800Y-91729600D03*
X133908800Y-89829600D03*
%TD*%
D21*
%TO.C,J1*%
X202856500Y-110692800D03*
X202856500Y-109892800D03*
D22*
X202856500Y-108742800D03*
X202856500Y-107742800D03*
X202856500Y-107242800D03*
X202856500Y-106242800D03*
D21*
X202856500Y-104292800D03*
X202856500Y-105092800D03*
D22*
X202856500Y-105742800D03*
X202856500Y-106742800D03*
X202856500Y-108242800D03*
X202856500Y-109242800D03*
D23*
X203431500Y-112602800D03*
X203431500Y-102382800D03*
X207361500Y-112602800D03*
X207361500Y-102382800D03*
%TD*%
D24*
%TO.C,C2*%
X160131800Y-102387400D03*
X158231800Y-102387400D03*
%TD*%
D25*
%TO.C,R1*%
X139065000Y-91387300D03*
X139065000Y-89562300D03*
%TD*%
D24*
%TO.C,C8*%
X165100000Y-91440000D03*
X163200000Y-91440000D03*
%TD*%
D26*
%TO.C,U1*%
X203810000Y-98820000D03*
X203810000Y-96520000D03*
D27*
X197510000Y-96520000D03*
D26*
X203810000Y-94220000D03*
%TD*%
D28*
%TO.C,U3*%
X180105000Y-109335000D03*
X185655000Y-114185000D03*
X180105000Y-114185000D03*
X185655000Y-109335000D03*
D29*
X186280000Y-102610000D03*
X184580000Y-102610000D03*
X182880000Y-102610000D03*
X181180000Y-102610000D03*
X179480000Y-102610000D03*
%TD*%
M02*
