%TF.GenerationSoftware,KiCad,Pcbnew,(6.0.8)*%
%TF.CreationDate,2022-12-01T23:18:13-05:00*%
%TF.ProjectId,HardwareDesign,48617264-7761-4726-9544-657369676e2e,1.0.*%
%TF.SameCoordinates,Original*%
%TF.FileFunction,Copper,L2,Bot*%
%TF.FilePolarity,Positive*%
%FSLAX46Y46*%
G04 Gerber Fmt 4.6, Leading zero omitted, Abs format (unit mm)*
G04 Created by KiCad (PCBNEW (6.0.8)) date 2022-12-01 23:18:13*
%MOMM*%
%LPD*%
G01*
G04 APERTURE LIST*
%TA.AperFunction,Profile*%
%ADD10C,0.100000*%
%TD*%
%TA.AperFunction,ComponentPad*%
%ADD11C,0.300000*%
%TD*%
%TA.AperFunction,ComponentPad*%
%ADD12R,1.524000X1.524000*%
%TD*%
%TA.AperFunction,ComponentPad*%
%ADD13C,1.824000*%
%TD*%
%TA.AperFunction,ComponentPad*%
%ADD14R,2.000000X2.000000*%
%TD*%
%TA.AperFunction,ComponentPad*%
%ADD15C,2.000000*%
%TD*%
%TA.AperFunction,ComponentPad*%
%ADD16C,1.800000*%
%TD*%
%TA.AperFunction,ComponentPad*%
%ADD17R,3.200000X3.200000*%
%TD*%
%TA.AperFunction,ComponentPad*%
%ADD18O,3.200000X3.200000*%
%TD*%
%TA.AperFunction,ViaPad*%
%ADD19C,0.800000*%
%TD*%
%TA.AperFunction,Conductor*%
%ADD20C,0.500000*%
%TD*%
%TA.AperFunction,Conductor*%
%ADD21C,1.000000*%
%TD*%
G04 APERTURE END LIST*
D10*
X119380000Y-74828400D02*
X119405400Y-124434600D01*
X119405400Y-124434600D02*
X210845400Y-124460000D01*
X210820000Y-74853800D02*
X119380000Y-74828400D01*
X210845400Y-124460000D02*
X210820000Y-74853800D01*
D11*
%TO.P,U2,39_10*%
%TO.N,N/C*%
X135025000Y-108597500D03*
%TO.P,U2,39_11*%
X135025000Y-106762500D03*
%TO.P,U2,39_12*%
X135942500Y-109515000D03*
%TO.P,U2,39_13*%
X135942500Y-107680000D03*
%TO.P,U2,39_14*%
X135942500Y-105845000D03*
%TO.P,U2,39_15*%
X136860000Y-108597500D03*
%TO.P,U2,39_16*%
X136860000Y-106762500D03*
%TO.P,U2,39_17*%
X137777500Y-109515000D03*
%TO.P,U2,39_18*%
X137777500Y-107680000D03*
%TO.P,U2,39_19*%
X137777500Y-105845000D03*
%TO.P,U2,39_20*%
X138695000Y-108597500D03*
%TO.P,U2,39_21*%
X138695000Y-106762500D03*
%TD*%
D12*
%TO.P,H1x2_1,1,1*%
%TO.N,Net-(H1x2_1-Pad1)*%
X155422600Y-94132400D03*
D13*
%TO.P,H1x2_1,2,2*%
%TO.N,Net-(H1x2_1-Pad2)*%
X157962600Y-94132400D03*
%TD*%
D14*
%TO.P,U4,1,VSS*%
%TO.N,GND*%
X168910000Y-86360000D03*
D15*
%TO.P,U4,2,VDD*%
%TO.N,5V*%
X171450000Y-86360000D03*
%TO.P,U4,3,VO*%
%TO.N,Net-(RV1-Pad2)*%
X173990000Y-86360000D03*
%TO.P,U4,4,RS*%
%TO.N,RS*%
X176530000Y-86360000D03*
%TO.P,U4,5,R/W*%
%TO.N,GND*%
X179070000Y-86360000D03*
%TO.P,U4,6,E*%
%TO.N,E*%
X181610000Y-86360000D03*
%TO.P,U4,7,DB0*%
%TO.N,unconnected-(U4-Pad7)*%
X184150000Y-86360000D03*
%TO.P,U4,8,DB1*%
%TO.N,unconnected-(U4-Pad8)*%
X186690000Y-86360000D03*
%TO.P,U4,9,DB2*%
%TO.N,unconnected-(U4-Pad9)*%
X189230000Y-86360000D03*
%TO.P,U4,10,DB3*%
%TO.N,unconnected-(U4-Pad10)*%
X191770000Y-86360000D03*
%TO.P,U4,11,DB4*%
%TO.N,DB4*%
X194310000Y-86360000D03*
%TO.P,U4,12,DB5*%
%TO.N,DB5*%
X196850000Y-86360000D03*
%TO.P,U4,13,DB6*%
%TO.N,DB6*%
X199390000Y-86360000D03*
%TO.P,U4,14,DB7*%
%TO.N,DB7*%
X201930000Y-86360000D03*
%TO.P,U4,15,A*%
%TO.N,Net-(R4-Pad2)*%
X204470000Y-86360000D03*
%TO.P,U4,16,K*%
%TO.N,GND*%
X207010000Y-86360000D03*
%TD*%
D14*
%TO.P,RFID1,1,SDA*%
%TO.N,SDA*%
X143510000Y-86360000D03*
D15*
%TO.P,RFID1,2,SCK*%
%TO.N,SCK*%
X146050000Y-86360000D03*
%TO.P,RFID1,3,MOSI*%
%TO.N,MOSI*%
X148590000Y-86360000D03*
%TO.P,RFID1,4,MISO*%
%TO.N,MISO*%
X151130000Y-86360000D03*
%TO.P,RFID1,5,IRQ*%
%TO.N,unconnected-(RFID1-Pad5)*%
X153670000Y-86360000D03*
%TO.P,RFID1,6,GND*%
%TO.N,GND*%
X156210000Y-86360000D03*
%TO.P,RFID1,7,RST*%
%TO.N,RST*%
X158750000Y-86360000D03*
%TO.P,RFID1,8,3.3V*%
%TO.N,3.3V*%
X161290000Y-86360000D03*
%TD*%
%TO.P,SW1,1,1*%
%TO.N,Net-(C1-Pad1)*%
X129665800Y-93359800D03*
X123165800Y-93359800D03*
%TO.P,SW1,2,2*%
%TO.N,GND*%
X129665800Y-88859800D03*
X123165800Y-88859800D03*
%TD*%
D12*
%TO.P,RV1,1,1*%
%TO.N,5V*%
X179095400Y-81254600D03*
D16*
%TO.P,RV1,2,2*%
%TO.N,Net-(RV1-Pad2)*%
X174015400Y-81254600D03*
%TO.P,RV1,3,3*%
%TO.N,GND*%
X168935400Y-81254600D03*
%TD*%
D17*
%TO.P,D1,1,K*%
%TO.N,Net-(D1-Pad1)*%
X185420000Y-96520000D03*
D18*
%TO.P,D1,2,A*%
%TO.N,GND*%
X170180000Y-96520000D03*
%TD*%
D19*
%TO.N,Net-(C1-Pad1)*%
X131900000Y-112625800D03*
%TO.N,GND*%
X128981200Y-112115600D03*
X177368200Y-102565200D03*
X208254600Y-97205800D03*
%TO.N,VCC*%
X200837800Y-105511600D03*
X190576200Y-100787200D03*
X198170800Y-107315000D03*
%TO.N,3.3V*%
X139065000Y-93040200D03*
X165481000Y-93395800D03*
X152527000Y-83896200D03*
X132892800Y-109855000D03*
X189052200Y-94462600D03*
%TO.N,Net-(D1-Pad1)*%
X171790000Y-106009800D03*
%TO.N,SDA*%
X148844000Y-100965000D03*
%TO.N,SCK*%
X149783800Y-99517200D03*
%TO.N,MOSI*%
X145262600Y-96164400D03*
%TO.N,MISO*%
X148615400Y-115189000D03*
%TO.N,RST*%
X149580600Y-111099600D03*
%TO.N,DB7*%
X136118600Y-117424200D03*
%TO.N,DB6*%
X137566400Y-117221000D03*
%TO.N,DB4*%
X179781200Y-92176600D03*
X155930600Y-100101500D03*
%TO.N,DB5*%
X155625800Y-97459800D03*
%TO.N,RS*%
X154381200Y-97688400D03*
%TO.N,E*%
X153510275Y-96824800D03*
%TD*%
D20*
%TO.N,Net-(C1-Pad1)*%
X129665800Y-95172600D02*
X129665800Y-93359800D01*
X131900000Y-112625800D02*
X130784600Y-111510400D01*
X130784600Y-96291400D02*
X129665800Y-95172600D01*
X130784600Y-111510400D02*
X130784600Y-96291400D01*
D21*
%TO.N,GND*%
X207010000Y-91440000D02*
X207010000Y-86360000D01*
X208254600Y-92684600D02*
X207010000Y-91440000D01*
X127395800Y-88859800D02*
X129665800Y-88859800D01*
X171323000Y-96520000D02*
X177368200Y-102565200D01*
X128981200Y-97866200D02*
X126034800Y-94919800D01*
X208254600Y-97205800D02*
X208254600Y-92684600D01*
X126034800Y-94919800D02*
X126034800Y-90220800D01*
X170180000Y-96520000D02*
X171323000Y-96520000D01*
X126034800Y-90220800D02*
X127395800Y-88859800D01*
X128981200Y-112115600D02*
X128981200Y-97866200D01*
%TO.N,VCC*%
X200837800Y-103301800D02*
X200837800Y-105511600D01*
X198755000Y-105511600D02*
X200837800Y-105511600D01*
X198170800Y-107315000D02*
X198170800Y-106095800D01*
X190576200Y-100787200D02*
X198323200Y-100787200D01*
X198170800Y-106095800D02*
X198755000Y-105511600D01*
X198323200Y-100787200D02*
X200837800Y-103301800D01*
%TO.N,3.3V*%
X152527000Y-83896200D02*
X160578800Y-83896200D01*
X137388600Y-100253800D02*
X132892800Y-104749600D01*
X139065000Y-93040200D02*
X139065000Y-98577400D01*
X160578800Y-83896200D02*
X161290000Y-84607400D01*
X187985400Y-93395800D02*
X189052200Y-94462600D01*
X165481000Y-93395800D02*
X187985400Y-93395800D01*
X139065000Y-98577400D02*
X137388600Y-100253800D01*
X161290000Y-84607400D02*
X161290000Y-86360000D01*
X132892800Y-104749600D02*
X132892800Y-109855000D01*
D20*
%TO.N,Net-(D1-Pad1)*%
X185420000Y-103911400D02*
X185420000Y-96520000D01*
X171799800Y-106019600D02*
X183311800Y-106019600D01*
X183311800Y-106019600D02*
X185420000Y-103911400D01*
X171790000Y-106009800D02*
X171799800Y-106019600D01*
%TO.N,SDA*%
X143510000Y-100330000D02*
X143510000Y-86360000D01*
X148844000Y-100965000D02*
X144145000Y-100965000D01*
X144145000Y-100965000D02*
X143510000Y-100330000D01*
%TO.N,SCK*%
X144210000Y-98312200D02*
X144210000Y-90282800D01*
X144210000Y-90282800D02*
X146050000Y-88442800D01*
X149783800Y-99517200D02*
X145415000Y-99517200D01*
X146050000Y-88442800D02*
X146050000Y-86360000D01*
X145415000Y-99517200D02*
X144210000Y-98312200D01*
%TO.N,MOSI*%
X144910000Y-95811800D02*
X144910000Y-90572750D01*
X144910000Y-90572750D02*
X146582750Y-88900000D01*
X145262600Y-96164400D02*
X144910000Y-95811800D01*
X148259800Y-88900000D02*
X148590000Y-88569800D01*
X146582750Y-88900000D02*
X148259800Y-88900000D01*
X148590000Y-88569800D02*
X148590000Y-86360000D01*
%TO.N,MISO*%
X151130000Y-99999800D02*
X151130000Y-86360000D01*
X148615400Y-115189000D02*
X148615400Y-102514400D01*
X148615400Y-102514400D02*
X151130000Y-99999800D01*
%TO.N,RST*%
X151830000Y-90297000D02*
X152947600Y-89179400D01*
X149580600Y-111099600D02*
X149580600Y-102539150D01*
X158064200Y-89179400D02*
X158750000Y-88493600D01*
X149580600Y-102539150D02*
X151830000Y-100289749D01*
X151830000Y-100289749D02*
X151830000Y-90297000D01*
X152947600Y-89179400D02*
X158064200Y-89179400D01*
X158750000Y-88493600D02*
X158750000Y-86360000D01*
%TO.N,Net-(RV1-Pad2)*%
X173990000Y-86360000D02*
X173990000Y-81305400D01*
X173990000Y-81305400D02*
X173939200Y-81254600D01*
X173736000Y-81280000D02*
X173786800Y-81280000D01*
%TO.N,DB7*%
X150179000Y-112710350D02*
X151130600Y-111758750D01*
X200090000Y-88173950D02*
X200090000Y-88138000D01*
X136118600Y-117424200D02*
X136765400Y-118071000D01*
X181908150Y-90887200D02*
X183206550Y-89588800D01*
X157117832Y-99252000D02*
X158484800Y-97885032D01*
X197825100Y-88812600D02*
X199451350Y-88812600D01*
X201930000Y-87528400D02*
X201930000Y-86360000D01*
X148812032Y-117184400D02*
X150179000Y-115817431D01*
X201320400Y-88138000D02*
X201930000Y-87528400D01*
X197048900Y-89588800D02*
X197825100Y-88812600D01*
X160485150Y-94525958D02*
X160485150Y-91799900D01*
X200090000Y-88138000D02*
X201320400Y-88138000D01*
X153230000Y-100869647D02*
X153230000Y-99426150D01*
X139659749Y-117184400D02*
X148812032Y-117184400D01*
X158484800Y-97885032D02*
X158484800Y-96526309D01*
X153230000Y-99426150D02*
X153404150Y-99252000D01*
X153404150Y-99252000D02*
X157117832Y-99252000D01*
X158484800Y-96526309D02*
X160485150Y-94525958D01*
X199451350Y-88812600D02*
X200090000Y-88173950D01*
X151130600Y-109725600D02*
X150980600Y-109575600D01*
X150980600Y-103119050D02*
X153230000Y-100869647D01*
X160485150Y-91799900D02*
X161397850Y-90887200D01*
X138773149Y-118071000D02*
X139659749Y-117184400D01*
X136765400Y-118071000D02*
X138773149Y-118071000D01*
X151130600Y-111758750D02*
X151130600Y-109725600D01*
X150980600Y-109575600D02*
X150980600Y-103119050D01*
X161397850Y-90887200D02*
X181908150Y-90887200D01*
X150179000Y-115817431D02*
X150179000Y-112710350D01*
X183206550Y-89588800D02*
X197048900Y-89588800D01*
%TO.N,DB6*%
X138633200Y-117221000D02*
X139369800Y-116484400D01*
X150280600Y-110312200D02*
X150280600Y-102829100D01*
X152530000Y-100579698D02*
X152530000Y-99136200D01*
X196758950Y-88888800D02*
X197535150Y-88112600D01*
X156827882Y-98552000D02*
X157784800Y-97595082D01*
X149479000Y-112420400D02*
X150430600Y-111468800D01*
X139369800Y-116484400D02*
X148522082Y-116484400D01*
X161107900Y-90187200D02*
X181618200Y-90187200D01*
X150430600Y-110462200D02*
X150280600Y-110312200D01*
X157784800Y-96236359D02*
X159785150Y-94236009D01*
X159785150Y-94236009D02*
X159785150Y-91509950D01*
X199161400Y-88112600D02*
X199390000Y-87884000D01*
X152530000Y-99136200D02*
X153114200Y-98552000D01*
X199390000Y-87884000D02*
X199390000Y-86360000D01*
X150280600Y-102829100D02*
X152530000Y-100579698D01*
X157784800Y-97595082D02*
X157784800Y-96236359D01*
X159785150Y-91509950D02*
X161107900Y-90187200D01*
X137566400Y-117221000D02*
X138633200Y-117221000D01*
X182916600Y-88888800D02*
X196758950Y-88888800D01*
X149479000Y-115527482D02*
X149479000Y-112420400D01*
X197535150Y-88112600D02*
X199161400Y-88112600D01*
X150430600Y-111468800D02*
X150430600Y-110462200D01*
X153114200Y-98552000D02*
X156827882Y-98552000D01*
X148522082Y-116484400D02*
X149479000Y-115527482D01*
X181618200Y-90187200D02*
X182916600Y-88888800D01*
%TO.N,DB4*%
X179191800Y-91587200D02*
X179781200Y-92176600D01*
X161687800Y-91587200D02*
X179191800Y-91587200D01*
X159229830Y-96771229D02*
X161185150Y-94815907D01*
X155930600Y-100101500D02*
X157258282Y-100101500D01*
X161185150Y-94815907D02*
X161185150Y-92089850D01*
X157258282Y-100101500D02*
X159229830Y-98129952D01*
X159229830Y-98129952D02*
X159229830Y-96771229D01*
X161185150Y-92089850D02*
X161687800Y-91587200D01*
%TO.N,DB5*%
X196875400Y-87782400D02*
X196875400Y-86385400D01*
X196469000Y-88188800D02*
X196875400Y-87782400D01*
X154673300Y-91284675D02*
X159020475Y-91284675D01*
X160817950Y-89487200D02*
X181251400Y-89487200D01*
X155625800Y-97459800D02*
X154060775Y-95894775D01*
X181251400Y-89487200D02*
X182549800Y-88188800D01*
X154060775Y-91897200D02*
X154673300Y-91284675D01*
X154060775Y-95894775D02*
X154060775Y-91897200D01*
X182549800Y-88188800D02*
X196469000Y-88188800D01*
X196875400Y-86385400D02*
X196850000Y-86360000D01*
X159020475Y-91284675D02*
X160817950Y-89487200D01*
%TO.N,RS*%
X154381200Y-97688400D02*
X152908000Y-97688400D01*
X160146349Y-88087200D02*
X176149000Y-88087200D01*
X152908000Y-97688400D02*
X152660775Y-97441175D01*
X153232275Y-89884675D02*
X158348875Y-89884675D01*
X158348875Y-89884675D02*
X160146349Y-88087200D01*
X176149000Y-88087200D02*
X176530000Y-87706200D01*
X176530000Y-87706200D02*
X176530000Y-86360000D01*
X152660775Y-90456175D02*
X153232275Y-89884675D01*
X152660775Y-97441175D02*
X152660775Y-90456175D01*
%TO.N,E*%
X153687125Y-90584675D02*
X158730525Y-90584675D01*
X153510275Y-96824800D02*
X153360775Y-96675300D01*
X160528000Y-88787200D02*
X180960800Y-88787200D01*
X181610000Y-88138000D02*
X181610000Y-86360000D01*
X180960800Y-88787200D02*
X181610000Y-88138000D01*
X153360775Y-90911025D02*
X153687125Y-90584675D01*
X153360775Y-96675300D02*
X153360775Y-90911025D01*
X158730525Y-90584675D02*
X160528000Y-88787200D01*
%TD*%
%TA.AperFunction,Conductor*%
%TO.N,GND*%
G36*
X210185859Y-75362124D02*
G01*
X210253974Y-75382145D01*
X210300452Y-75435814D01*
X210311824Y-75488059D01*
X210336575Y-123825259D01*
X210316608Y-123893390D01*
X210262976Y-123939911D01*
X210210540Y-123951324D01*
X120039541Y-123926276D01*
X119971426Y-123906255D01*
X119924948Y-123852586D01*
X119913576Y-123800341D01*
X119911848Y-120425168D01*
X124268982Y-120425168D01*
X124297808Y-120674299D01*
X124299187Y-120679173D01*
X124299188Y-120679177D01*
X124352501Y-120867581D01*
X124366094Y-120915617D01*
X124368228Y-120920192D01*
X124368230Y-120920199D01*
X124452712Y-121101370D01*
X124472084Y-121142913D01*
X124474926Y-121147094D01*
X124474926Y-121147095D01*
X124610205Y-121346152D01*
X124610208Y-121346156D01*
X124613051Y-121350339D01*
X124616528Y-121354016D01*
X124616529Y-121354017D01*
X124716838Y-121460091D01*
X124785367Y-121532559D01*
X124789393Y-121535637D01*
X124789394Y-121535638D01*
X124980581Y-121681812D01*
X124980585Y-121681815D01*
X124984601Y-121684885D01*
X125205626Y-121803397D01*
X125210407Y-121805043D01*
X125210411Y-121805045D01*
X125357945Y-121855845D01*
X125442756Y-121885048D01*
X125546289Y-121902931D01*
X125685980Y-121927060D01*
X125685986Y-121927061D01*
X125689890Y-121927735D01*
X125693851Y-121927915D01*
X125693852Y-121927915D01*
X125718531Y-121929036D01*
X125718550Y-121929036D01*
X125719950Y-121929100D01*
X125894615Y-121929100D01*
X125897123Y-121928898D01*
X125897128Y-121928898D01*
X126076544Y-121914463D01*
X126076549Y-121914462D01*
X126081585Y-121914057D01*
X126086493Y-121912852D01*
X126086496Y-121912851D01*
X126320225Y-121855441D01*
X126325139Y-121854234D01*
X126329791Y-121852259D01*
X126329795Y-121852258D01*
X126551341Y-121758217D01*
X126551342Y-121758217D01*
X126555996Y-121756241D01*
X126768215Y-121622600D01*
X126956338Y-121456747D01*
X127115524Y-121262951D01*
X127241678Y-121046196D01*
X127331555Y-120812061D01*
X127371194Y-120622321D01*
X127381806Y-120571521D01*
X127382841Y-120566567D01*
X127386955Y-120475968D01*
X204583782Y-120475968D01*
X204612608Y-120725099D01*
X204613987Y-120729973D01*
X204613988Y-120729977D01*
X204679516Y-120961548D01*
X204680894Y-120966417D01*
X204683028Y-120970992D01*
X204683030Y-120970999D01*
X204784747Y-121189131D01*
X204786884Y-121193713D01*
X204789726Y-121197894D01*
X204789726Y-121197895D01*
X204925005Y-121396952D01*
X204925008Y-121396956D01*
X204927851Y-121401139D01*
X204931328Y-121404816D01*
X204931329Y-121404817D01*
X205031638Y-121510891D01*
X205100167Y-121583359D01*
X205104193Y-121586437D01*
X205104194Y-121586438D01*
X205295381Y-121732612D01*
X205295385Y-121732615D01*
X205299401Y-121735685D01*
X205520426Y-121854197D01*
X205525207Y-121855843D01*
X205525211Y-121855845D01*
X205750938Y-121933569D01*
X205757556Y-121935848D01*
X205861089Y-121953731D01*
X206000780Y-121977860D01*
X206000786Y-121977861D01*
X206004690Y-121978535D01*
X206008651Y-121978715D01*
X206008652Y-121978715D01*
X206033331Y-121979836D01*
X206033350Y-121979836D01*
X206034750Y-121979900D01*
X206209415Y-121979900D01*
X206211923Y-121979698D01*
X206211928Y-121979698D01*
X206391344Y-121965263D01*
X206391349Y-121965262D01*
X206396385Y-121964857D01*
X206401293Y-121963652D01*
X206401296Y-121963651D01*
X206635025Y-121906241D01*
X206639939Y-121905034D01*
X206644591Y-121903059D01*
X206644595Y-121903058D01*
X206866141Y-121809017D01*
X206866142Y-121809017D01*
X206870796Y-121807041D01*
X207083015Y-121673400D01*
X207271138Y-121507547D01*
X207430324Y-121313751D01*
X207556478Y-121096996D01*
X207574300Y-121050570D01*
X207644543Y-120867581D01*
X207646355Y-120862861D01*
X207697641Y-120617367D01*
X207700178Y-120561512D01*
X207704062Y-120475968D01*
X207709018Y-120366832D01*
X207680192Y-120117701D01*
X207667242Y-120071934D01*
X207613284Y-119881252D01*
X207613283Y-119881250D01*
X207611906Y-119876383D01*
X207609772Y-119871808D01*
X207609770Y-119871801D01*
X207508053Y-119653669D01*
X207508051Y-119653665D01*
X207505916Y-119649087D01*
X207468550Y-119594105D01*
X207367795Y-119445848D01*
X207367792Y-119445844D01*
X207364949Y-119441661D01*
X207264325Y-119335253D01*
X207196113Y-119263121D01*
X207192633Y-119259441D01*
X207131003Y-119212321D01*
X206997419Y-119110188D01*
X206997415Y-119110185D01*
X206993399Y-119107115D01*
X206772374Y-118988603D01*
X206767593Y-118986957D01*
X206767589Y-118986955D01*
X206540033Y-118908601D01*
X206535244Y-118906952D01*
X206419536Y-118886966D01*
X206292020Y-118864940D01*
X206292014Y-118864939D01*
X206288110Y-118864265D01*
X206284149Y-118864085D01*
X206284148Y-118864085D01*
X206259469Y-118862964D01*
X206259450Y-118862964D01*
X206258050Y-118862900D01*
X206083385Y-118862900D01*
X206080877Y-118863102D01*
X206080872Y-118863102D01*
X205901456Y-118877537D01*
X205901451Y-118877538D01*
X205896415Y-118877943D01*
X205891507Y-118879148D01*
X205891504Y-118879149D01*
X205659726Y-118936080D01*
X205652861Y-118937766D01*
X205648209Y-118939741D01*
X205648205Y-118939742D01*
X205527461Y-118990995D01*
X205422004Y-119035759D01*
X205209785Y-119169400D01*
X205021662Y-119335253D01*
X204862476Y-119529049D01*
X204736322Y-119745804D01*
X204646445Y-119979939D01*
X204645412Y-119984885D01*
X204645410Y-119984891D01*
X204605772Y-120174633D01*
X204595159Y-120225433D01*
X204583782Y-120475968D01*
X127386955Y-120475968D01*
X127394218Y-120316032D01*
X127365392Y-120066901D01*
X127340785Y-119979939D01*
X127298484Y-119830452D01*
X127298483Y-119830450D01*
X127297106Y-119825583D01*
X127294972Y-119821008D01*
X127294970Y-119821001D01*
X127193253Y-119602869D01*
X127193251Y-119602865D01*
X127191116Y-119598287D01*
X127141405Y-119525139D01*
X127052995Y-119395048D01*
X127052992Y-119395044D01*
X127050149Y-119390861D01*
X126949525Y-119284453D01*
X126881313Y-119212321D01*
X126877833Y-119208641D01*
X126822982Y-119166704D01*
X126682619Y-119059388D01*
X126682615Y-119059385D01*
X126678599Y-119056315D01*
X126457574Y-118937803D01*
X126452793Y-118936157D01*
X126452789Y-118936155D01*
X126225233Y-118857801D01*
X126220444Y-118856152D01*
X126116911Y-118838269D01*
X125977220Y-118814140D01*
X125977214Y-118814139D01*
X125973310Y-118813465D01*
X125969349Y-118813285D01*
X125969348Y-118813285D01*
X125944669Y-118812164D01*
X125944650Y-118812164D01*
X125943250Y-118812100D01*
X125768585Y-118812100D01*
X125766077Y-118812302D01*
X125766072Y-118812302D01*
X125586656Y-118826737D01*
X125586651Y-118826738D01*
X125581615Y-118827143D01*
X125576707Y-118828348D01*
X125576704Y-118828349D01*
X125435779Y-118862964D01*
X125338061Y-118886966D01*
X125333409Y-118888941D01*
X125333405Y-118888942D01*
X125212661Y-118940195D01*
X125107204Y-118984959D01*
X124894985Y-119118600D01*
X124706862Y-119284453D01*
X124547676Y-119478249D01*
X124421522Y-119695004D01*
X124419709Y-119699727D01*
X124419708Y-119699729D01*
X124402021Y-119745804D01*
X124331645Y-119929139D01*
X124280359Y-120174633D01*
X124280130Y-120179682D01*
X124280129Y-120179688D01*
X124274934Y-120294106D01*
X124268982Y-120425168D01*
X119911848Y-120425168D01*
X119910311Y-117424200D01*
X135205096Y-117424200D01*
X135225058Y-117614128D01*
X135284073Y-117795756D01*
X135379560Y-117961144D01*
X135507347Y-118103066D01*
X135661848Y-118215318D01*
X135667876Y-118218002D01*
X135667878Y-118218003D01*
X135830281Y-118290309D01*
X135836312Y-118292994D01*
X135842767Y-118294366D01*
X135842776Y-118294369D01*
X135899372Y-118306399D01*
X135962269Y-118340550D01*
X136181630Y-118559911D01*
X136194016Y-118574323D01*
X136202549Y-118585918D01*
X136202554Y-118585923D01*
X136206892Y-118591818D01*
X136212470Y-118596557D01*
X136212473Y-118596560D01*
X136247168Y-118626035D01*
X136254684Y-118632965D01*
X136260379Y-118638660D01*
X136263261Y-118640940D01*
X136282651Y-118656281D01*
X136286055Y-118659072D01*
X136336103Y-118701591D01*
X136341685Y-118706333D01*
X136348201Y-118709661D01*
X136353250Y-118713028D01*
X136358379Y-118716195D01*
X136364116Y-118720734D01*
X136430275Y-118751655D01*
X136434169Y-118753558D01*
X136499208Y-118786769D01*
X136506316Y-118788508D01*
X136511959Y-118790607D01*
X136517722Y-118792524D01*
X136524350Y-118795622D01*
X136531512Y-118797112D01*
X136531513Y-118797112D01*
X136595812Y-118810486D01*
X136600096Y-118811456D01*
X136671010Y-118828808D01*
X136676612Y-118829156D01*
X136676615Y-118829156D01*
X136682164Y-118829500D01*
X136682162Y-118829536D01*
X136686155Y-118829775D01*
X136690347Y-118830149D01*
X136697515Y-118831640D01*
X136774920Y-118829546D01*
X136778328Y-118829500D01*
X138706079Y-118829500D01*
X138725029Y-118830933D01*
X138739264Y-118833099D01*
X138739268Y-118833099D01*
X138746498Y-118834199D01*
X138753790Y-118833606D01*
X138753793Y-118833606D01*
X138799167Y-118829915D01*
X138809382Y-118829500D01*
X138817442Y-118829500D01*
X138834829Y-118827473D01*
X138845656Y-118826211D01*
X138850031Y-118825778D01*
X138915488Y-118820454D01*
X138915491Y-118820453D01*
X138922786Y-118819860D01*
X138929750Y-118817604D01*
X138935709Y-118816413D01*
X138941564Y-118815029D01*
X138948830Y-118814182D01*
X139017476Y-118789265D01*
X139021604Y-118787848D01*
X139084085Y-118767607D01*
X139084087Y-118767606D01*
X139091048Y-118765351D01*
X139097303Y-118761555D01*
X139102777Y-118759049D01*
X139108207Y-118756330D01*
X139115086Y-118753833D01*
X139121207Y-118749820D01*
X139176125Y-118713814D01*
X139179829Y-118711477D01*
X139242256Y-118673595D01*
X139250633Y-118666197D01*
X139250657Y-118666224D01*
X139253649Y-118663571D01*
X139256882Y-118660868D01*
X139263001Y-118656856D01*
X139316277Y-118600617D01*
X139318655Y-118598175D01*
X139937025Y-117979805D01*
X139999337Y-117945779D01*
X140026120Y-117942900D01*
X148744963Y-117942900D01*
X148763911Y-117944333D01*
X148771252Y-117945450D01*
X148778149Y-117946499D01*
X148778151Y-117946499D01*
X148785381Y-117947599D01*
X148792673Y-117947006D01*
X148792676Y-117947006D01*
X148838050Y-117943315D01*
X148848265Y-117942900D01*
X148856325Y-117942900D01*
X148869615Y-117941351D01*
X148884539Y-117939611D01*
X148888914Y-117939178D01*
X148954371Y-117933854D01*
X148954374Y-117933853D01*
X148961669Y-117933260D01*
X148968633Y-117931004D01*
X148974592Y-117929813D01*
X148980447Y-117928429D01*
X148987713Y-117927582D01*
X149056359Y-117902665D01*
X149060487Y-117901248D01*
X149122968Y-117881007D01*
X149122970Y-117881006D01*
X149129931Y-117878751D01*
X149136186Y-117874955D01*
X149141660Y-117872449D01*
X149147090Y-117869730D01*
X149153969Y-117867233D01*
X149215016Y-117827209D01*
X149218705Y-117824882D01*
X149238897Y-117812629D01*
X149276339Y-117789909D01*
X149276344Y-117789905D01*
X149281140Y-117786995D01*
X149289516Y-117779597D01*
X149289539Y-117779623D01*
X149292528Y-117776974D01*
X149295762Y-117774270D01*
X149301884Y-117770256D01*
X149355143Y-117714035D01*
X149357520Y-117711593D01*
X150667911Y-116401201D01*
X150682323Y-116388815D01*
X150693918Y-116380282D01*
X150693923Y-116380277D01*
X150699818Y-116375939D01*
X150704557Y-116370361D01*
X150704560Y-116370358D01*
X150734035Y-116335663D01*
X150740965Y-116328147D01*
X150746660Y-116322452D01*
X150764281Y-116300180D01*
X150767072Y-116296776D01*
X150809591Y-116246728D01*
X150809592Y-116246726D01*
X150814333Y-116241146D01*
X150817661Y-116234630D01*
X150821028Y-116229581D01*
X150824195Y-116224452D01*
X150828734Y-116218715D01*
X150859655Y-116152556D01*
X150861561Y-116148656D01*
X150894769Y-116083623D01*
X150896508Y-116076515D01*
X150898607Y-116070872D01*
X150900524Y-116065109D01*
X150903622Y-116058481D01*
X150918487Y-115987014D01*
X150919457Y-115982730D01*
X150925998Y-115955998D01*
X150936808Y-115911821D01*
X150937500Y-115900667D01*
X150937536Y-115900669D01*
X150937775Y-115896676D01*
X150938149Y-115892484D01*
X150939640Y-115885316D01*
X150937546Y-115807910D01*
X150937500Y-115804503D01*
X150937500Y-113076721D01*
X150957502Y-113008600D01*
X150974405Y-112987626D01*
X151619511Y-112342520D01*
X151633923Y-112330134D01*
X151645518Y-112321601D01*
X151645523Y-112321596D01*
X151651418Y-112317258D01*
X151656157Y-112311680D01*
X151656160Y-112311677D01*
X151685635Y-112276982D01*
X151692565Y-112269466D01*
X151698261Y-112263770D01*
X151700524Y-112260909D01*
X151700529Y-112260904D01*
X151715885Y-112241494D01*
X151718674Y-112238092D01*
X151761196Y-112188041D01*
X151761197Y-112188040D01*
X151765933Y-112182465D01*
X151769261Y-112175948D01*
X151772627Y-112170900D01*
X151775790Y-112165778D01*
X151780335Y-112160034D01*
X151811264Y-112093855D01*
X151813163Y-112089971D01*
X151846369Y-112024942D01*
X151848110Y-112017827D01*
X151850213Y-112012172D01*
X151852122Y-112006433D01*
X151855222Y-111999800D01*
X151870091Y-111928315D01*
X151871061Y-111924032D01*
X151888408Y-111853140D01*
X151889100Y-111841986D01*
X151889135Y-111841988D01*
X151889375Y-111838016D01*
X151889752Y-111833795D01*
X151891241Y-111826635D01*
X151889146Y-111749208D01*
X151889100Y-111745800D01*
X151889100Y-110335998D01*
X203094392Y-110335998D01*
X203094749Y-110342815D01*
X203094749Y-110342819D01*
X203099651Y-110436339D01*
X203103870Y-110516847D01*
X203105681Y-110523420D01*
X203105681Y-110523423D01*
X203129051Y-110608266D01*
X203151961Y-110691441D01*
X203236422Y-110851636D01*
X203240827Y-110856849D01*
X203240830Y-110856853D01*
X203348906Y-110984743D01*
X203348910Y-110984747D01*
X203353313Y-110989957D01*
X203358737Y-110994104D01*
X203358738Y-110994105D01*
X203491757Y-111095806D01*
X203491761Y-111095809D01*
X203497178Y-111099950D01*
X203583872Y-111140376D01*
X203655131Y-111173605D01*
X203655134Y-111173606D01*
X203661308Y-111176485D01*
X203667956Y-111177971D01*
X203667959Y-111177972D01*
X203773921Y-111201657D01*
X203838043Y-111215990D01*
X203843588Y-111216300D01*
X203976744Y-111216300D01*
X204111537Y-111201657D01*
X204229690Y-111161894D01*
X204276704Y-111146072D01*
X204276706Y-111146071D01*
X204283175Y-111143894D01*
X204438405Y-111050623D01*
X204443362Y-111045935D01*
X204443365Y-111045933D01*
X204565027Y-110930882D01*
X204565029Y-110930880D01*
X204569985Y-110926193D01*
X204573817Y-110920555D01*
X204573820Y-110920551D01*
X204667942Y-110782055D01*
X204671777Y-110776412D01*
X204739030Y-110608266D01*
X204740144Y-110601538D01*
X204740145Y-110601534D01*
X204767493Y-110436339D01*
X204767493Y-110436336D01*
X204768608Y-110429602D01*
X204768217Y-110422123D01*
X204759487Y-110255566D01*
X204759130Y-110248753D01*
X204738077Y-110172318D01*
X204712852Y-110080741D01*
X204711039Y-110074159D01*
X204626578Y-109913964D01*
X204622173Y-109908751D01*
X204622170Y-109908747D01*
X204514094Y-109780857D01*
X204514090Y-109780853D01*
X204509687Y-109775643D01*
X204504262Y-109771495D01*
X204371243Y-109669794D01*
X204371239Y-109669791D01*
X204365822Y-109665650D01*
X204260686Y-109616625D01*
X204207869Y-109591995D01*
X204207866Y-109591994D01*
X204201692Y-109589115D01*
X204195044Y-109587629D01*
X204195041Y-109587628D01*
X204029994Y-109550736D01*
X204029995Y-109550736D01*
X204024957Y-109549610D01*
X204019412Y-109549300D01*
X203886256Y-109549300D01*
X203751463Y-109563943D01*
X203668109Y-109591995D01*
X203586296Y-109619528D01*
X203586294Y-109619529D01*
X203579825Y-109621706D01*
X203424595Y-109714977D01*
X203419638Y-109719665D01*
X203419635Y-109719667D01*
X203310939Y-109822457D01*
X203293015Y-109839407D01*
X203289183Y-109845045D01*
X203289180Y-109845049D01*
X203208344Y-109963996D01*
X203191223Y-109989188D01*
X203123970Y-110157334D01*
X203122856Y-110164062D01*
X203122855Y-110164066D01*
X203107038Y-110259608D01*
X203094392Y-110335998D01*
X151889100Y-110335998D01*
X151889100Y-109792670D01*
X151890533Y-109773720D01*
X151892699Y-109759485D01*
X151892699Y-109759481D01*
X151893799Y-109752251D01*
X151889515Y-109699582D01*
X151889100Y-109689367D01*
X151889100Y-109681307D01*
X151886939Y-109662768D01*
X151885811Y-109653093D01*
X151885378Y-109648718D01*
X151880054Y-109583261D01*
X151880053Y-109583258D01*
X151879460Y-109575963D01*
X151877204Y-109568999D01*
X151876013Y-109563040D01*
X151874629Y-109557185D01*
X151873782Y-109549919D01*
X151848865Y-109481273D01*
X151847448Y-109477145D01*
X151827207Y-109414664D01*
X151827206Y-109414662D01*
X151824951Y-109407701D01*
X151821155Y-109401446D01*
X151818649Y-109395972D01*
X151815930Y-109390542D01*
X151813433Y-109383663D01*
X151795803Y-109356772D01*
X151773415Y-109322626D01*
X151771066Y-109318903D01*
X151757380Y-109296348D01*
X151739100Y-109230985D01*
X151739100Y-103485422D01*
X151759102Y-103417301D01*
X151776004Y-103396327D01*
X153718914Y-101453414D01*
X153733327Y-101441027D01*
X153744923Y-101432493D01*
X153750818Y-101428155D01*
X153755557Y-101422577D01*
X153755560Y-101422574D01*
X153785035Y-101387879D01*
X153791965Y-101380363D01*
X153797661Y-101374667D01*
X153815304Y-101352367D01*
X153818076Y-101348987D01*
X153819855Y-101346894D01*
X153865333Y-101293362D01*
X153868664Y-101286839D01*
X153872006Y-101281827D01*
X153875187Y-101276677D01*
X153879734Y-101270930D01*
X153910628Y-101204828D01*
X153912556Y-101200882D01*
X153942441Y-101142357D01*
X153942442Y-101142355D01*
X153945769Y-101135839D01*
X153947508Y-101128731D01*
X153949597Y-101123115D01*
X153951522Y-101117330D01*
X153954622Y-101110696D01*
X153969485Y-101039239D01*
X153970456Y-101034949D01*
X153985941Y-100971666D01*
X153987808Y-100964037D01*
X153988500Y-100952883D01*
X153988536Y-100952885D01*
X153988775Y-100948895D01*
X153989150Y-100944697D01*
X153990640Y-100937532D01*
X153988546Y-100860126D01*
X153988500Y-100856719D01*
X153988500Y-100136500D01*
X154008502Y-100068379D01*
X154062158Y-100021886D01*
X154114500Y-100010500D01*
X154894080Y-100010500D01*
X154962201Y-100030502D01*
X155008694Y-100084158D01*
X155019390Y-100123329D01*
X155034063Y-100262930D01*
X155037058Y-100291428D01*
X155096073Y-100473056D01*
X155099376Y-100478778D01*
X155099377Y-100478779D01*
X155107227Y-100492376D01*
X155191560Y-100638444D01*
X155195978Y-100643351D01*
X155195979Y-100643352D01*
X155286886Y-100744314D01*
X155319347Y-100780366D01*
X155371625Y-100818348D01*
X155468504Y-100888735D01*
X155473848Y-100892618D01*
X155479876Y-100895302D01*
X155479878Y-100895303D01*
X155621669Y-100958432D01*
X155648312Y-100970294D01*
X155741712Y-100990147D01*
X155828656Y-101008628D01*
X155828661Y-101008628D01*
X155835113Y-101010000D01*
X156026087Y-101010000D01*
X156032539Y-101008628D01*
X156032544Y-101008628D01*
X156119488Y-100990147D01*
X156212888Y-100970294D01*
X156239531Y-100958432D01*
X156381322Y-100895303D01*
X156381324Y-100895302D01*
X156387352Y-100892618D01*
X156392691Y-100888739D01*
X156392698Y-100888735D01*
X156399128Y-100884063D01*
X156473187Y-100860000D01*
X157191212Y-100860000D01*
X157210162Y-100861433D01*
X157224397Y-100863599D01*
X157224401Y-100863599D01*
X157231631Y-100864699D01*
X157238923Y-100864106D01*
X157238926Y-100864106D01*
X157284300Y-100860415D01*
X157294515Y-100860000D01*
X157302575Y-100860000D01*
X157316076Y-100858426D01*
X157330789Y-100856711D01*
X157335164Y-100856278D01*
X157400621Y-100850954D01*
X157400624Y-100850953D01*
X157407919Y-100850360D01*
X157414883Y-100848104D01*
X157420842Y-100846913D01*
X157426697Y-100845529D01*
X157433963Y-100844682D01*
X157502609Y-100819765D01*
X157506737Y-100818348D01*
X157569218Y-100798107D01*
X157569220Y-100798106D01*
X157576181Y-100795851D01*
X157582436Y-100792055D01*
X157587910Y-100789549D01*
X157593340Y-100786830D01*
X157600219Y-100784333D01*
X157613760Y-100775455D01*
X157661258Y-100744314D01*
X157664962Y-100741977D01*
X157727389Y-100704095D01*
X157735766Y-100696697D01*
X157735790Y-100696724D01*
X157738782Y-100694071D01*
X157742015Y-100691368D01*
X157748134Y-100687356D01*
X157801410Y-100631117D01*
X157803788Y-100628675D01*
X159718741Y-98713722D01*
X159733153Y-98701336D01*
X159744748Y-98692803D01*
X159744753Y-98692798D01*
X159750648Y-98688460D01*
X159755387Y-98682882D01*
X159755390Y-98682879D01*
X159784865Y-98648184D01*
X159791795Y-98640668D01*
X159797490Y-98634973D01*
X159806206Y-98623956D01*
X159815111Y-98612701D01*
X159817902Y-98609297D01*
X159860421Y-98559249D01*
X159860422Y-98559247D01*
X159865163Y-98553667D01*
X159868491Y-98547151D01*
X159871858Y-98542102D01*
X159875025Y-98536973D01*
X159879564Y-98531236D01*
X159910485Y-98465077D01*
X159912391Y-98461177D01*
X159938314Y-98410410D01*
X159945599Y-98396144D01*
X159947338Y-98389036D01*
X159949437Y-98383393D01*
X159951354Y-98377630D01*
X159954452Y-98371002D01*
X159969317Y-98299535D01*
X159970287Y-98295251D01*
X159986303Y-98229797D01*
X159987638Y-98224342D01*
X159988330Y-98213188D01*
X159988366Y-98213190D01*
X159988605Y-98209197D01*
X159988979Y-98205005D01*
X159990470Y-98197837D01*
X159988376Y-98120431D01*
X159988330Y-98117024D01*
X159988330Y-97137601D01*
X160008332Y-97069480D01*
X160025234Y-97048506D01*
X160286311Y-96787429D01*
X168084359Y-96787429D01*
X168084562Y-96789034D01*
X168138246Y-97062664D01*
X168140457Y-97070916D01*
X168230782Y-97334736D01*
X168234097Y-97342621D01*
X168359389Y-97591736D01*
X168363745Y-97599102D01*
X168521687Y-97828907D01*
X168526995Y-97835605D01*
X168714670Y-98041858D01*
X168720841Y-98047775D01*
X168934761Y-98226641D01*
X168941693Y-98231676D01*
X169177895Y-98379846D01*
X169185446Y-98383895D01*
X169439581Y-98498640D01*
X169447612Y-98501627D01*
X169714967Y-98580822D01*
X169723318Y-98582689D01*
X169908090Y-98610962D01*
X169921877Y-98609107D01*
X169926000Y-98595298D01*
X169926000Y-98594560D01*
X170434000Y-98594560D01*
X170438105Y-98608542D01*
X170451271Y-98610585D01*
X170571658Y-98596016D01*
X170580075Y-98594411D01*
X170849786Y-98523654D01*
X170857902Y-98520923D01*
X171115521Y-98414213D01*
X171123183Y-98410410D01*
X171363943Y-98269721D01*
X171371008Y-98264920D01*
X171590451Y-98092854D01*
X171596807Y-98087131D01*
X171790861Y-97886882D01*
X171796381Y-97880351D01*
X171961464Y-97655617D01*
X171966048Y-97648393D01*
X172099099Y-97403346D01*
X172102667Y-97395553D01*
X172201227Y-97134721D01*
X172203704Y-97126515D01*
X172265953Y-96854720D01*
X172267294Y-96846257D01*
X172272132Y-96792044D01*
X172269161Y-96777125D01*
X172257354Y-96774000D01*
X170452115Y-96774000D01*
X170436876Y-96778475D01*
X170435671Y-96779865D01*
X170434000Y-96787548D01*
X170434000Y-98594560D01*
X169926000Y-98594560D01*
X169926000Y-96792115D01*
X169921525Y-96776876D01*
X169920135Y-96775671D01*
X169912452Y-96774000D01*
X168101226Y-96774000D01*
X168086041Y-96778459D01*
X168084359Y-96787429D01*
X160286311Y-96787429D01*
X161674064Y-95399674D01*
X161688477Y-95387287D01*
X161700073Y-95378753D01*
X161705968Y-95374415D01*
X161710707Y-95368837D01*
X161710710Y-95368834D01*
X161740185Y-95334139D01*
X161747115Y-95326623D01*
X161752810Y-95320928D01*
X161763342Y-95307616D01*
X161770431Y-95298656D01*
X161773222Y-95295252D01*
X161815741Y-95245204D01*
X161815742Y-95245202D01*
X161820483Y-95239622D01*
X161823811Y-95233106D01*
X161827178Y-95228057D01*
X161830345Y-95222928D01*
X161834884Y-95217191D01*
X161865805Y-95151032D01*
X161867711Y-95147132D01*
X161888954Y-95105530D01*
X161900919Y-95082099D01*
X161902658Y-95074991D01*
X161904757Y-95069348D01*
X161906674Y-95063585D01*
X161909772Y-95056957D01*
X161912858Y-95042123D01*
X161924636Y-94985495D01*
X161925607Y-94981206D01*
X161941623Y-94915752D01*
X161942958Y-94910297D01*
X161943650Y-94899143D01*
X161943686Y-94899145D01*
X161943925Y-94895152D01*
X161944299Y-94890960D01*
X161945790Y-94883792D01*
X161943696Y-94806402D01*
X161943650Y-94802994D01*
X161943650Y-92471700D01*
X161963652Y-92403579D01*
X162017308Y-92357086D01*
X162069650Y-92345700D01*
X164818977Y-92345700D01*
X164887098Y-92365702D01*
X164933591Y-92419358D01*
X164943695Y-92489632D01*
X164914201Y-92554212D01*
X164898613Y-92569343D01*
X164776892Y-92668617D01*
X164766938Y-92676735D01*
X164763011Y-92681482D01*
X164763009Y-92681484D01*
X164644799Y-92824375D01*
X164644797Y-92824379D01*
X164640870Y-92829125D01*
X164546802Y-93003099D01*
X164488318Y-93192032D01*
X164487674Y-93198157D01*
X164487674Y-93198158D01*
X164481166Y-93260084D01*
X164467645Y-93388725D01*
X164485570Y-93585688D01*
X164541410Y-93775419D01*
X164544263Y-93780877D01*
X164544265Y-93780881D01*
X164550275Y-93792377D01*
X164633040Y-93950690D01*
X164756968Y-94104825D01*
X164908474Y-94231954D01*
X164913872Y-94234921D01*
X164913877Y-94234925D01*
X165000106Y-94282329D01*
X165081787Y-94327233D01*
X165087654Y-94329094D01*
X165087656Y-94329095D01*
X165264436Y-94385173D01*
X165270306Y-94387035D01*
X165424227Y-94404300D01*
X169154297Y-94404300D01*
X169222418Y-94424302D01*
X169268911Y-94477958D01*
X169279015Y-94548232D01*
X169249521Y-94612812D01*
X169219003Y-94638416D01*
X168977806Y-94782768D01*
X168970777Y-94787653D01*
X168753153Y-94962004D01*
X168746864Y-94967787D01*
X168554913Y-95170061D01*
X168549460Y-95176654D01*
X168386747Y-95403092D01*
X168382230Y-95410377D01*
X168251757Y-95656799D01*
X168248271Y-95664627D01*
X168152446Y-95926481D01*
X168150057Y-95934704D01*
X168090654Y-96207151D01*
X168089405Y-96215607D01*
X168086860Y-96247942D01*
X168090030Y-96263031D01*
X168101493Y-96266000D01*
X172257495Y-96266000D01*
X172272486Y-96261598D01*
X172274541Y-96250315D01*
X172273669Y-96237519D01*
X172272508Y-96229047D01*
X172215962Y-95955998D01*
X172213658Y-95947744D01*
X172120579Y-95684897D01*
X172117183Y-95677049D01*
X171989286Y-95429254D01*
X171984858Y-95421942D01*
X171824515Y-95193798D01*
X171819133Y-95187152D01*
X171629318Y-94982886D01*
X171623078Y-94977027D01*
X171407296Y-94800411D01*
X171400324Y-94795456D01*
X171162560Y-94649754D01*
X171154990Y-94645796D01*
X171154716Y-94645676D01*
X171154644Y-94645615D01*
X171151181Y-94643805D01*
X171151581Y-94643040D01*
X171100378Y-94599982D01*
X171079370Y-94532165D01*
X171098361Y-94463756D01*
X171151323Y-94416474D01*
X171205356Y-94404300D01*
X183319095Y-94404300D01*
X183387216Y-94424302D01*
X183433709Y-94477958D01*
X183443813Y-94548232D01*
X183419921Y-94605865D01*
X183369385Y-94673295D01*
X183318255Y-94809684D01*
X183311500Y-94871866D01*
X183311500Y-98168134D01*
X183318255Y-98230316D01*
X183369385Y-98366705D01*
X183456739Y-98483261D01*
X183573295Y-98570615D01*
X183709684Y-98621745D01*
X183771866Y-98628500D01*
X184535500Y-98628500D01*
X184603621Y-98648502D01*
X184650114Y-98702158D01*
X184661500Y-98754500D01*
X184661500Y-103545029D01*
X184641498Y-103613150D01*
X184624595Y-103634124D01*
X183034524Y-105224195D01*
X182972212Y-105258221D01*
X182945429Y-105261100D01*
X172346075Y-105261100D01*
X172277954Y-105241098D01*
X172272014Y-105237036D01*
X172252094Y-105222563D01*
X172252093Y-105222562D01*
X172246752Y-105218682D01*
X172240724Y-105215998D01*
X172240722Y-105215997D01*
X172078319Y-105143691D01*
X172078318Y-105143691D01*
X172072288Y-105141006D01*
X171978888Y-105121153D01*
X171891944Y-105102672D01*
X171891939Y-105102672D01*
X171885487Y-105101300D01*
X171694513Y-105101300D01*
X171688061Y-105102672D01*
X171688056Y-105102672D01*
X171601112Y-105121153D01*
X171507712Y-105141006D01*
X171501682Y-105143691D01*
X171501681Y-105143691D01*
X171339278Y-105215997D01*
X171339276Y-105215998D01*
X171333248Y-105218682D01*
X171327907Y-105222562D01*
X171327906Y-105222563D01*
X171307986Y-105237036D01*
X171178747Y-105330934D01*
X171174326Y-105335844D01*
X171174325Y-105335845D01*
X171115532Y-105401142D01*
X171050960Y-105472856D01*
X171022187Y-105522693D01*
X170965957Y-105620086D01*
X170955473Y-105638244D01*
X170896458Y-105819872D01*
X170895768Y-105826433D01*
X170895768Y-105826435D01*
X170878789Y-105987987D01*
X170876496Y-106009800D01*
X170877186Y-106016365D01*
X170890893Y-106146776D01*
X170896458Y-106199728D01*
X170955473Y-106381356D01*
X170958776Y-106387078D01*
X170958777Y-106387079D01*
X170968411Y-106403765D01*
X171050960Y-106546744D01*
X171055378Y-106551651D01*
X171055379Y-106551652D01*
X171174325Y-106683755D01*
X171178747Y-106688666D01*
X171260445Y-106748023D01*
X171293818Y-106772270D01*
X171333248Y-106800918D01*
X171339276Y-106803602D01*
X171339278Y-106803603D01*
X171501681Y-106875909D01*
X171507712Y-106878594D01*
X171577792Y-106893490D01*
X171688056Y-106916928D01*
X171688061Y-106916928D01*
X171694513Y-106918300D01*
X171885487Y-106918300D01*
X171891939Y-106916928D01*
X171891944Y-106916928D01*
X172002208Y-106893490D01*
X172072288Y-106878594D01*
X172078319Y-106875909D01*
X172240722Y-106803603D01*
X172240724Y-106803602D01*
X172246752Y-106800918D01*
X172252094Y-106797037D01*
X172255653Y-106794982D01*
X172318655Y-106778100D01*
X183244730Y-106778100D01*
X183263680Y-106779533D01*
X183277915Y-106781699D01*
X183277919Y-106781699D01*
X183285149Y-106782799D01*
X183292441Y-106782206D01*
X183292444Y-106782206D01*
X183337818Y-106778515D01*
X183348033Y-106778100D01*
X183356093Y-106778100D01*
X183370744Y-106776392D01*
X183384307Y-106774811D01*
X183388682Y-106774378D01*
X183454139Y-106769054D01*
X183454142Y-106769053D01*
X183461437Y-106768460D01*
X183468401Y-106766204D01*
X183474360Y-106765013D01*
X183480215Y-106763629D01*
X183487481Y-106762782D01*
X183556127Y-106737865D01*
X183560255Y-106736448D01*
X183622736Y-106716207D01*
X183622738Y-106716206D01*
X183629699Y-106713951D01*
X183635954Y-106710155D01*
X183641428Y-106707649D01*
X183646858Y-106704930D01*
X183653737Y-106702433D01*
X183659858Y-106698420D01*
X183714776Y-106662414D01*
X183718480Y-106660077D01*
X183780907Y-106622195D01*
X183789284Y-106614797D01*
X183789308Y-106614824D01*
X183792300Y-106612171D01*
X183795533Y-106609468D01*
X183801652Y-106605456D01*
X183854928Y-106549217D01*
X183857306Y-106546775D01*
X185908911Y-104495170D01*
X185923323Y-104482784D01*
X185934918Y-104474251D01*
X185934923Y-104474246D01*
X185940818Y-104469908D01*
X185945557Y-104464330D01*
X185945560Y-104464327D01*
X185975035Y-104429632D01*
X185981965Y-104422116D01*
X185987660Y-104416421D01*
X186005281Y-104394149D01*
X186008072Y-104390745D01*
X186050591Y-104340697D01*
X186050592Y-104340695D01*
X186055333Y-104335115D01*
X186058661Y-104328599D01*
X186062028Y-104323550D01*
X186065195Y-104318421D01*
X186069734Y-104312684D01*
X186100655Y-104246525D01*
X186102561Y-104242625D01*
X186119635Y-104209188D01*
X186135769Y-104177592D01*
X186137508Y-104170484D01*
X186139607Y-104164841D01*
X186141524Y-104159078D01*
X186144622Y-104152450D01*
X186159487Y-104080983D01*
X186160457Y-104076699D01*
X186165836Y-104054718D01*
X186177808Y-104005790D01*
X186178500Y-103994636D01*
X186178536Y-103994638D01*
X186178775Y-103990645D01*
X186179149Y-103986453D01*
X186180640Y-103979285D01*
X186178546Y-103901879D01*
X186178500Y-103898472D01*
X186178500Y-100780125D01*
X189562845Y-100780125D01*
X189566918Y-100824884D01*
X189580152Y-100970294D01*
X189580770Y-100977088D01*
X189582508Y-100982994D01*
X189582509Y-100982998D01*
X189590456Y-101010000D01*
X189636610Y-101166819D01*
X189639463Y-101172277D01*
X189639465Y-101172281D01*
X189656484Y-101204834D01*
X189728240Y-101342090D01*
X189852168Y-101496225D01*
X190003674Y-101623354D01*
X190009072Y-101626321D01*
X190009077Y-101626325D01*
X190108112Y-101680769D01*
X190176987Y-101718633D01*
X190182854Y-101720494D01*
X190182856Y-101720495D01*
X190359636Y-101776573D01*
X190365506Y-101778435D01*
X190519427Y-101795700D01*
X197853275Y-101795700D01*
X197921396Y-101815702D01*
X197942370Y-101832605D01*
X199792395Y-103682629D01*
X199826420Y-103744941D01*
X199829300Y-103771724D01*
X199829300Y-104377100D01*
X199809298Y-104445221D01*
X199755642Y-104491714D01*
X199703300Y-104503100D01*
X198816850Y-104503100D01*
X198803242Y-104502363D01*
X198802662Y-104502300D01*
X198765612Y-104498275D01*
X198715570Y-104502653D01*
X198710788Y-104502979D01*
X198708310Y-104503100D01*
X198705231Y-104503100D01*
X198702177Y-104503399D01*
X198702166Y-104503400D01*
X198662529Y-104507287D01*
X198661215Y-104507409D01*
X198625688Y-104510517D01*
X198568587Y-104515513D01*
X198563468Y-104517000D01*
X198558167Y-104517520D01*
X198469166Y-104544391D01*
X198468033Y-104544726D01*
X198384586Y-104568970D01*
X198384582Y-104568972D01*
X198378664Y-104570691D01*
X198373932Y-104573144D01*
X198368831Y-104574684D01*
X198363388Y-104577578D01*
X198286740Y-104618331D01*
X198285574Y-104618943D01*
X198213432Y-104656339D01*
X198203074Y-104661708D01*
X198198911Y-104665031D01*
X198194204Y-104667534D01*
X198189429Y-104671428D01*
X198189428Y-104671429D01*
X198122102Y-104726339D01*
X198121075Y-104727167D01*
X198084792Y-104756131D01*
X198084787Y-104756136D01*
X198082028Y-104758338D01*
X198079527Y-104760839D01*
X198078809Y-104761481D01*
X198074461Y-104765194D01*
X198040938Y-104792535D01*
X198037015Y-104797277D01*
X198037013Y-104797279D01*
X198011703Y-104827873D01*
X198003713Y-104836653D01*
X197501421Y-105338945D01*
X197491278Y-105348047D01*
X197461775Y-105371768D01*
X197457808Y-105376496D01*
X197429509Y-105410221D01*
X197426328Y-105413869D01*
X197424685Y-105415681D01*
X197422491Y-105417875D01*
X197395158Y-105451149D01*
X197394496Y-105451947D01*
X197334646Y-105523274D01*
X197332078Y-105527944D01*
X197328697Y-105532061D01*
X197311106Y-105564868D01*
X197284823Y-105613886D01*
X197284194Y-105615045D01*
X197242338Y-105691181D01*
X197242335Y-105691189D01*
X197239367Y-105696587D01*
X197237755Y-105701669D01*
X197235238Y-105706363D01*
X197208038Y-105795331D01*
X197207718Y-105796359D01*
X197179565Y-105885106D01*
X197178971Y-105890402D01*
X197177413Y-105895498D01*
X197169237Y-105975990D01*
X197168018Y-105987987D01*
X197167889Y-105989193D01*
X197162300Y-106039027D01*
X197162300Y-106042554D01*
X197162245Y-106043539D01*
X197161798Y-106049219D01*
X197157426Y-106092262D01*
X197158573Y-106104395D01*
X197161741Y-106137909D01*
X197162300Y-106149767D01*
X197162300Y-107364769D01*
X197162600Y-107367825D01*
X197162600Y-107367832D01*
X197164609Y-107388315D01*
X197176720Y-107511833D01*
X197233884Y-107701169D01*
X197326734Y-107875796D01*
X197379369Y-107940333D01*
X197447840Y-108024287D01*
X197447843Y-108024290D01*
X197451735Y-108029062D01*
X197456482Y-108032989D01*
X197456484Y-108032991D01*
X197599375Y-108151201D01*
X197599379Y-108151203D01*
X197604125Y-108155130D01*
X197778099Y-108249198D01*
X197967032Y-108307682D01*
X197973157Y-108308326D01*
X197973158Y-108308326D01*
X198157596Y-108327711D01*
X198157598Y-108327711D01*
X198163725Y-108328355D01*
X198246224Y-108320847D01*
X198354549Y-108310989D01*
X198354552Y-108310988D01*
X198360688Y-108310430D01*
X198366594Y-108308692D01*
X198366598Y-108308691D01*
X198471724Y-108277751D01*
X198550419Y-108254590D01*
X198555877Y-108251737D01*
X198555881Y-108251735D01*
X198646653Y-108204280D01*
X198725690Y-108162960D01*
X198879825Y-108039032D01*
X199006954Y-107887526D01*
X199009921Y-107882128D01*
X199009925Y-107882123D01*
X199099267Y-107719608D01*
X199102233Y-107714213D01*
X199104646Y-107706608D01*
X199160173Y-107531564D01*
X199160173Y-107531563D01*
X199162035Y-107525694D01*
X199179300Y-107371773D01*
X199179300Y-106646100D01*
X199199302Y-106577979D01*
X199252958Y-106531486D01*
X199305300Y-106520100D01*
X200777927Y-106520100D01*
X200791097Y-106520790D01*
X200824596Y-106524311D01*
X200824598Y-106524311D01*
X200830725Y-106524955D01*
X200880973Y-106520382D01*
X200885007Y-106520100D01*
X200887569Y-106520100D01*
X200890627Y-106519800D01*
X200890631Y-106519800D01*
X200932396Y-106515705D01*
X200933271Y-106515623D01*
X200954970Y-106513648D01*
X201027688Y-106507030D01*
X201031097Y-106506027D01*
X201034633Y-106505680D01*
X201125521Y-106478239D01*
X201126190Y-106478039D01*
X201217419Y-106451190D01*
X201220572Y-106449542D01*
X201223969Y-106448516D01*
X201307901Y-106403889D01*
X201308481Y-106403584D01*
X201392690Y-106359560D01*
X201395458Y-106357335D01*
X201398596Y-106355666D01*
X201450115Y-106313648D01*
X201472172Y-106295659D01*
X201472856Y-106295106D01*
X201542018Y-106239498D01*
X201542024Y-106239492D01*
X201546825Y-106235632D01*
X201549108Y-106232911D01*
X201551862Y-106230665D01*
X201566578Y-106212877D01*
X201582885Y-106193165D01*
X201612419Y-106157464D01*
X201612923Y-106156859D01*
X201625919Y-106141372D01*
X201656980Y-106104355D01*
X201669993Y-106088847D01*
X201669995Y-106088844D01*
X201673954Y-106084126D01*
X201675666Y-106081011D01*
X201677930Y-106078275D01*
X201723118Y-105994701D01*
X201723521Y-105993963D01*
X201766265Y-105916212D01*
X201766265Y-105916211D01*
X201769233Y-105910813D01*
X201770306Y-105907430D01*
X201771998Y-105904301D01*
X201800082Y-105813574D01*
X201800338Y-105812758D01*
X201827173Y-105728165D01*
X201827174Y-105728161D01*
X201829035Y-105722294D01*
X201829431Y-105718763D01*
X201830482Y-105715368D01*
X201840411Y-105620893D01*
X201840499Y-105620086D01*
X201846300Y-105568373D01*
X201846300Y-105565800D01*
X201846620Y-105561824D01*
X201850511Y-105524804D01*
X201850511Y-105524802D01*
X201851155Y-105518675D01*
X201846819Y-105471030D01*
X201846300Y-105459610D01*
X201846300Y-104555998D01*
X203094392Y-104555998D01*
X203094749Y-104562815D01*
X203094749Y-104562819D01*
X203101380Y-104689330D01*
X203103870Y-104736847D01*
X203105681Y-104743420D01*
X203105681Y-104743423D01*
X203129051Y-104828266D01*
X203151961Y-104911441D01*
X203236422Y-105071636D01*
X203240827Y-105076849D01*
X203240830Y-105076853D01*
X203348906Y-105204743D01*
X203348910Y-105204747D01*
X203353313Y-105209957D01*
X203358737Y-105214104D01*
X203358738Y-105214105D01*
X203491757Y-105315806D01*
X203491761Y-105315809D01*
X203497178Y-105319950D01*
X203583872Y-105360376D01*
X203655131Y-105393605D01*
X203655134Y-105393606D01*
X203661308Y-105396485D01*
X203667956Y-105397971D01*
X203667959Y-105397972D01*
X203767662Y-105420258D01*
X203838043Y-105435990D01*
X203843588Y-105436300D01*
X203976744Y-105436300D01*
X204111537Y-105421657D01*
X204245729Y-105376496D01*
X204276704Y-105366072D01*
X204276706Y-105366071D01*
X204283175Y-105363894D01*
X204438405Y-105270623D01*
X204443362Y-105265935D01*
X204443365Y-105265933D01*
X204565027Y-105150882D01*
X204565029Y-105150880D01*
X204569985Y-105146193D01*
X204573817Y-105140555D01*
X204573820Y-105140551D01*
X204667942Y-105002055D01*
X204671777Y-104996412D01*
X204739030Y-104828266D01*
X204740144Y-104821538D01*
X204740145Y-104821534D01*
X204767493Y-104656339D01*
X204767493Y-104656336D01*
X204768608Y-104649602D01*
X204768199Y-104641787D01*
X204759487Y-104475566D01*
X204759130Y-104468753D01*
X204754032Y-104450242D01*
X204712852Y-104300741D01*
X204711039Y-104294159D01*
X204626578Y-104133964D01*
X204622173Y-104128751D01*
X204622170Y-104128747D01*
X204514094Y-104000857D01*
X204514090Y-104000853D01*
X204509687Y-103995643D01*
X204488292Y-103979285D01*
X204371243Y-103889794D01*
X204371239Y-103889791D01*
X204365822Y-103885650D01*
X204260686Y-103836625D01*
X204207869Y-103811995D01*
X204207866Y-103811994D01*
X204201692Y-103809115D01*
X204195044Y-103807629D01*
X204195041Y-103807628D01*
X204029994Y-103770736D01*
X204029995Y-103770736D01*
X204024957Y-103769610D01*
X204019412Y-103769300D01*
X203886256Y-103769300D01*
X203751463Y-103783943D01*
X203668109Y-103811995D01*
X203586296Y-103839528D01*
X203586294Y-103839529D01*
X203579825Y-103841706D01*
X203424595Y-103934977D01*
X203419638Y-103939665D01*
X203419635Y-103939667D01*
X203297973Y-104054718D01*
X203293015Y-104059407D01*
X203289183Y-104065045D01*
X203289180Y-104065049D01*
X203221361Y-104164841D01*
X203191223Y-104209188D01*
X203123970Y-104377334D01*
X203122856Y-104384062D01*
X203122855Y-104384066D01*
X203095507Y-104549261D01*
X203094392Y-104555998D01*
X201846300Y-104555998D01*
X201846300Y-103363640D01*
X201847037Y-103350032D01*
X201850459Y-103318536D01*
X201850459Y-103318532D01*
X201851124Y-103312411D01*
X201846750Y-103262409D01*
X201846421Y-103257584D01*
X201846300Y-103255113D01*
X201846300Y-103252031D01*
X201842109Y-103209289D01*
X201841987Y-103207974D01*
X201834423Y-103121519D01*
X201833887Y-103115387D01*
X201832400Y-103110268D01*
X201831880Y-103104967D01*
X201805018Y-103015994D01*
X201804662Y-103014794D01*
X201778709Y-102925463D01*
X201776255Y-102920729D01*
X201774716Y-102915631D01*
X201731116Y-102833631D01*
X201730502Y-102832463D01*
X201690526Y-102755341D01*
X201690525Y-102755340D01*
X201687692Y-102749874D01*
X201684369Y-102745711D01*
X201681866Y-102741004D01*
X201623063Y-102668905D01*
X201622300Y-102667960D01*
X201591061Y-102628827D01*
X201588570Y-102626336D01*
X201587920Y-102625609D01*
X201584208Y-102621263D01*
X201560755Y-102592508D01*
X201556865Y-102587738D01*
X201552123Y-102583815D01*
X201552121Y-102583813D01*
X201521527Y-102558503D01*
X201512747Y-102550513D01*
X199080055Y-100117821D01*
X199070953Y-100107678D01*
X199051097Y-100082982D01*
X199047232Y-100078175D01*
X199008778Y-100045908D01*
X199005131Y-100042728D01*
X199003319Y-100041085D01*
X199001125Y-100038891D01*
X198967851Y-100011558D01*
X198967053Y-100010896D01*
X198895726Y-99951046D01*
X198891056Y-99948478D01*
X198886939Y-99945097D01*
X198805114Y-99901223D01*
X198803955Y-99900594D01*
X198727819Y-99858738D01*
X198727811Y-99858735D01*
X198722413Y-99855767D01*
X198717331Y-99854155D01*
X198712637Y-99851638D01*
X198623669Y-99824438D01*
X198622641Y-99824118D01*
X198533894Y-99795965D01*
X198528598Y-99795371D01*
X198523502Y-99793813D01*
X198430943Y-99784410D01*
X198429807Y-99784289D01*
X198396192Y-99780519D01*
X198383470Y-99779092D01*
X198383466Y-99779092D01*
X198379973Y-99778700D01*
X198376446Y-99778700D01*
X198375461Y-99778645D01*
X198369781Y-99778198D01*
X198340375Y-99775211D01*
X198332863Y-99774448D01*
X198332861Y-99774448D01*
X198326738Y-99773826D01*
X198284459Y-99777823D01*
X198281091Y-99778141D01*
X198269233Y-99778700D01*
X190526431Y-99778700D01*
X190523375Y-99779000D01*
X190523368Y-99779000D01*
X190468115Y-99784418D01*
X190379367Y-99793120D01*
X190373466Y-99794902D01*
X190373464Y-99794902D01*
X190300147Y-99817038D01*
X190190031Y-99850284D01*
X190015404Y-99943134D01*
X189990275Y-99963629D01*
X189866913Y-100064240D01*
X189866910Y-100064243D01*
X189862138Y-100068135D01*
X189858211Y-100072882D01*
X189858209Y-100072884D01*
X189739999Y-100215775D01*
X189739997Y-100215779D01*
X189736070Y-100220525D01*
X189642002Y-100394499D01*
X189583518Y-100583432D01*
X189582874Y-100589557D01*
X189582874Y-100589558D01*
X189566856Y-100741967D01*
X189562845Y-100780125D01*
X186178500Y-100780125D01*
X186178500Y-98754500D01*
X186198502Y-98686379D01*
X186252158Y-98639886D01*
X186304500Y-98628500D01*
X187068134Y-98628500D01*
X187130316Y-98621745D01*
X187266705Y-98570615D01*
X187383261Y-98483261D01*
X187470615Y-98366705D01*
X187521745Y-98230316D01*
X187528500Y-98168134D01*
X187528500Y-94871866D01*
X187521745Y-94809684D01*
X187470615Y-94673295D01*
X187436325Y-94627542D01*
X187411477Y-94561036D01*
X187426530Y-94491653D01*
X187476704Y-94441423D01*
X187546070Y-94426293D01*
X187612604Y-94451067D01*
X187626246Y-94462881D01*
X188016043Y-94852677D01*
X188374275Y-95210909D01*
X188488461Y-95304703D01*
X188545264Y-95335160D01*
X188618475Y-95374415D01*
X188662763Y-95398162D01*
X188724032Y-95416894D01*
X188846000Y-95454184D01*
X188846002Y-95454184D01*
X188851898Y-95455987D01*
X188909751Y-95461864D01*
X189042534Y-95475352D01*
X189042539Y-95475352D01*
X189048662Y-95475974D01*
X189172725Y-95464246D01*
X189239429Y-95457941D01*
X189239431Y-95457941D01*
X189245562Y-95457361D01*
X189378124Y-95417843D01*
X189429193Y-95402619D01*
X189429195Y-95402618D01*
X189435096Y-95400859D01*
X189610046Y-95308618D01*
X189655098Y-95272136D01*
X189758957Y-95188032D01*
X189758958Y-95188031D01*
X189763747Y-95184153D01*
X189794592Y-95147132D01*
X189886402Y-95036938D01*
X189886403Y-95036937D01*
X189890346Y-95032204D01*
X189985022Y-94858559D01*
X190031598Y-94709935D01*
X190042322Y-94675714D01*
X190042323Y-94675711D01*
X190044165Y-94669832D01*
X190046347Y-94649754D01*
X190064859Y-94479337D01*
X190064859Y-94479333D01*
X190065524Y-94473212D01*
X190048287Y-94276187D01*
X190046568Y-94270270D01*
X190046567Y-94270265D01*
X189994827Y-94092178D01*
X189993109Y-94086264D01*
X189902092Y-93910674D01*
X189874862Y-93876563D01*
X189807658Y-93792377D01*
X189807651Y-93792370D01*
X189805462Y-93789627D01*
X188742255Y-92726421D01*
X188733153Y-92716278D01*
X188713297Y-92691582D01*
X188709432Y-92686775D01*
X188670978Y-92654508D01*
X188667331Y-92651328D01*
X188665519Y-92649685D01*
X188663325Y-92647491D01*
X188630051Y-92620158D01*
X188629253Y-92619496D01*
X188557926Y-92559646D01*
X188553256Y-92557078D01*
X188549139Y-92553697D01*
X188467314Y-92509823D01*
X188466155Y-92509194D01*
X188390019Y-92467338D01*
X188390011Y-92467335D01*
X188384613Y-92464367D01*
X188379531Y-92462755D01*
X188374837Y-92460238D01*
X188285869Y-92433038D01*
X188284841Y-92432718D01*
X188196094Y-92404565D01*
X188190798Y-92403971D01*
X188185702Y-92402413D01*
X188093143Y-92393010D01*
X188092007Y-92392889D01*
X188058392Y-92389119D01*
X188045670Y-92387692D01*
X188045666Y-92387692D01*
X188042173Y-92387300D01*
X188038646Y-92387300D01*
X188037661Y-92387245D01*
X188031981Y-92386798D01*
X188002575Y-92383811D01*
X187995063Y-92383048D01*
X187995061Y-92383048D01*
X187988938Y-92382426D01*
X187946659Y-92386423D01*
X187943291Y-92386741D01*
X187931433Y-92387300D01*
X180812496Y-92387300D01*
X180744375Y-92367298D01*
X180697882Y-92313642D01*
X180687186Y-92248130D01*
X180694014Y-92183165D01*
X180694704Y-92176600D01*
X180687284Y-92106002D01*
X180675432Y-91993235D01*
X180675432Y-91993233D01*
X180674742Y-91986672D01*
X180617544Y-91810636D01*
X180615516Y-91739669D01*
X180652179Y-91678871D01*
X180715891Y-91647545D01*
X180737377Y-91645700D01*
X181841080Y-91645700D01*
X181860030Y-91647133D01*
X181874265Y-91649299D01*
X181874269Y-91649299D01*
X181881499Y-91650399D01*
X181888791Y-91649806D01*
X181888794Y-91649806D01*
X181934168Y-91646115D01*
X181944383Y-91645700D01*
X181952443Y-91645700D01*
X181965733Y-91644151D01*
X181980657Y-91642411D01*
X181985032Y-91641978D01*
X182050489Y-91636654D01*
X182050492Y-91636653D01*
X182057787Y-91636060D01*
X182064751Y-91633804D01*
X182070710Y-91632613D01*
X182076565Y-91631229D01*
X182083831Y-91630382D01*
X182152477Y-91605465D01*
X182156605Y-91604048D01*
X182219086Y-91583807D01*
X182219088Y-91583806D01*
X182226049Y-91581551D01*
X182232304Y-91577755D01*
X182237778Y-91575249D01*
X182243208Y-91572530D01*
X182250087Y-91570033D01*
X182311126Y-91530014D01*
X182314830Y-91527677D01*
X182377257Y-91489795D01*
X182385634Y-91482397D01*
X182385658Y-91482424D01*
X182388650Y-91479771D01*
X182391883Y-91477068D01*
X182398002Y-91473056D01*
X182451278Y-91416817D01*
X182453656Y-91414375D01*
X183483826Y-90384205D01*
X183546138Y-90350179D01*
X183572921Y-90347300D01*
X196981830Y-90347300D01*
X197000780Y-90348733D01*
X197015015Y-90350899D01*
X197015019Y-90350899D01*
X197022249Y-90351999D01*
X197029541Y-90351406D01*
X197029544Y-90351406D01*
X197074918Y-90347715D01*
X197085133Y-90347300D01*
X197093193Y-90347300D01*
X197106483Y-90345751D01*
X197121407Y-90344011D01*
X197125782Y-90343578D01*
X197191239Y-90338254D01*
X197191242Y-90338253D01*
X197198537Y-90337660D01*
X197205501Y-90335404D01*
X197211460Y-90334213D01*
X197217315Y-90332829D01*
X197224581Y-90331982D01*
X197293227Y-90307065D01*
X197297355Y-90305648D01*
X197359836Y-90285407D01*
X197359838Y-90285406D01*
X197366799Y-90283151D01*
X197373054Y-90279355D01*
X197378528Y-90276849D01*
X197383958Y-90274130D01*
X197390837Y-90271633D01*
X197451876Y-90231614D01*
X197455580Y-90229277D01*
X197518007Y-90191395D01*
X197526384Y-90183997D01*
X197526408Y-90184024D01*
X197529400Y-90181371D01*
X197532633Y-90178668D01*
X197538752Y-90174656D01*
X197592028Y-90118417D01*
X197594406Y-90115975D01*
X198102376Y-89608005D01*
X198164688Y-89573979D01*
X198191471Y-89571100D01*
X199384280Y-89571100D01*
X199403230Y-89572533D01*
X199417465Y-89574699D01*
X199417469Y-89574699D01*
X199424699Y-89575799D01*
X199431991Y-89575206D01*
X199431994Y-89575206D01*
X199477368Y-89571515D01*
X199487583Y-89571100D01*
X199495643Y-89571100D01*
X199508933Y-89569551D01*
X199523857Y-89567811D01*
X199528232Y-89567378D01*
X199593689Y-89562054D01*
X199593692Y-89562053D01*
X199600987Y-89561460D01*
X199607951Y-89559204D01*
X199613910Y-89558013D01*
X199619765Y-89556629D01*
X199627031Y-89555782D01*
X199695677Y-89530865D01*
X199699805Y-89529448D01*
X199762286Y-89509207D01*
X199762288Y-89509206D01*
X199769249Y-89506951D01*
X199775504Y-89503155D01*
X199780978Y-89500649D01*
X199786408Y-89497930D01*
X199793287Y-89495433D01*
X199807894Y-89485856D01*
X199854326Y-89455414D01*
X199858030Y-89453077D01*
X199920457Y-89415195D01*
X199928834Y-89407797D01*
X199928858Y-89407824D01*
X199931850Y-89405171D01*
X199935083Y-89402468D01*
X199941202Y-89398456D01*
X199994478Y-89342217D01*
X199996856Y-89339775D01*
X200403226Y-88933405D01*
X200465538Y-88899379D01*
X200492321Y-88896500D01*
X201253330Y-88896500D01*
X201272280Y-88897933D01*
X201286515Y-88900099D01*
X201286519Y-88900099D01*
X201293749Y-88901199D01*
X201301041Y-88900606D01*
X201301044Y-88900606D01*
X201346418Y-88896915D01*
X201356633Y-88896500D01*
X201364693Y-88896500D01*
X201377983Y-88894951D01*
X201392907Y-88893211D01*
X201397282Y-88892778D01*
X201462739Y-88887454D01*
X201462742Y-88887453D01*
X201470037Y-88886860D01*
X201477001Y-88884604D01*
X201482960Y-88883413D01*
X201488815Y-88882029D01*
X201496081Y-88881182D01*
X201564727Y-88856265D01*
X201568855Y-88854848D01*
X201631336Y-88834607D01*
X201631338Y-88834606D01*
X201638299Y-88832351D01*
X201644554Y-88828555D01*
X201650028Y-88826049D01*
X201655458Y-88823330D01*
X201662337Y-88820833D01*
X201668458Y-88816820D01*
X201723376Y-88780814D01*
X201727080Y-88778477D01*
X201789507Y-88740595D01*
X201797884Y-88733197D01*
X201797908Y-88733224D01*
X201800900Y-88730571D01*
X201804133Y-88727868D01*
X201810252Y-88723856D01*
X201863528Y-88667617D01*
X201865906Y-88665175D01*
X202418911Y-88112170D01*
X202433323Y-88099784D01*
X202444918Y-88091251D01*
X202444923Y-88091246D01*
X202450818Y-88086908D01*
X202455557Y-88081330D01*
X202455560Y-88081327D01*
X202485035Y-88046632D01*
X202491965Y-88039116D01*
X202497661Y-88033420D01*
X202499924Y-88030559D01*
X202499929Y-88030554D01*
X202515285Y-88011144D01*
X202518074Y-88007742D01*
X202560596Y-87957691D01*
X202560597Y-87957690D01*
X202565333Y-87952115D01*
X202568661Y-87945598D01*
X202572027Y-87940550D01*
X202575190Y-87935428D01*
X202579735Y-87929684D01*
X202610664Y-87863505D01*
X202612563Y-87859621D01*
X202645769Y-87794592D01*
X202647510Y-87787477D01*
X202649613Y-87781822D01*
X202651523Y-87776082D01*
X202654622Y-87769450D01*
X202663625Y-87726167D01*
X202697080Y-87663547D01*
X202721150Y-87644394D01*
X202749774Y-87626853D01*
X202819416Y-87584176D01*
X202999969Y-87429969D01*
X203003177Y-87426213D01*
X203003182Y-87426208D01*
X203104189Y-87307944D01*
X203163639Y-87269134D01*
X203234634Y-87268628D01*
X203295811Y-87307944D01*
X203396818Y-87426208D01*
X203396823Y-87426213D01*
X203400031Y-87429969D01*
X203580584Y-87584176D01*
X203584792Y-87586755D01*
X203584798Y-87586759D01*
X203670880Y-87639510D01*
X203783037Y-87708240D01*
X203787607Y-87710133D01*
X203787611Y-87710135D01*
X203997833Y-87797211D01*
X204002406Y-87799105D01*
X204050349Y-87810615D01*
X204228476Y-87853380D01*
X204228482Y-87853381D01*
X204233289Y-87854535D01*
X204470000Y-87873165D01*
X204706711Y-87854535D01*
X204711518Y-87853381D01*
X204711524Y-87853380D01*
X204889651Y-87810615D01*
X204937594Y-87799105D01*
X204942167Y-87797211D01*
X205152389Y-87710135D01*
X205152393Y-87710133D01*
X205156963Y-87708240D01*
X205269120Y-87639510D01*
X205345556Y-87592670D01*
X206142160Y-87592670D01*
X206147887Y-87600320D01*
X206319042Y-87705205D01*
X206327837Y-87709687D01*
X206537988Y-87796734D01*
X206547373Y-87799783D01*
X206768554Y-87852885D01*
X206778301Y-87854428D01*
X207005070Y-87872275D01*
X207014930Y-87872275D01*
X207241699Y-87854428D01*
X207251446Y-87852885D01*
X207472627Y-87799783D01*
X207482012Y-87796734D01*
X207692163Y-87709687D01*
X207700958Y-87705205D01*
X207868445Y-87602568D01*
X207877907Y-87592110D01*
X207874124Y-87583334D01*
X207022812Y-86732022D01*
X207008868Y-86724408D01*
X207007035Y-86724539D01*
X207000420Y-86728790D01*
X206148920Y-87580290D01*
X206142160Y-87592670D01*
X205345556Y-87592670D01*
X205355202Y-87586759D01*
X205355208Y-87586755D01*
X205359416Y-87584176D01*
X205539969Y-87429969D01*
X205543177Y-87426213D01*
X205543182Y-87426208D01*
X205673706Y-87273384D01*
X205733156Y-87234574D01*
X205767558Y-87232360D01*
X205786667Y-87224123D01*
X206637978Y-86372812D01*
X206644356Y-86361132D01*
X207374408Y-86361132D01*
X207374539Y-86362965D01*
X207378790Y-86369580D01*
X208230290Y-87221080D01*
X208242670Y-87227840D01*
X208250320Y-87222113D01*
X208355205Y-87050958D01*
X208359687Y-87042163D01*
X208446734Y-86832012D01*
X208449783Y-86822627D01*
X208502885Y-86601446D01*
X208504428Y-86591699D01*
X208522275Y-86364930D01*
X208522275Y-86355070D01*
X208504428Y-86128301D01*
X208502885Y-86118554D01*
X208449783Y-85897373D01*
X208446734Y-85887988D01*
X208359687Y-85677837D01*
X208355205Y-85669042D01*
X208252568Y-85501555D01*
X208242110Y-85492093D01*
X208233334Y-85495876D01*
X207382022Y-86347188D01*
X207374408Y-86361132D01*
X206644356Y-86361132D01*
X206645592Y-86358868D01*
X206645461Y-86357035D01*
X206641210Y-86350420D01*
X205789710Y-85498920D01*
X205772898Y-85489740D01*
X205709650Y-85475980D01*
X205674225Y-85447224D01*
X205543177Y-85293787D01*
X205539969Y-85290031D01*
X205359416Y-85135824D01*
X205355208Y-85133245D01*
X205355202Y-85133241D01*
X205346470Y-85127890D01*
X206142093Y-85127890D01*
X206145876Y-85136666D01*
X206997188Y-85987978D01*
X207011132Y-85995592D01*
X207012965Y-85995461D01*
X207019580Y-85991210D01*
X207871080Y-85139710D01*
X207877840Y-85127330D01*
X207872113Y-85119680D01*
X207700958Y-85014795D01*
X207692163Y-85010313D01*
X207482012Y-84923266D01*
X207472627Y-84920217D01*
X207251446Y-84867115D01*
X207241699Y-84865572D01*
X207014930Y-84847725D01*
X207005070Y-84847725D01*
X206778301Y-84865572D01*
X206768554Y-84867115D01*
X206547373Y-84920217D01*
X206537988Y-84923266D01*
X206327837Y-85010313D01*
X206319042Y-85014795D01*
X206151555Y-85117432D01*
X206142093Y-85127890D01*
X205346470Y-85127890D01*
X205161183Y-85014346D01*
X205156963Y-85011760D01*
X205152393Y-85009867D01*
X205152389Y-85009865D01*
X204942167Y-84922789D01*
X204942165Y-84922788D01*
X204937594Y-84920895D01*
X204857391Y-84901640D01*
X204711524Y-84866620D01*
X204711518Y-84866619D01*
X204706711Y-84865465D01*
X204470000Y-84846835D01*
X204233289Y-84865465D01*
X204228482Y-84866619D01*
X204228476Y-84866620D01*
X204082609Y-84901640D01*
X204002406Y-84920895D01*
X203997835Y-84922788D01*
X203997833Y-84922789D01*
X203787611Y-85009865D01*
X203787607Y-85009867D01*
X203783037Y-85011760D01*
X203778817Y-85014346D01*
X203584798Y-85133241D01*
X203584792Y-85133245D01*
X203580584Y-85135824D01*
X203400031Y-85290031D01*
X203396823Y-85293787D01*
X203396818Y-85293792D01*
X203295811Y-85412056D01*
X203236361Y-85450866D01*
X203165366Y-85451372D01*
X203104189Y-85412056D01*
X203003182Y-85293792D01*
X203003177Y-85293787D01*
X202999969Y-85290031D01*
X202819416Y-85135824D01*
X202815208Y-85133245D01*
X202815202Y-85133241D01*
X202621183Y-85014346D01*
X202616963Y-85011760D01*
X202612393Y-85009867D01*
X202612389Y-85009865D01*
X202402167Y-84922789D01*
X202402165Y-84922788D01*
X202397594Y-84920895D01*
X202317391Y-84901640D01*
X202171524Y-84866620D01*
X202171518Y-84866619D01*
X202166711Y-84865465D01*
X201930000Y-84846835D01*
X201693289Y-84865465D01*
X201688482Y-84866619D01*
X201688476Y-84866620D01*
X201542609Y-84901640D01*
X201462406Y-84920895D01*
X201457835Y-84922788D01*
X201457833Y-84922789D01*
X201247611Y-85009865D01*
X201247607Y-85009867D01*
X201243037Y-85011760D01*
X201238817Y-85014346D01*
X201044798Y-85133241D01*
X201044792Y-85133245D01*
X201040584Y-85135824D01*
X200860031Y-85290031D01*
X200856823Y-85293787D01*
X200856818Y-85293792D01*
X200755811Y-85412056D01*
X200696361Y-85450866D01*
X200625366Y-85451372D01*
X200564189Y-85412056D01*
X200463182Y-85293792D01*
X200463177Y-85293787D01*
X200459969Y-85290031D01*
X200279416Y-85135824D01*
X200275208Y-85133245D01*
X200275202Y-85133241D01*
X200081183Y-85014346D01*
X200076963Y-85011760D01*
X200072393Y-85009867D01*
X200072389Y-85009865D01*
X199862167Y-84922789D01*
X199862165Y-84922788D01*
X199857594Y-84920895D01*
X199777391Y-84901640D01*
X199631524Y-84866620D01*
X199631518Y-84866619D01*
X199626711Y-84865465D01*
X199390000Y-84846835D01*
X199153289Y-84865465D01*
X199148482Y-84866619D01*
X199148476Y-84866620D01*
X199002609Y-84901640D01*
X198922406Y-84920895D01*
X198917835Y-84922788D01*
X198917833Y-84922789D01*
X198707611Y-85009865D01*
X198707607Y-85009867D01*
X198703037Y-85011760D01*
X198698817Y-85014346D01*
X198504798Y-85133241D01*
X198504792Y-85133245D01*
X198500584Y-85135824D01*
X198320031Y-85290031D01*
X198316823Y-85293787D01*
X198316818Y-85293792D01*
X198215811Y-85412056D01*
X198156361Y-85450866D01*
X198085366Y-85451372D01*
X198024189Y-85412056D01*
X197923182Y-85293792D01*
X197923177Y-85293787D01*
X197919969Y-85290031D01*
X197739416Y-85135824D01*
X197735208Y-85133245D01*
X197735202Y-85133241D01*
X197541183Y-85014346D01*
X197536963Y-85011760D01*
X197532393Y-85009867D01*
X197532389Y-85009865D01*
X197322167Y-84922789D01*
X197322165Y-84922788D01*
X197317594Y-84920895D01*
X197237391Y-84901640D01*
X197091524Y-84866620D01*
X197091518Y-84866619D01*
X197086711Y-84865465D01*
X196850000Y-84846835D01*
X196613289Y-84865465D01*
X196608482Y-84866619D01*
X196608476Y-84866620D01*
X196462609Y-84901640D01*
X196382406Y-84920895D01*
X196377835Y-84922788D01*
X196377833Y-84922789D01*
X196167611Y-85009865D01*
X196167607Y-85009867D01*
X196163037Y-85011760D01*
X196158817Y-85014346D01*
X195964798Y-85133241D01*
X195964792Y-85133245D01*
X195960584Y-85135824D01*
X195780031Y-85290031D01*
X195776823Y-85293787D01*
X195776818Y-85293792D01*
X195675811Y-85412056D01*
X195616361Y-85450866D01*
X195545366Y-85451372D01*
X195484189Y-85412056D01*
X195383182Y-85293792D01*
X195383177Y-85293787D01*
X195379969Y-85290031D01*
X195199416Y-85135824D01*
X195195208Y-85133245D01*
X195195202Y-85133241D01*
X195001183Y-85014346D01*
X194996963Y-85011760D01*
X194992393Y-85009867D01*
X194992389Y-85009865D01*
X194782167Y-84922789D01*
X194782165Y-84922788D01*
X194777594Y-84920895D01*
X194697391Y-84901640D01*
X194551524Y-84866620D01*
X194551518Y-84866619D01*
X194546711Y-84865465D01*
X194310000Y-84846835D01*
X194073289Y-84865465D01*
X194068482Y-84866619D01*
X194068476Y-84866620D01*
X193922609Y-84901640D01*
X193842406Y-84920895D01*
X193837835Y-84922788D01*
X193837833Y-84922789D01*
X193627611Y-85009865D01*
X193627607Y-85009867D01*
X193623037Y-85011760D01*
X193618817Y-85014346D01*
X193424798Y-85133241D01*
X193424792Y-85133245D01*
X193420584Y-85135824D01*
X193240031Y-85290031D01*
X193236823Y-85293787D01*
X193236818Y-85293792D01*
X193135811Y-85412056D01*
X193076361Y-85450866D01*
X193005366Y-85451372D01*
X192944189Y-85412056D01*
X192843182Y-85293792D01*
X192843177Y-85293787D01*
X192839969Y-85290031D01*
X192659416Y-85135824D01*
X192655208Y-85133245D01*
X192655202Y-85133241D01*
X192461183Y-85014346D01*
X192456963Y-85011760D01*
X192452393Y-85009867D01*
X192452389Y-85009865D01*
X192242167Y-84922789D01*
X192242165Y-84922788D01*
X192237594Y-84920895D01*
X192157391Y-84901640D01*
X192011524Y-84866620D01*
X192011518Y-84866619D01*
X192006711Y-84865465D01*
X191770000Y-84846835D01*
X191533289Y-84865465D01*
X191528482Y-84866619D01*
X191528476Y-84866620D01*
X191382609Y-84901640D01*
X191302406Y-84920895D01*
X191297835Y-84922788D01*
X191297833Y-84922789D01*
X191087611Y-85009865D01*
X191087607Y-85009867D01*
X191083037Y-85011760D01*
X191078817Y-85014346D01*
X190884798Y-85133241D01*
X190884792Y-85133245D01*
X190880584Y-85135824D01*
X190700031Y-85290031D01*
X190696823Y-85293787D01*
X190696818Y-85293792D01*
X190595811Y-85412056D01*
X190536361Y-85450866D01*
X190465366Y-85451372D01*
X190404189Y-85412056D01*
X190303182Y-85293792D01*
X190303177Y-85293787D01*
X190299969Y-85290031D01*
X190119416Y-85135824D01*
X190115208Y-85133245D01*
X190115202Y-85133241D01*
X189921183Y-85014346D01*
X189916963Y-85011760D01*
X189912393Y-85009867D01*
X189912389Y-85009865D01*
X189702167Y-84922789D01*
X189702165Y-84922788D01*
X189697594Y-84920895D01*
X189617391Y-84901640D01*
X189471524Y-84866620D01*
X189471518Y-84866619D01*
X189466711Y-84865465D01*
X189230000Y-84846835D01*
X188993289Y-84865465D01*
X188988482Y-84866619D01*
X188988476Y-84866620D01*
X188842609Y-84901640D01*
X188762406Y-84920895D01*
X188757835Y-84922788D01*
X188757833Y-84922789D01*
X188547611Y-85009865D01*
X188547607Y-85009867D01*
X188543037Y-85011760D01*
X188538817Y-85014346D01*
X188344798Y-85133241D01*
X188344792Y-85133245D01*
X188340584Y-85135824D01*
X188160031Y-85290031D01*
X188156823Y-85293787D01*
X188156818Y-85293792D01*
X188055811Y-85412056D01*
X187996361Y-85450866D01*
X187925366Y-85451372D01*
X187864189Y-85412056D01*
X187763182Y-85293792D01*
X187763177Y-85293787D01*
X187759969Y-85290031D01*
X187579416Y-85135824D01*
X187575208Y-85133245D01*
X187575202Y-85133241D01*
X187381183Y-85014346D01*
X187376963Y-85011760D01*
X187372393Y-85009867D01*
X187372389Y-85009865D01*
X187162167Y-84922789D01*
X187162165Y-84922788D01*
X187157594Y-84920895D01*
X187077391Y-84901640D01*
X186931524Y-84866620D01*
X186931518Y-84866619D01*
X186926711Y-84865465D01*
X186690000Y-84846835D01*
X186453289Y-84865465D01*
X186448482Y-84866619D01*
X186448476Y-84866620D01*
X186302609Y-84901640D01*
X186222406Y-84920895D01*
X186217835Y-84922788D01*
X186217833Y-84922789D01*
X186007611Y-85009865D01*
X186007607Y-85009867D01*
X186003037Y-85011760D01*
X185998817Y-85014346D01*
X185804798Y-85133241D01*
X185804792Y-85133245D01*
X185800584Y-85135824D01*
X185620031Y-85290031D01*
X185616823Y-85293787D01*
X185616818Y-85293792D01*
X185515811Y-85412056D01*
X185456361Y-85450866D01*
X185385366Y-85451372D01*
X185324189Y-85412056D01*
X185223182Y-85293792D01*
X185223177Y-85293787D01*
X185219969Y-85290031D01*
X185039416Y-85135824D01*
X185035208Y-85133245D01*
X185035202Y-85133241D01*
X184841183Y-85014346D01*
X184836963Y-85011760D01*
X184832393Y-85009867D01*
X184832389Y-85009865D01*
X184622167Y-84922789D01*
X184622165Y-84922788D01*
X184617594Y-84920895D01*
X184537391Y-84901640D01*
X184391524Y-84866620D01*
X184391518Y-84866619D01*
X184386711Y-84865465D01*
X184150000Y-84846835D01*
X183913289Y-84865465D01*
X183908482Y-84866619D01*
X183908476Y-84866620D01*
X183762609Y-84901640D01*
X183682406Y-84920895D01*
X183677835Y-84922788D01*
X183677833Y-84922789D01*
X183467611Y-85009865D01*
X183467607Y-85009867D01*
X183463037Y-85011760D01*
X183458817Y-85014346D01*
X183264798Y-85133241D01*
X183264792Y-85133245D01*
X183260584Y-85135824D01*
X183080031Y-85290031D01*
X183076823Y-85293787D01*
X183076818Y-85293792D01*
X182975811Y-85412056D01*
X182916361Y-85450866D01*
X182845366Y-85451372D01*
X182784189Y-85412056D01*
X182683182Y-85293792D01*
X182683177Y-85293787D01*
X182679969Y-85290031D01*
X182499416Y-85135824D01*
X182495208Y-85133245D01*
X182495202Y-85133241D01*
X182301183Y-85014346D01*
X182296963Y-85011760D01*
X182292393Y-85009867D01*
X182292389Y-85009865D01*
X182082167Y-84922789D01*
X182082165Y-84922788D01*
X182077594Y-84920895D01*
X181997391Y-84901640D01*
X181851524Y-84866620D01*
X181851518Y-84866619D01*
X181846711Y-84865465D01*
X181610000Y-84846835D01*
X181373289Y-84865465D01*
X181368482Y-84866619D01*
X181368476Y-84866620D01*
X181222609Y-84901640D01*
X181142406Y-84920895D01*
X181137835Y-84922788D01*
X181137833Y-84922789D01*
X180927611Y-85009865D01*
X180927607Y-85009867D01*
X180923037Y-85011760D01*
X180918817Y-85014346D01*
X180724798Y-85133241D01*
X180724792Y-85133245D01*
X180720584Y-85135824D01*
X180540031Y-85290031D01*
X180536823Y-85293787D01*
X180536818Y-85293792D01*
X180406294Y-85446616D01*
X180346844Y-85485426D01*
X180312442Y-85487640D01*
X180293333Y-85495877D01*
X179442022Y-86347188D01*
X179434408Y-86361132D01*
X179434539Y-86362965D01*
X179438790Y-86369580D01*
X180290290Y-87221080D01*
X180307102Y-87230260D01*
X180370350Y-87244020D01*
X180405775Y-87272776D01*
X180484860Y-87365372D01*
X180540031Y-87429969D01*
X180720584Y-87584176D01*
X180790226Y-87626853D01*
X180791336Y-87627533D01*
X180838967Y-87680181D01*
X180851500Y-87734965D01*
X180851500Y-87771629D01*
X180831498Y-87839750D01*
X180814595Y-87860724D01*
X180683524Y-87991795D01*
X180621212Y-88025821D01*
X180594429Y-88028700D01*
X179615441Y-88028700D01*
X179547320Y-88008698D01*
X179500827Y-87955042D01*
X179490723Y-87884768D01*
X179520217Y-87820188D01*
X179567223Y-87786291D01*
X179752163Y-87709687D01*
X179760958Y-87705205D01*
X179928445Y-87602568D01*
X179937907Y-87592110D01*
X179934124Y-87583334D01*
X179082812Y-86732022D01*
X179068868Y-86724408D01*
X179067035Y-86724539D01*
X179060420Y-86728790D01*
X178208920Y-87580290D01*
X178202160Y-87592670D01*
X178207887Y-87600320D01*
X178379042Y-87705205D01*
X178387837Y-87709687D01*
X178572777Y-87786291D01*
X178628058Y-87830839D01*
X178650479Y-87898203D01*
X178632921Y-87966994D01*
X178580959Y-88015372D01*
X178524559Y-88028700D01*
X177392585Y-88028700D01*
X177324464Y-88008698D01*
X177277971Y-87955042D01*
X177267867Y-87884768D01*
X177269233Y-87877006D01*
X177269494Y-87875753D01*
X177270457Y-87871499D01*
X177271281Y-87868131D01*
X177287808Y-87800590D01*
X177288500Y-87789436D01*
X177288536Y-87789438D01*
X177288775Y-87785445D01*
X177289149Y-87781252D01*
X177290640Y-87774085D01*
X177289655Y-87737692D01*
X177307807Y-87669057D01*
X177349774Y-87626853D01*
X177355075Y-87623605D01*
X177419416Y-87584176D01*
X177599969Y-87429969D01*
X177603177Y-87426213D01*
X177603182Y-87426208D01*
X177733706Y-87273384D01*
X177793156Y-87234574D01*
X177827558Y-87232360D01*
X177846667Y-87224123D01*
X178697978Y-86372812D01*
X178705592Y-86358868D01*
X178705461Y-86357035D01*
X178701210Y-86350420D01*
X177849710Y-85498920D01*
X177832898Y-85489740D01*
X177769650Y-85475980D01*
X177734225Y-85447224D01*
X177603177Y-85293787D01*
X177599969Y-85290031D01*
X177419416Y-85135824D01*
X177415208Y-85133245D01*
X177415202Y-85133241D01*
X177406470Y-85127890D01*
X178202093Y-85127890D01*
X178205876Y-85136666D01*
X179057188Y-85987978D01*
X179071132Y-85995592D01*
X179072965Y-85995461D01*
X179079580Y-85991210D01*
X179931080Y-85139710D01*
X179937840Y-85127330D01*
X179932113Y-85119680D01*
X179760958Y-85014795D01*
X179752163Y-85010313D01*
X179542012Y-84923266D01*
X179532627Y-84920217D01*
X179311446Y-84867115D01*
X179301699Y-84865572D01*
X179074930Y-84847725D01*
X179065070Y-84847725D01*
X178838301Y-84865572D01*
X178828554Y-84867115D01*
X178607373Y-84920217D01*
X178597988Y-84923266D01*
X178387837Y-85010313D01*
X178379042Y-85014795D01*
X178211555Y-85117432D01*
X178202093Y-85127890D01*
X177406470Y-85127890D01*
X177221183Y-85014346D01*
X177216963Y-85011760D01*
X177212393Y-85009867D01*
X177212389Y-85009865D01*
X177002167Y-84922789D01*
X177002165Y-84922788D01*
X176997594Y-84920895D01*
X176917391Y-84901640D01*
X176771524Y-84866620D01*
X176771518Y-84866619D01*
X176766711Y-84865465D01*
X176530000Y-84846835D01*
X176293289Y-84865465D01*
X176288482Y-84866619D01*
X176288476Y-84866620D01*
X176142609Y-84901640D01*
X176062406Y-84920895D01*
X176057835Y-84922788D01*
X176057833Y-84922789D01*
X175847611Y-85009865D01*
X175847607Y-85009867D01*
X175843037Y-85011760D01*
X175838817Y-85014346D01*
X175644798Y-85133241D01*
X175644792Y-85133245D01*
X175640584Y-85135824D01*
X175460031Y-85290031D01*
X175456823Y-85293787D01*
X175456818Y-85293792D01*
X175355811Y-85412056D01*
X175296361Y-85450866D01*
X175225366Y-85451372D01*
X175164189Y-85412056D01*
X175063182Y-85293792D01*
X175063177Y-85293787D01*
X175059969Y-85290031D01*
X174998500Y-85237531D01*
X174883178Y-85139037D01*
X174879416Y-85135824D01*
X174808664Y-85092467D01*
X174761033Y-85039819D01*
X174748500Y-84985035D01*
X174748500Y-82526769D01*
X174768502Y-82458648D01*
X174801331Y-82424191D01*
X174927643Y-82334094D01*
X175091703Y-82170605D01*
X175167779Y-82064734D01*
X177824900Y-82064734D01*
X177831655Y-82126916D01*
X177882785Y-82263305D01*
X177970139Y-82379861D01*
X178086695Y-82467215D01*
X178223084Y-82518345D01*
X178285266Y-82525100D01*
X179905534Y-82525100D01*
X179967716Y-82518345D01*
X180104105Y-82467215D01*
X180220661Y-82379861D01*
X180308015Y-82263305D01*
X180359145Y-82126916D01*
X180365900Y-82064734D01*
X180365900Y-80444466D01*
X180359145Y-80382284D01*
X180308015Y-80245895D01*
X180220661Y-80129339D01*
X180104105Y-80041985D01*
X179967716Y-79990855D01*
X179905534Y-79984100D01*
X178285266Y-79984100D01*
X178223084Y-79990855D01*
X178086695Y-80041985D01*
X177970139Y-80129339D01*
X177882785Y-80245895D01*
X177831655Y-80382284D01*
X177824900Y-80444466D01*
X177824900Y-82064734D01*
X175167779Y-82064734D01*
X175226858Y-81982517D01*
X175229279Y-81977620D01*
X175327184Y-81779522D01*
X175327185Y-81779520D01*
X175329478Y-81774880D01*
X175396808Y-81553271D01*
X175427040Y-81323641D01*
X175428727Y-81254600D01*
X175422432Y-81178034D01*
X175410173Y-81028918D01*
X175410172Y-81028912D01*
X175409749Y-81023767D01*
X175376197Y-80890192D01*
X175354584Y-80804144D01*
X175354583Y-80804140D01*
X175353325Y-80799133D01*
X175341417Y-80771746D01*
X175263030Y-80591468D01*
X175263028Y-80591465D01*
X175260970Y-80586731D01*
X175135164Y-80392265D01*
X175128606Y-80385057D01*
X175029412Y-80276045D01*
X174979287Y-80220958D01*
X174975236Y-80217759D01*
X174975232Y-80217755D01*
X174801577Y-80080611D01*
X174801572Y-80080608D01*
X174797523Y-80077410D01*
X174793007Y-80074917D01*
X174793004Y-80074915D01*
X174599279Y-79967973D01*
X174599275Y-79967971D01*
X174594755Y-79965476D01*
X174589886Y-79963752D01*
X174589882Y-79963750D01*
X174381303Y-79889888D01*
X174381299Y-79889887D01*
X174376428Y-79888162D01*
X174371335Y-79887255D01*
X174371332Y-79887254D01*
X174153495Y-79848451D01*
X174153489Y-79848450D01*
X174148406Y-79847545D01*
X174075496Y-79846654D01*
X173921981Y-79844779D01*
X173921979Y-79844779D01*
X173916811Y-79844716D01*
X173687864Y-79879750D01*
X173467714Y-79951706D01*
X173463126Y-79954094D01*
X173463122Y-79954096D01*
X173266861Y-80056263D01*
X173262272Y-80058652D01*
X173258139Y-80061755D01*
X173258136Y-80061757D01*
X173110196Y-80172834D01*
X173077055Y-80197717D01*
X173051192Y-80224781D01*
X172954044Y-80326441D01*
X172917039Y-80365164D01*
X172914125Y-80369436D01*
X172914124Y-80369437D01*
X172893345Y-80399898D01*
X172786519Y-80556499D01*
X172689002Y-80766581D01*
X172627107Y-80989769D01*
X172602495Y-81220069D01*
X172602792Y-81225222D01*
X172602792Y-81225225D01*
X172615529Y-81446129D01*
X172615827Y-81451297D01*
X172616964Y-81456343D01*
X172616965Y-81456349D01*
X172649141Y-81599123D01*
X172666746Y-81677242D01*
X172668688Y-81682024D01*
X172668689Y-81682028D01*
X172751847Y-81886820D01*
X172753884Y-81891837D01*
X172874901Y-82089319D01*
X173026547Y-82264384D01*
X173153556Y-82369829D01*
X173185985Y-82396752D01*
X173225620Y-82455655D01*
X173231500Y-82493696D01*
X173231500Y-84985035D01*
X173211498Y-85053156D01*
X173171337Y-85092466D01*
X173100584Y-85135824D01*
X173096822Y-85139037D01*
X172981501Y-85237531D01*
X172920031Y-85290031D01*
X172916823Y-85293787D01*
X172916818Y-85293792D01*
X172815811Y-85412056D01*
X172756361Y-85450866D01*
X172685366Y-85451372D01*
X172624189Y-85412056D01*
X172523182Y-85293792D01*
X172523177Y-85293787D01*
X172519969Y-85290031D01*
X172339416Y-85135824D01*
X172335208Y-85133245D01*
X172335202Y-85133241D01*
X172141183Y-85014346D01*
X172136963Y-85011760D01*
X172132393Y-85009867D01*
X172132389Y-85009865D01*
X171922167Y-84922789D01*
X171922165Y-84922788D01*
X171917594Y-84920895D01*
X171837391Y-84901640D01*
X171691524Y-84866620D01*
X171691518Y-84866619D01*
X171686711Y-84865465D01*
X171450000Y-84846835D01*
X171213289Y-84865465D01*
X171208482Y-84866619D01*
X171208476Y-84866620D01*
X171062609Y-84901640D01*
X170982406Y-84920895D01*
X170977835Y-84922788D01*
X170977833Y-84922789D01*
X170767611Y-85009865D01*
X170767607Y-85009867D01*
X170763037Y-85011760D01*
X170758817Y-85014346D01*
X170564798Y-85133241D01*
X170564792Y-85133245D01*
X170560584Y-85135824D01*
X170556827Y-85139033D01*
X170556824Y-85139035D01*
X170549248Y-85145506D01*
X170484459Y-85174538D01*
X170414258Y-85163934D01*
X170360935Y-85117060D01*
X170356895Y-85110203D01*
X170354787Y-85106353D01*
X170278285Y-85004276D01*
X170265724Y-84991715D01*
X170163649Y-84915214D01*
X170148054Y-84906676D01*
X170027606Y-84861522D01*
X170012351Y-84857895D01*
X169961486Y-84852369D01*
X169954672Y-84852000D01*
X169182115Y-84852000D01*
X169166876Y-84856475D01*
X169165671Y-84857865D01*
X169164000Y-84865548D01*
X169164000Y-86488000D01*
X169143998Y-86556121D01*
X169090342Y-86602614D01*
X169038000Y-86614000D01*
X167420116Y-86614000D01*
X167404877Y-86618475D01*
X167403672Y-86619865D01*
X167402001Y-86627548D01*
X167402001Y-87202700D01*
X167381999Y-87270821D01*
X167328343Y-87317314D01*
X167276001Y-87328700D01*
X162690581Y-87328700D01*
X162622460Y-87308698D01*
X162575967Y-87255042D01*
X162565863Y-87184768D01*
X162583148Y-87136865D01*
X162635654Y-87051183D01*
X162638240Y-87046963D01*
X162640229Y-87042163D01*
X162727211Y-86832167D01*
X162727212Y-86832165D01*
X162729105Y-86827594D01*
X162777132Y-86627548D01*
X162783380Y-86601524D01*
X162783381Y-86601518D01*
X162784535Y-86596711D01*
X162803165Y-86360000D01*
X162784535Y-86123289D01*
X162780385Y-86106000D01*
X162776036Y-86087885D01*
X167402000Y-86087885D01*
X167406475Y-86103124D01*
X167407865Y-86104329D01*
X167415548Y-86106000D01*
X168637885Y-86106000D01*
X168653124Y-86101525D01*
X168654329Y-86100135D01*
X168656000Y-86092452D01*
X168656000Y-84870116D01*
X168651525Y-84854877D01*
X168650135Y-84853672D01*
X168642452Y-84852001D01*
X167865331Y-84852001D01*
X167858510Y-84852371D01*
X167807648Y-84857895D01*
X167792396Y-84861521D01*
X167671946Y-84906676D01*
X167656351Y-84915214D01*
X167554276Y-84991715D01*
X167541715Y-85004276D01*
X167465214Y-85106351D01*
X167456676Y-85121946D01*
X167411522Y-85242394D01*
X167407895Y-85257649D01*
X167402369Y-85308514D01*
X167402000Y-85315328D01*
X167402000Y-86087885D01*
X162776036Y-86087885D01*
X162730260Y-85897218D01*
X162729105Y-85892406D01*
X162727211Y-85887833D01*
X162640135Y-85677611D01*
X162640133Y-85677607D01*
X162638240Y-85673037D01*
X162635654Y-85668817D01*
X162516759Y-85474798D01*
X162516755Y-85474792D01*
X162514176Y-85470584D01*
X162359969Y-85290031D01*
X162342668Y-85275254D01*
X162303860Y-85215803D01*
X162298500Y-85179444D01*
X162298500Y-84669250D01*
X162299237Y-84655642D01*
X162302659Y-84624139D01*
X162303325Y-84618012D01*
X162298947Y-84567970D01*
X162298621Y-84563188D01*
X162298500Y-84560710D01*
X162298500Y-84557631D01*
X162298201Y-84554577D01*
X162298200Y-84554566D01*
X162294313Y-84514929D01*
X162294191Y-84513615D01*
X162289141Y-84455894D01*
X162286087Y-84420987D01*
X162284600Y-84415868D01*
X162284080Y-84410567D01*
X162257209Y-84321566D01*
X162256874Y-84320433D01*
X162232630Y-84236986D01*
X162232628Y-84236982D01*
X162230909Y-84231064D01*
X162228456Y-84226332D01*
X162226916Y-84221231D01*
X162183269Y-84139140D01*
X162182657Y-84137974D01*
X162142729Y-84060947D01*
X162139892Y-84055474D01*
X162136569Y-84051311D01*
X162134066Y-84046604D01*
X162075261Y-83974502D01*
X162074433Y-83973475D01*
X162045469Y-83937192D01*
X162045464Y-83937187D01*
X162043262Y-83934428D01*
X162040761Y-83931927D01*
X162040119Y-83931209D01*
X162036406Y-83926861D01*
X162028642Y-83917341D01*
X162009065Y-83893338D01*
X162004323Y-83889415D01*
X162004321Y-83889413D01*
X161973727Y-83864103D01*
X161964947Y-83856113D01*
X161335655Y-83226821D01*
X161326553Y-83216678D01*
X161306697Y-83191982D01*
X161302832Y-83187175D01*
X161264378Y-83154908D01*
X161260731Y-83151728D01*
X161258919Y-83150085D01*
X161256725Y-83147891D01*
X161223451Y-83120558D01*
X161222653Y-83119896D01*
X161151326Y-83060046D01*
X161146656Y-83057478D01*
X161142539Y-83054097D01*
X161060714Y-83010223D01*
X161059555Y-83009594D01*
X160983419Y-82967738D01*
X160983411Y-82967735D01*
X160978013Y-82964767D01*
X160972931Y-82963155D01*
X160968237Y-82960638D01*
X160879269Y-82933438D01*
X160878241Y-82933118D01*
X160789494Y-82904965D01*
X160784198Y-82904371D01*
X160779102Y-82902813D01*
X160686543Y-82893410D01*
X160685407Y-82893289D01*
X160651792Y-82889519D01*
X160639070Y-82888092D01*
X160639066Y-82888092D01*
X160635573Y-82887700D01*
X160632046Y-82887700D01*
X160631061Y-82887645D01*
X160625381Y-82887198D01*
X160595975Y-82884211D01*
X160588463Y-82883448D01*
X160588461Y-82883448D01*
X160582338Y-82882826D01*
X160540059Y-82886823D01*
X160536691Y-82887141D01*
X160524833Y-82887700D01*
X152477231Y-82887700D01*
X152474175Y-82888000D01*
X152474168Y-82888000D01*
X152418915Y-82893418D01*
X152330167Y-82902120D01*
X152324266Y-82903902D01*
X152324264Y-82903902D01*
X152250947Y-82926038D01*
X152140831Y-82959284D01*
X151966204Y-83052134D01*
X151883174Y-83119852D01*
X151817713Y-83173240D01*
X151817710Y-83173243D01*
X151812938Y-83177135D01*
X151809011Y-83181882D01*
X151809009Y-83181884D01*
X151690799Y-83324775D01*
X151690797Y-83324779D01*
X151686870Y-83329525D01*
X151592802Y-83503499D01*
X151534318Y-83692432D01*
X151533674Y-83698557D01*
X151533674Y-83698558D01*
X151517115Y-83856113D01*
X151513645Y-83889125D01*
X151521153Y-83971624D01*
X151528900Y-84056746D01*
X151531570Y-84086088D01*
X151533308Y-84091994D01*
X151533309Y-84091998D01*
X151547016Y-84138571D01*
X151587410Y-84275819D01*
X151590263Y-84281277D01*
X151590265Y-84281281D01*
X151611024Y-84320988D01*
X151679040Y-84451090D01*
X151802968Y-84605225D01*
X151954474Y-84732354D01*
X151959872Y-84735321D01*
X151959877Y-84735325D01*
X152103180Y-84814105D01*
X152127787Y-84827633D01*
X152133654Y-84829494D01*
X152133656Y-84829495D01*
X152310436Y-84885573D01*
X152316306Y-84887435D01*
X152470227Y-84904700D01*
X152711571Y-84904700D01*
X152779692Y-84924702D01*
X152826185Y-84978358D01*
X152836289Y-85048632D01*
X152806795Y-85113212D01*
X152785633Y-85132635D01*
X152784799Y-85133241D01*
X152780584Y-85135824D01*
X152600031Y-85290031D01*
X152596823Y-85293787D01*
X152596818Y-85293792D01*
X152495811Y-85412056D01*
X152436361Y-85450866D01*
X152365366Y-85451372D01*
X152304189Y-85412056D01*
X152203182Y-85293792D01*
X152203177Y-85293787D01*
X152199969Y-85290031D01*
X152019416Y-85135824D01*
X152015208Y-85133245D01*
X152015202Y-85133241D01*
X151821183Y-85014346D01*
X151816963Y-85011760D01*
X151812393Y-85009867D01*
X151812389Y-85009865D01*
X151602167Y-84922789D01*
X151602165Y-84922788D01*
X151597594Y-84920895D01*
X151517391Y-84901640D01*
X151371524Y-84866620D01*
X151371518Y-84866619D01*
X151366711Y-84865465D01*
X151130000Y-84846835D01*
X150893289Y-84865465D01*
X150888482Y-84866619D01*
X150888476Y-84866620D01*
X150742609Y-84901640D01*
X150662406Y-84920895D01*
X150657835Y-84922788D01*
X150657833Y-84922789D01*
X150447611Y-85009865D01*
X150447607Y-85009867D01*
X150443037Y-85011760D01*
X150438817Y-85014346D01*
X150244798Y-85133241D01*
X150244792Y-85133245D01*
X150240584Y-85135824D01*
X150060031Y-85290031D01*
X150056823Y-85293787D01*
X150056818Y-85293792D01*
X149955811Y-85412056D01*
X149896361Y-85450866D01*
X149825366Y-85451372D01*
X149764189Y-85412056D01*
X149663182Y-85293792D01*
X149663177Y-85293787D01*
X149659969Y-85290031D01*
X149479416Y-85135824D01*
X149475208Y-85133245D01*
X149475202Y-85133241D01*
X149281183Y-85014346D01*
X149276963Y-85011760D01*
X149272393Y-85009867D01*
X149272389Y-85009865D01*
X149062167Y-84922789D01*
X149062165Y-84922788D01*
X149057594Y-84920895D01*
X148977391Y-84901640D01*
X148831524Y-84866620D01*
X148831518Y-84866619D01*
X148826711Y-84865465D01*
X148590000Y-84846835D01*
X148353289Y-84865465D01*
X148348482Y-84866619D01*
X148348476Y-84866620D01*
X148202609Y-84901640D01*
X148122406Y-84920895D01*
X148117835Y-84922788D01*
X148117833Y-84922789D01*
X147907611Y-85009865D01*
X147907607Y-85009867D01*
X147903037Y-85011760D01*
X147898817Y-85014346D01*
X147704798Y-85133241D01*
X147704792Y-85133245D01*
X147700584Y-85135824D01*
X147520031Y-85290031D01*
X147516823Y-85293787D01*
X147516818Y-85293792D01*
X147415811Y-85412056D01*
X147356361Y-85450866D01*
X147285366Y-85451372D01*
X147224189Y-85412056D01*
X147123182Y-85293792D01*
X147123177Y-85293787D01*
X147119969Y-85290031D01*
X146939416Y-85135824D01*
X146935208Y-85133245D01*
X146935202Y-85133241D01*
X146741183Y-85014346D01*
X146736963Y-85011760D01*
X146732393Y-85009867D01*
X146732389Y-85009865D01*
X146522167Y-84922789D01*
X146522165Y-84922788D01*
X146517594Y-84920895D01*
X146437391Y-84901640D01*
X146291524Y-84866620D01*
X146291518Y-84866619D01*
X146286711Y-84865465D01*
X146050000Y-84846835D01*
X145813289Y-84865465D01*
X145808482Y-84866619D01*
X145808476Y-84866620D01*
X145662609Y-84901640D01*
X145582406Y-84920895D01*
X145577835Y-84922788D01*
X145577833Y-84922789D01*
X145367611Y-85009865D01*
X145367607Y-85009867D01*
X145363037Y-85011760D01*
X145358817Y-85014346D01*
X145164798Y-85133241D01*
X145164792Y-85133245D01*
X145160584Y-85135824D01*
X145156822Y-85139037D01*
X145156818Y-85139040D01*
X145149639Y-85145171D01*
X145084849Y-85174202D01*
X145014649Y-85163597D01*
X144962181Y-85117473D01*
X144960615Y-85113295D01*
X144873261Y-84996739D01*
X144756705Y-84909385D01*
X144620316Y-84858255D01*
X144558134Y-84851500D01*
X142461866Y-84851500D01*
X142399684Y-84858255D01*
X142263295Y-84909385D01*
X142146739Y-84996739D01*
X142059385Y-85113295D01*
X142008255Y-85249684D01*
X142001500Y-85311866D01*
X142001500Y-87408134D01*
X142008255Y-87470316D01*
X142059385Y-87606705D01*
X142146739Y-87723261D01*
X142263295Y-87810615D01*
X142399684Y-87861745D01*
X142461866Y-87868500D01*
X142625500Y-87868500D01*
X142693621Y-87888502D01*
X142740114Y-87942158D01*
X142751500Y-87994500D01*
X142751500Y-100262930D01*
X142750067Y-100281880D01*
X142746801Y-100303349D01*
X142747394Y-100310641D01*
X142747394Y-100310644D01*
X142751085Y-100356018D01*
X142751500Y-100366233D01*
X142751500Y-100374293D01*
X142751925Y-100377937D01*
X142754789Y-100402507D01*
X142755222Y-100406882D01*
X142759318Y-100457233D01*
X142761140Y-100479637D01*
X142763396Y-100486601D01*
X142764587Y-100492560D01*
X142765971Y-100498415D01*
X142766818Y-100505681D01*
X142791735Y-100574327D01*
X142793152Y-100578455D01*
X142810734Y-100632726D01*
X142815649Y-100647899D01*
X142819445Y-100654154D01*
X142821951Y-100659628D01*
X142824670Y-100665058D01*
X142827167Y-100671937D01*
X142831180Y-100678057D01*
X142831180Y-100678058D01*
X142867186Y-100732976D01*
X142869523Y-100736680D01*
X142907405Y-100799107D01*
X142911121Y-100803315D01*
X142911122Y-100803316D01*
X142914803Y-100807484D01*
X142914776Y-100807508D01*
X142917429Y-100810500D01*
X142920132Y-100813733D01*
X142924144Y-100819852D01*
X142929456Y-100824884D01*
X142980383Y-100873128D01*
X142982825Y-100875506D01*
X143561230Y-101453911D01*
X143573616Y-101468323D01*
X143582149Y-101479918D01*
X143582154Y-101479923D01*
X143586492Y-101485818D01*
X143592070Y-101490557D01*
X143592073Y-101490560D01*
X143626768Y-101520035D01*
X143634284Y-101526965D01*
X143639980Y-101532661D01*
X143642841Y-101534924D01*
X143642846Y-101534929D01*
X143662256Y-101550285D01*
X143665658Y-101553074D01*
X143721285Y-101600333D01*
X143727802Y-101603661D01*
X143732850Y-101607027D01*
X143737972Y-101610190D01*
X143743716Y-101614735D01*
X143809895Y-101645664D01*
X143813779Y-101647563D01*
X143878808Y-101680769D01*
X143885923Y-101682510D01*
X143891578Y-101684613D01*
X143897317Y-101686522D01*
X143903950Y-101689622D01*
X143975435Y-101704491D01*
X143979701Y-101705457D01*
X144050610Y-101722808D01*
X144056212Y-101723156D01*
X144056215Y-101723156D01*
X144061764Y-101723500D01*
X144061762Y-101723535D01*
X144065734Y-101723775D01*
X144069955Y-101724152D01*
X144077115Y-101725641D01*
X144154542Y-101723546D01*
X144157950Y-101723500D01*
X148026571Y-101723500D01*
X148094692Y-101743502D01*
X148141185Y-101797158D01*
X148151289Y-101867432D01*
X148121795Y-101932012D01*
X148101253Y-101950982D01*
X148100481Y-101951550D01*
X148100477Y-101951554D01*
X148094582Y-101955892D01*
X148089843Y-101961470D01*
X148089840Y-101961473D01*
X148060365Y-101996168D01*
X148053435Y-102003684D01*
X148047740Y-102009379D01*
X148045460Y-102012261D01*
X148030119Y-102031651D01*
X148027328Y-102035055D01*
X147984809Y-102085103D01*
X147980067Y-102090685D01*
X147976739Y-102097201D01*
X147973372Y-102102250D01*
X147970205Y-102107379D01*
X147965666Y-102113116D01*
X147934745Y-102179275D01*
X147932842Y-102183169D01*
X147899631Y-102248208D01*
X147897892Y-102255316D01*
X147895793Y-102260959D01*
X147893876Y-102266722D01*
X147890778Y-102273350D01*
X147889288Y-102280512D01*
X147889288Y-102280513D01*
X147875914Y-102344812D01*
X147874944Y-102349096D01*
X147857592Y-102420010D01*
X147856900Y-102431164D01*
X147856864Y-102431162D01*
X147856625Y-102435155D01*
X147856251Y-102439347D01*
X147854760Y-102446515D01*
X147854958Y-102453832D01*
X147856854Y-102523921D01*
X147856900Y-102527328D01*
X147856900Y-114652001D01*
X147840019Y-114715000D01*
X147780873Y-114817444D01*
X147721858Y-114999072D01*
X147701896Y-115189000D01*
X147721858Y-115378928D01*
X147723898Y-115385206D01*
X147780873Y-115560556D01*
X147778032Y-115561479D01*
X147785777Y-115618930D01*
X147755716Y-115683248D01*
X147695654Y-115721104D01*
X147661222Y-115725900D01*
X139436870Y-115725900D01*
X139417920Y-115724467D01*
X139403685Y-115722301D01*
X139403681Y-115722301D01*
X139396451Y-115721201D01*
X139389159Y-115721794D01*
X139389156Y-115721794D01*
X139343782Y-115725485D01*
X139333567Y-115725900D01*
X139325507Y-115725900D01*
X139321873Y-115726324D01*
X139321867Y-115726324D01*
X139308842Y-115727843D01*
X139297280Y-115729191D01*
X139292932Y-115729621D01*
X139220164Y-115735540D01*
X139213203Y-115737795D01*
X139207263Y-115738982D01*
X139201388Y-115740371D01*
X139194119Y-115741218D01*
X139125470Y-115766136D01*
X139121342Y-115767553D01*
X139058864Y-115787793D01*
X139058862Y-115787794D01*
X139051901Y-115790049D01*
X139045646Y-115793845D01*
X139040172Y-115796351D01*
X139034742Y-115799070D01*
X139027863Y-115801567D01*
X139021743Y-115805580D01*
X139021742Y-115805580D01*
X138966824Y-115841586D01*
X138963120Y-115843923D01*
X138900693Y-115881805D01*
X138892316Y-115889203D01*
X138892292Y-115889176D01*
X138889300Y-115891829D01*
X138886067Y-115894532D01*
X138879948Y-115898544D01*
X138874916Y-115903856D01*
X138826672Y-115954783D01*
X138824294Y-115957225D01*
X138355924Y-116425595D01*
X138293612Y-116459621D01*
X138266829Y-116462500D01*
X138108987Y-116462500D01*
X138034928Y-116438437D01*
X138028498Y-116433765D01*
X138028491Y-116433761D01*
X138023152Y-116429882D01*
X138017124Y-116427198D01*
X138017122Y-116427197D01*
X137854719Y-116354891D01*
X137854718Y-116354891D01*
X137848688Y-116352206D01*
X137735500Y-116328147D01*
X137668344Y-116313872D01*
X137668339Y-116313872D01*
X137661887Y-116312500D01*
X137470913Y-116312500D01*
X137464461Y-116313872D01*
X137464456Y-116313872D01*
X137397300Y-116328147D01*
X137284112Y-116352206D01*
X137278082Y-116354891D01*
X137278081Y-116354891D01*
X137115678Y-116427197D01*
X137115676Y-116427198D01*
X137109648Y-116429882D01*
X137104307Y-116433762D01*
X137104306Y-116433763D01*
X137097873Y-116438437D01*
X136955147Y-116542134D01*
X136950726Y-116547044D01*
X136950725Y-116547045D01*
X136831358Y-116679616D01*
X136770912Y-116716856D01*
X136699929Y-116715504D01*
X136663661Y-116697242D01*
X136580694Y-116636963D01*
X136580693Y-116636962D01*
X136575352Y-116633082D01*
X136569324Y-116630398D01*
X136569322Y-116630397D01*
X136406919Y-116558091D01*
X136406918Y-116558091D01*
X136400888Y-116555406D01*
X136307488Y-116535553D01*
X136220544Y-116517072D01*
X136220539Y-116517072D01*
X136214087Y-116515700D01*
X136023113Y-116515700D01*
X136016661Y-116517072D01*
X136016656Y-116517072D01*
X135929712Y-116535553D01*
X135836312Y-116555406D01*
X135830282Y-116558091D01*
X135830281Y-116558091D01*
X135667878Y-116630397D01*
X135667876Y-116630398D01*
X135661848Y-116633082D01*
X135507347Y-116745334D01*
X135379560Y-116887256D01*
X135284073Y-117052644D01*
X135225058Y-117234272D01*
X135205096Y-117424200D01*
X119910311Y-117424200D01*
X119897989Y-93359800D01*
X121652635Y-93359800D01*
X121671265Y-93596511D01*
X121726695Y-93827394D01*
X121728588Y-93831965D01*
X121728589Y-93831967D01*
X121777766Y-93950690D01*
X121817560Y-94046763D01*
X121820146Y-94050983D01*
X121939041Y-94245002D01*
X121939045Y-94245008D01*
X121941624Y-94249216D01*
X122095831Y-94429769D01*
X122276384Y-94583976D01*
X122280592Y-94586555D01*
X122280598Y-94586559D01*
X122426086Y-94675714D01*
X122478837Y-94708040D01*
X122483407Y-94709933D01*
X122483411Y-94709935D01*
X122671041Y-94787653D01*
X122698206Y-94798905D01*
X122743104Y-94809684D01*
X122924276Y-94853180D01*
X122924282Y-94853181D01*
X122929089Y-94854335D01*
X123165800Y-94872965D01*
X123402511Y-94854335D01*
X123407318Y-94853181D01*
X123407324Y-94853180D01*
X123588496Y-94809684D01*
X123633394Y-94798905D01*
X123660559Y-94787653D01*
X123848189Y-94709935D01*
X123848193Y-94709933D01*
X123852763Y-94708040D01*
X123905514Y-94675714D01*
X124051002Y-94586559D01*
X124051008Y-94586555D01*
X124055216Y-94583976D01*
X124235769Y-94429769D01*
X124389976Y-94249216D01*
X124392555Y-94245008D01*
X124392559Y-94245002D01*
X124511454Y-94050983D01*
X124514040Y-94046763D01*
X124553835Y-93950690D01*
X124603011Y-93831967D01*
X124603012Y-93831965D01*
X124604905Y-93827394D01*
X124660335Y-93596511D01*
X124678965Y-93359800D01*
X128152635Y-93359800D01*
X128171265Y-93596511D01*
X128226695Y-93827394D01*
X128228588Y-93831965D01*
X128228589Y-93831967D01*
X128277766Y-93950690D01*
X128317560Y-94046763D01*
X128320146Y-94050983D01*
X128439041Y-94245002D01*
X128439045Y-94245008D01*
X128441624Y-94249216D01*
X128595831Y-94429769D01*
X128776384Y-94583976D01*
X128847136Y-94627333D01*
X128894767Y-94679981D01*
X128907300Y-94734765D01*
X128907300Y-95105530D01*
X128905867Y-95124480D01*
X128902601Y-95145949D01*
X128903194Y-95153241D01*
X128903194Y-95153244D01*
X128906885Y-95198618D01*
X128907300Y-95208833D01*
X128907300Y-95216893D01*
X128907725Y-95220537D01*
X128910589Y-95245107D01*
X128911022Y-95249482D01*
X128915751Y-95307616D01*
X128916940Y-95322237D01*
X128919196Y-95329201D01*
X128920387Y-95335160D01*
X128921771Y-95341015D01*
X128922618Y-95348281D01*
X128947535Y-95416927D01*
X128948952Y-95421055D01*
X128968583Y-95481651D01*
X128971449Y-95490499D01*
X128975245Y-95496754D01*
X128977751Y-95502228D01*
X128980470Y-95507658D01*
X128982967Y-95514537D01*
X128986980Y-95520657D01*
X128986980Y-95520658D01*
X129022986Y-95575576D01*
X129025323Y-95579280D01*
X129063205Y-95641707D01*
X129066921Y-95645915D01*
X129066922Y-95645916D01*
X129070603Y-95650084D01*
X129070576Y-95650108D01*
X129073229Y-95653100D01*
X129075932Y-95656333D01*
X129079944Y-95662452D01*
X129102091Y-95683432D01*
X129136183Y-95715728D01*
X129138625Y-95718106D01*
X129989195Y-96568676D01*
X130023221Y-96630988D01*
X130026100Y-96657771D01*
X130026100Y-111443330D01*
X130024667Y-111462280D01*
X130021401Y-111483749D01*
X130021994Y-111491041D01*
X130021994Y-111491044D01*
X130025685Y-111536418D01*
X130026100Y-111546633D01*
X130026100Y-111554693D01*
X130026525Y-111558337D01*
X130029389Y-111582907D01*
X130029822Y-111587282D01*
X130035740Y-111660037D01*
X130037996Y-111667001D01*
X130039187Y-111672960D01*
X130040571Y-111678815D01*
X130041418Y-111686081D01*
X130066335Y-111754727D01*
X130067752Y-111758855D01*
X130090249Y-111828299D01*
X130094045Y-111834554D01*
X130096551Y-111840028D01*
X130099270Y-111845458D01*
X130101767Y-111852337D01*
X130105780Y-111858457D01*
X130105780Y-111858458D01*
X130141786Y-111913376D01*
X130144123Y-111917080D01*
X130182005Y-111979507D01*
X130185721Y-111983715D01*
X130185722Y-111983716D01*
X130189403Y-111987884D01*
X130189376Y-111987908D01*
X130192029Y-111990900D01*
X130194732Y-111994133D01*
X130198744Y-112000252D01*
X130211327Y-112012172D01*
X130254983Y-112053528D01*
X130257425Y-112055906D01*
X130979875Y-112778356D01*
X131010613Y-112828514D01*
X131065473Y-112997356D01*
X131068776Y-113003078D01*
X131068777Y-113003079D01*
X131102686Y-113061810D01*
X131160960Y-113162744D01*
X131288747Y-113304666D01*
X131443248Y-113416918D01*
X131449276Y-113419602D01*
X131449278Y-113419603D01*
X131611681Y-113491909D01*
X131617712Y-113494594D01*
X131711113Y-113514447D01*
X131798056Y-113532928D01*
X131798061Y-113532928D01*
X131804513Y-113534300D01*
X131995487Y-113534300D01*
X132001939Y-113532928D01*
X132001944Y-113532928D01*
X132088888Y-113514447D01*
X132182288Y-113494594D01*
X132188319Y-113491909D01*
X132350722Y-113419603D01*
X132350724Y-113419602D01*
X132356752Y-113416918D01*
X132511253Y-113304666D01*
X132639040Y-113162744D01*
X132697314Y-113061810D01*
X132731223Y-113003079D01*
X132731224Y-113003078D01*
X132734527Y-112997356D01*
X132793542Y-112815728D01*
X132813504Y-112625800D01*
X132793542Y-112435872D01*
X132734527Y-112254244D01*
X132639040Y-112088856D01*
X132569994Y-112012172D01*
X132515675Y-111951845D01*
X132515674Y-111951844D01*
X132511253Y-111946934D01*
X132364110Y-111840028D01*
X132362094Y-111838563D01*
X132362093Y-111838562D01*
X132356752Y-111834682D01*
X132350724Y-111831998D01*
X132350722Y-111831997D01*
X132188319Y-111759691D01*
X132188318Y-111759691D01*
X132182288Y-111757006D01*
X132175833Y-111755634D01*
X132175824Y-111755631D01*
X132119228Y-111743601D01*
X132056331Y-111709450D01*
X131580005Y-111233124D01*
X131545979Y-111170812D01*
X131543100Y-111144029D01*
X131543100Y-104746062D01*
X131879426Y-104746062D01*
X131881235Y-104765194D01*
X131883741Y-104791709D01*
X131884300Y-104803567D01*
X131884300Y-109904769D01*
X131884600Y-109907825D01*
X131884600Y-109907832D01*
X131885330Y-109915273D01*
X131898720Y-110051833D01*
X131900502Y-110057734D01*
X131900502Y-110057736D01*
X131907448Y-110080741D01*
X131955884Y-110241169D01*
X132048734Y-110415796D01*
X132065489Y-110436339D01*
X132169840Y-110564287D01*
X132169843Y-110564290D01*
X132173735Y-110569062D01*
X132178482Y-110572989D01*
X132178484Y-110572991D01*
X132321375Y-110691201D01*
X132321379Y-110691203D01*
X132326125Y-110695130D01*
X132500099Y-110789198D01*
X132689032Y-110847682D01*
X132695157Y-110848326D01*
X132695158Y-110848326D01*
X132879596Y-110867711D01*
X132879598Y-110867711D01*
X132885725Y-110868355D01*
X132968224Y-110860847D01*
X133076549Y-110850989D01*
X133076552Y-110850988D01*
X133082688Y-110850430D01*
X133088594Y-110848692D01*
X133088598Y-110848691D01*
X133193724Y-110817751D01*
X133272419Y-110794590D01*
X133277877Y-110791737D01*
X133277881Y-110791735D01*
X133368653Y-110744280D01*
X133447690Y-110702960D01*
X133601825Y-110579032D01*
X133728954Y-110427526D01*
X133731921Y-110422128D01*
X133731925Y-110422123D01*
X133821267Y-110259608D01*
X133824233Y-110254213D01*
X133826646Y-110246608D01*
X133882173Y-110071564D01*
X133882173Y-110071563D01*
X133884035Y-110065694D01*
X133901300Y-109911773D01*
X133901300Y-108590554D01*
X134361700Y-108590554D01*
X134362534Y-108598104D01*
X134376929Y-108728490D01*
X134379190Y-108748973D01*
X134381799Y-108756104D01*
X134381800Y-108756106D01*
X134386586Y-108769184D01*
X134433963Y-108898648D01*
X134438200Y-108904954D01*
X134438202Y-108904957D01*
X134478803Y-108965377D01*
X134522858Y-109030937D01*
X134640742Y-109138204D01*
X134651686Y-109144146D01*
X134757394Y-109201540D01*
X134780810Y-109214254D01*
X134934975Y-109254699D01*
X135016226Y-109255975D01*
X135086738Y-109257083D01*
X135086741Y-109257083D01*
X135094337Y-109257202D01*
X135142287Y-109246220D01*
X135213152Y-109250509D01*
X135270450Y-109292431D01*
X135295988Y-109358675D01*
X135295337Y-109385483D01*
X135293920Y-109396248D01*
X135282722Y-109481306D01*
X135279200Y-109508054D01*
X135283822Y-109549919D01*
X135295213Y-109653093D01*
X135296690Y-109666473D01*
X135299299Y-109673604D01*
X135299300Y-109673606D01*
X135302118Y-109681307D01*
X135351463Y-109816148D01*
X135355700Y-109822454D01*
X135355702Y-109822457D01*
X135396569Y-109883272D01*
X135440358Y-109948437D01*
X135558242Y-110055704D01*
X135698310Y-110131754D01*
X135852475Y-110172199D01*
X135933726Y-110173475D01*
X136004238Y-110174583D01*
X136004241Y-110174583D01*
X136011837Y-110174702D01*
X136019241Y-110173006D01*
X136019243Y-110173006D01*
X136087670Y-110157334D01*
X136167197Y-110139120D01*
X136189046Y-110128131D01*
X136302802Y-110070919D01*
X136302805Y-110070917D01*
X136309585Y-110067507D01*
X136430780Y-109963996D01*
X136485276Y-109888157D01*
X136519352Y-109840736D01*
X136519353Y-109840734D01*
X136523786Y-109834565D01*
X136531190Y-109816148D01*
X136580401Y-109693729D01*
X136583233Y-109686684D01*
X136605691Y-109528892D01*
X136605836Y-109515000D01*
X136590195Y-109385753D01*
X136601868Y-109315722D01*
X136649549Y-109263120D01*
X136718100Y-109244647D01*
X136747254Y-109248739D01*
X136762621Y-109252770D01*
X136762623Y-109252770D01*
X136769975Y-109254699D01*
X136851226Y-109255975D01*
X136921738Y-109257083D01*
X136921741Y-109257083D01*
X136929337Y-109257202D01*
X136977287Y-109246220D01*
X137048152Y-109250509D01*
X137105450Y-109292431D01*
X137130988Y-109358675D01*
X137130337Y-109385483D01*
X137128920Y-109396248D01*
X137117722Y-109481306D01*
X137114200Y-109508054D01*
X137118822Y-109549919D01*
X137130213Y-109653093D01*
X137131690Y-109666473D01*
X137134299Y-109673604D01*
X137134300Y-109673606D01*
X137137118Y-109681307D01*
X137186463Y-109816148D01*
X137190700Y-109822454D01*
X137190702Y-109822457D01*
X137231569Y-109883272D01*
X137275358Y-109948437D01*
X137393242Y-110055704D01*
X137533310Y-110131754D01*
X137687475Y-110172199D01*
X137768726Y-110173475D01*
X137839238Y-110174583D01*
X137839241Y-110174583D01*
X137846837Y-110174702D01*
X137854241Y-110173006D01*
X137854243Y-110173006D01*
X137922670Y-110157334D01*
X138002197Y-110139120D01*
X138024046Y-110128131D01*
X138137802Y-110070919D01*
X138137805Y-110070917D01*
X138144585Y-110067507D01*
X138265780Y-109963996D01*
X138320276Y-109888157D01*
X138354352Y-109840736D01*
X138354353Y-109840734D01*
X138358786Y-109834565D01*
X138366190Y-109816148D01*
X138415401Y-109693729D01*
X138418233Y-109686684D01*
X138440691Y-109528892D01*
X138440836Y-109515000D01*
X138425195Y-109385753D01*
X138436868Y-109315722D01*
X138484549Y-109263120D01*
X138553100Y-109244647D01*
X138582254Y-109248739D01*
X138597621Y-109252770D01*
X138597623Y-109252770D01*
X138604975Y-109254699D01*
X138686226Y-109255975D01*
X138756738Y-109257083D01*
X138756741Y-109257083D01*
X138764337Y-109257202D01*
X138771741Y-109255506D01*
X138771743Y-109255506D01*
X138829386Y-109242304D01*
X138919697Y-109221620D01*
X138959622Y-109201540D01*
X139055302Y-109153419D01*
X139055305Y-109153417D01*
X139062085Y-109150007D01*
X139183280Y-109046496D01*
X139276286Y-108917065D01*
X139283690Y-108898648D01*
X139332901Y-108776229D01*
X139335733Y-108769184D01*
X139358191Y-108611392D01*
X139358336Y-108597500D01*
X139357496Y-108590554D01*
X139340101Y-108446815D01*
X139340101Y-108446814D01*
X139339188Y-108439272D01*
X139300618Y-108337199D01*
X139285536Y-108297284D01*
X139285535Y-108297282D01*
X139282851Y-108290179D01*
X139192576Y-108158828D01*
X139186905Y-108153775D01*
X139079247Y-108057855D01*
X139079244Y-108057853D01*
X139073575Y-108052802D01*
X139066145Y-108048868D01*
X138939431Y-107981776D01*
X138939429Y-107981775D01*
X138932718Y-107978222D01*
X138922944Y-107975767D01*
X138785509Y-107941246D01*
X138785506Y-107941246D01*
X138778138Y-107939395D01*
X138770538Y-107939355D01*
X138770537Y-107939355D01*
X138705179Y-107939013D01*
X138618758Y-107938560D01*
X138611376Y-107940332D01*
X138611370Y-107940333D01*
X138578619Y-107948196D01*
X138507711Y-107944650D01*
X138449977Y-107903331D01*
X138423746Y-107837357D01*
X138424461Y-107807924D01*
X138437031Y-107719608D01*
X138440691Y-107693892D01*
X138440836Y-107680000D01*
X138425195Y-107550753D01*
X138436868Y-107480722D01*
X138484549Y-107428120D01*
X138553100Y-107409647D01*
X138582254Y-107413739D01*
X138597621Y-107417770D01*
X138597623Y-107417770D01*
X138604975Y-107419699D01*
X138686226Y-107420975D01*
X138756738Y-107422083D01*
X138756741Y-107422083D01*
X138764337Y-107422202D01*
X138771741Y-107420506D01*
X138771743Y-107420506D01*
X138829386Y-107407304D01*
X138919697Y-107386620D01*
X138959622Y-107366540D01*
X139055302Y-107318419D01*
X139055305Y-107318417D01*
X139062085Y-107315007D01*
X139183280Y-107211496D01*
X139276286Y-107082065D01*
X139283690Y-107063648D01*
X139332901Y-106941229D01*
X139335733Y-106934184D01*
X139358191Y-106776392D01*
X139358336Y-106762500D01*
X139357496Y-106755554D01*
X139340101Y-106611815D01*
X139340101Y-106611814D01*
X139339188Y-106604272D01*
X139307490Y-106520384D01*
X139285536Y-106462284D01*
X139285535Y-106462282D01*
X139282851Y-106455179D01*
X139227794Y-106375071D01*
X139196878Y-106330087D01*
X139196877Y-106330085D01*
X139192576Y-106323828D01*
X139186905Y-106318775D01*
X139079247Y-106222855D01*
X139079244Y-106222853D01*
X139073575Y-106217802D01*
X139066145Y-106213868D01*
X138939431Y-106146776D01*
X138939429Y-106146775D01*
X138932718Y-106143222D01*
X138922944Y-106140767D01*
X138785509Y-106106246D01*
X138785506Y-106106246D01*
X138778138Y-106104395D01*
X138770538Y-106104355D01*
X138770537Y-106104355D01*
X138705179Y-106104013D01*
X138618758Y-106103560D01*
X138611376Y-106105332D01*
X138611370Y-106105333D01*
X138578619Y-106113196D01*
X138507711Y-106109650D01*
X138449977Y-106068331D01*
X138423746Y-106002357D01*
X138424461Y-105972924D01*
X138432683Y-105915155D01*
X138440691Y-105858892D01*
X138440836Y-105845000D01*
X138439996Y-105838054D01*
X138422601Y-105694315D01*
X138422601Y-105694314D01*
X138421688Y-105686772D01*
X138403351Y-105638244D01*
X138368036Y-105544784D01*
X138368035Y-105544782D01*
X138365351Y-105537679D01*
X138311696Y-105459610D01*
X138279378Y-105412587D01*
X138279377Y-105412585D01*
X138275076Y-105406328D01*
X138269405Y-105401275D01*
X138161747Y-105305355D01*
X138161744Y-105305353D01*
X138156075Y-105300302D01*
X138106662Y-105274139D01*
X138021931Y-105229276D01*
X138021929Y-105229275D01*
X138015218Y-105225722D01*
X138005444Y-105223267D01*
X137868009Y-105188746D01*
X137868006Y-105188746D01*
X137860638Y-105186895D01*
X137853038Y-105186855D01*
X137853037Y-105186855D01*
X137787679Y-105186513D01*
X137701258Y-105186060D01*
X137693878Y-105187832D01*
X137693876Y-105187832D01*
X137553660Y-105221495D01*
X137553658Y-105221496D01*
X137546280Y-105223267D01*
X137404650Y-105296368D01*
X137398928Y-105301360D01*
X137398926Y-105301361D01*
X137355843Y-105338945D01*
X137284545Y-105401142D01*
X137245866Y-105456177D01*
X137199118Y-105522693D01*
X137192900Y-105531540D01*
X137135004Y-105680035D01*
X137134013Y-105687562D01*
X137115730Y-105826435D01*
X137114200Y-105838054D01*
X137115034Y-105845605D01*
X137129428Y-105975990D01*
X137117022Y-106045894D01*
X137068792Y-106097994D01*
X137000051Y-106115748D01*
X136973498Y-106112021D01*
X136943138Y-106104395D01*
X136935538Y-106104355D01*
X136935537Y-106104355D01*
X136870179Y-106104013D01*
X136783758Y-106103560D01*
X136776376Y-106105332D01*
X136776370Y-106105333D01*
X136743619Y-106113196D01*
X136672711Y-106109650D01*
X136614977Y-106068331D01*
X136588746Y-106002357D01*
X136589461Y-105972924D01*
X136597683Y-105915155D01*
X136605691Y-105858892D01*
X136605836Y-105845000D01*
X136604996Y-105838054D01*
X136587601Y-105694315D01*
X136587601Y-105694314D01*
X136586688Y-105686772D01*
X136568351Y-105638244D01*
X136533036Y-105544784D01*
X136533035Y-105544782D01*
X136530351Y-105537679D01*
X136476696Y-105459610D01*
X136444378Y-105412587D01*
X136444377Y-105412585D01*
X136440076Y-105406328D01*
X136434405Y-105401275D01*
X136326747Y-105305355D01*
X136326744Y-105305353D01*
X136321075Y-105300302D01*
X136271662Y-105274139D01*
X136186931Y-105229276D01*
X136186929Y-105229275D01*
X136180218Y-105225722D01*
X136170444Y-105223267D01*
X136033009Y-105188746D01*
X136033006Y-105188746D01*
X136025638Y-105186895D01*
X136018038Y-105186855D01*
X136018037Y-105186855D01*
X135952679Y-105186513D01*
X135866258Y-105186060D01*
X135858878Y-105187832D01*
X135858876Y-105187832D01*
X135718660Y-105221495D01*
X135718658Y-105221496D01*
X135711280Y-105223267D01*
X135569650Y-105296368D01*
X135563928Y-105301360D01*
X135563926Y-105301361D01*
X135520843Y-105338945D01*
X135449545Y-105401142D01*
X135410866Y-105456177D01*
X135364118Y-105522693D01*
X135357900Y-105531540D01*
X135300004Y-105680035D01*
X135299013Y-105687562D01*
X135280730Y-105826435D01*
X135279200Y-105838054D01*
X135280034Y-105845605D01*
X135294428Y-105975990D01*
X135282022Y-106045894D01*
X135233792Y-106097994D01*
X135165051Y-106115748D01*
X135138498Y-106112021D01*
X135108138Y-106104395D01*
X135100538Y-106104355D01*
X135100537Y-106104355D01*
X135035179Y-106104013D01*
X134948758Y-106103560D01*
X134941378Y-106105332D01*
X134941376Y-106105332D01*
X134801160Y-106138995D01*
X134801158Y-106138996D01*
X134793780Y-106140767D01*
X134652150Y-106213868D01*
X134646428Y-106218860D01*
X134646426Y-106218861D01*
X134580008Y-106276801D01*
X134532045Y-106318642D01*
X134440400Y-106449040D01*
X134382504Y-106597535D01*
X134381513Y-106605062D01*
X134368694Y-106702433D01*
X134361700Y-106755554D01*
X134367005Y-106803603D01*
X134376929Y-106893490D01*
X134379190Y-106913973D01*
X134381799Y-106921104D01*
X134381800Y-106921106D01*
X134386586Y-106934184D01*
X134433963Y-107063648D01*
X134438200Y-107069954D01*
X134438202Y-107069957D01*
X134478803Y-107130377D01*
X134522858Y-107195937D01*
X134640742Y-107303204D01*
X134651686Y-107309146D01*
X134767032Y-107371773D01*
X134780810Y-107379254D01*
X134934975Y-107419699D01*
X135016226Y-107420975D01*
X135086738Y-107422083D01*
X135086741Y-107422083D01*
X135094337Y-107422202D01*
X135142287Y-107411220D01*
X135213152Y-107415509D01*
X135270450Y-107457431D01*
X135295988Y-107523675D01*
X135295337Y-107550483D01*
X135279200Y-107673054D01*
X135283096Y-107708344D01*
X135294428Y-107810990D01*
X135282022Y-107880894D01*
X135233792Y-107932994D01*
X135165051Y-107950748D01*
X135138498Y-107947021D01*
X135108138Y-107939395D01*
X135100538Y-107939355D01*
X135100537Y-107939355D01*
X135035179Y-107939013D01*
X134948758Y-107938560D01*
X134941378Y-107940332D01*
X134941376Y-107940332D01*
X134801160Y-107973995D01*
X134801158Y-107973996D01*
X134793780Y-107975767D01*
X134652150Y-108048868D01*
X134532045Y-108153642D01*
X134523491Y-108165813D01*
X134466947Y-108246268D01*
X134440400Y-108284040D01*
X134382504Y-108432535D01*
X134381513Y-108440062D01*
X134377802Y-108468253D01*
X134361700Y-108590554D01*
X133901300Y-108590554D01*
X133901300Y-105219525D01*
X133921302Y-105151404D01*
X133938205Y-105130430D01*
X138061563Y-101007071D01*
X138061570Y-101007065D01*
X138061573Y-101007062D01*
X139734379Y-99334255D01*
X139744522Y-99325153D01*
X139769218Y-99305297D01*
X139774025Y-99301432D01*
X139806292Y-99262978D01*
X139809473Y-99259330D01*
X139811117Y-99257517D01*
X139813309Y-99255325D01*
X139840580Y-99222124D01*
X139841362Y-99221182D01*
X139897193Y-99154647D01*
X139897195Y-99154644D01*
X139901154Y-99149926D01*
X139903723Y-99145253D01*
X139907103Y-99141138D01*
X139951028Y-99059220D01*
X139951657Y-99058062D01*
X139993465Y-98982012D01*
X139993465Y-98982011D01*
X139996433Y-98976613D01*
X139998044Y-98971535D01*
X140000563Y-98966837D01*
X140027753Y-98877902D01*
X140028136Y-98876672D01*
X140054371Y-98793970D01*
X140056235Y-98788094D01*
X140056828Y-98782803D01*
X140058388Y-98777702D01*
X140067795Y-98685089D01*
X140067915Y-98683969D01*
X140073500Y-98634173D01*
X140073500Y-98630644D01*
X140073555Y-98629661D01*
X140074004Y-98623956D01*
X140074511Y-98618971D01*
X140076060Y-98603717D01*
X140077752Y-98587064D01*
X140077752Y-98587061D01*
X140078374Y-98580937D01*
X140074059Y-98535288D01*
X140073500Y-98523431D01*
X140073500Y-92990431D01*
X140072814Y-92983427D01*
X140064879Y-92902506D01*
X140059080Y-92843367D01*
X140001916Y-92654031D01*
X139909066Y-92479404D01*
X139830446Y-92383006D01*
X139787960Y-92330913D01*
X139787957Y-92330910D01*
X139784065Y-92326138D01*
X139777724Y-92320892D01*
X139636425Y-92203999D01*
X139636421Y-92203997D01*
X139631675Y-92200070D01*
X139457701Y-92106002D01*
X139268768Y-92047518D01*
X139262643Y-92046874D01*
X139262642Y-92046874D01*
X139078204Y-92027489D01*
X139078202Y-92027489D01*
X139072075Y-92026845D01*
X138989576Y-92034353D01*
X138881251Y-92044211D01*
X138881248Y-92044212D01*
X138875112Y-92044770D01*
X138869206Y-92046508D01*
X138869202Y-92046509D01*
X138812569Y-92063177D01*
X138685381Y-92100610D01*
X138679923Y-92103463D01*
X138679919Y-92103465D01*
X138612264Y-92138835D01*
X138510110Y-92192240D01*
X138355975Y-92316168D01*
X138228846Y-92467674D01*
X138225879Y-92473072D01*
X138225875Y-92473077D01*
X138179696Y-92557078D01*
X138133567Y-92640987D01*
X138131706Y-92646854D01*
X138131705Y-92646856D01*
X138103459Y-92735900D01*
X138073765Y-92829506D01*
X138056500Y-92983427D01*
X138056500Y-98107476D01*
X138036498Y-98175597D01*
X138019595Y-98196571D01*
X136715632Y-99500534D01*
X136715627Y-99500538D01*
X136715617Y-99500548D01*
X132223421Y-103992745D01*
X132213278Y-104001847D01*
X132183775Y-104025568D01*
X132179808Y-104030296D01*
X132151509Y-104064021D01*
X132148328Y-104067669D01*
X132146685Y-104069481D01*
X132144491Y-104071675D01*
X132117158Y-104104949D01*
X132116496Y-104105747D01*
X132056646Y-104177074D01*
X132054078Y-104181744D01*
X132050697Y-104185861D01*
X132020261Y-104242625D01*
X132006823Y-104267686D01*
X132006194Y-104268845D01*
X131964338Y-104344981D01*
X131964335Y-104344989D01*
X131961367Y-104350387D01*
X131959755Y-104355469D01*
X131957238Y-104360163D01*
X131930038Y-104449131D01*
X131929718Y-104450159D01*
X131901565Y-104538906D01*
X131900971Y-104544202D01*
X131899413Y-104549298D01*
X131892339Y-104618943D01*
X131890018Y-104641787D01*
X131889889Y-104642993D01*
X131884300Y-104692827D01*
X131884300Y-104696354D01*
X131884245Y-104697339D01*
X131883798Y-104703019D01*
X131879426Y-104746062D01*
X131543100Y-104746062D01*
X131543100Y-96358469D01*
X131544533Y-96339518D01*
X131546699Y-96325283D01*
X131546699Y-96325281D01*
X131547799Y-96318051D01*
X131543515Y-96265382D01*
X131543100Y-96255167D01*
X131543100Y-96247107D01*
X131539811Y-96218893D01*
X131539378Y-96214518D01*
X131534054Y-96149061D01*
X131534053Y-96149058D01*
X131533460Y-96141763D01*
X131531204Y-96134799D01*
X131530013Y-96128840D01*
X131528629Y-96122985D01*
X131527782Y-96115719D01*
X131502865Y-96047073D01*
X131501448Y-96042945D01*
X131481207Y-95980464D01*
X131481206Y-95980462D01*
X131478951Y-95973501D01*
X131475155Y-95967246D01*
X131472649Y-95961772D01*
X131469930Y-95956342D01*
X131467433Y-95949463D01*
X131463420Y-95943342D01*
X131427414Y-95888424D01*
X131425067Y-95884705D01*
X131398971Y-95841700D01*
X131387195Y-95822293D01*
X131379797Y-95813916D01*
X131379824Y-95813892D01*
X131377171Y-95810900D01*
X131374468Y-95807667D01*
X131370456Y-95801548D01*
X131314217Y-95748272D01*
X131311775Y-95745894D01*
X130461205Y-94895324D01*
X130427179Y-94833012D01*
X130424300Y-94806229D01*
X130424300Y-94734765D01*
X130444302Y-94666644D01*
X130484464Y-94627333D01*
X130555216Y-94583976D01*
X130735769Y-94429769D01*
X130889976Y-94249216D01*
X130892555Y-94245008D01*
X130892559Y-94245002D01*
X131011454Y-94050983D01*
X131014040Y-94046763D01*
X131053835Y-93950690D01*
X131103011Y-93831967D01*
X131103012Y-93831965D01*
X131104905Y-93827394D01*
X131160335Y-93596511D01*
X131178965Y-93359800D01*
X131160335Y-93123089D01*
X131158756Y-93116509D01*
X131106060Y-92897018D01*
X131104905Y-92892206D01*
X131087216Y-92849501D01*
X131015935Y-92677411D01*
X131015933Y-92677407D01*
X131014040Y-92672837D01*
X130991216Y-92635592D01*
X130892559Y-92474598D01*
X130892555Y-92474592D01*
X130889976Y-92470384D01*
X130735769Y-92289831D01*
X130555216Y-92135624D01*
X130551008Y-92133045D01*
X130551002Y-92133041D01*
X130356983Y-92014146D01*
X130352763Y-92011560D01*
X130348193Y-92009667D01*
X130348189Y-92009665D01*
X130137967Y-91922589D01*
X130137965Y-91922588D01*
X130133394Y-91920695D01*
X130053191Y-91901440D01*
X129907324Y-91866420D01*
X129907318Y-91866419D01*
X129902511Y-91865265D01*
X129665800Y-91846635D01*
X129429089Y-91865265D01*
X129424282Y-91866419D01*
X129424276Y-91866420D01*
X129278409Y-91901440D01*
X129198206Y-91920695D01*
X129193635Y-91922588D01*
X129193633Y-91922589D01*
X128983411Y-92009665D01*
X128983407Y-92009667D01*
X128978837Y-92011560D01*
X128974617Y-92014146D01*
X128780598Y-92133041D01*
X128780592Y-92133045D01*
X128776384Y-92135624D01*
X128595831Y-92289831D01*
X128441624Y-92470384D01*
X128439045Y-92474592D01*
X128439041Y-92474598D01*
X128340384Y-92635592D01*
X128317560Y-92672837D01*
X128315667Y-92677407D01*
X128315665Y-92677411D01*
X128244384Y-92849501D01*
X128226695Y-92892206D01*
X128225540Y-92897018D01*
X128172845Y-93116509D01*
X128171265Y-93123089D01*
X128152635Y-93359800D01*
X124678965Y-93359800D01*
X124660335Y-93123089D01*
X124658756Y-93116509D01*
X124606060Y-92897018D01*
X124604905Y-92892206D01*
X124587216Y-92849501D01*
X124515935Y-92677411D01*
X124515933Y-92677407D01*
X124514040Y-92672837D01*
X124491216Y-92635592D01*
X124392559Y-92474598D01*
X124392555Y-92474592D01*
X124389976Y-92470384D01*
X124235769Y-92289831D01*
X124055216Y-92135624D01*
X124051008Y-92133045D01*
X124051002Y-92133041D01*
X123856983Y-92014146D01*
X123852763Y-92011560D01*
X123848193Y-92009667D01*
X123848189Y-92009665D01*
X123637967Y-91922589D01*
X123637965Y-91922588D01*
X123633394Y-91920695D01*
X123553191Y-91901440D01*
X123407324Y-91866420D01*
X123407318Y-91866419D01*
X123402511Y-91865265D01*
X123165800Y-91846635D01*
X122929089Y-91865265D01*
X122924282Y-91866419D01*
X122924276Y-91866420D01*
X122778409Y-91901440D01*
X122698206Y-91920695D01*
X122693635Y-91922588D01*
X122693633Y-91922589D01*
X122483411Y-92009665D01*
X122483407Y-92009667D01*
X122478837Y-92011560D01*
X122474617Y-92014146D01*
X122280598Y-92133041D01*
X122280592Y-92133045D01*
X122276384Y-92135624D01*
X122095831Y-92289831D01*
X121941624Y-92470384D01*
X121939045Y-92474592D01*
X121939041Y-92474598D01*
X121840384Y-92635592D01*
X121817560Y-92672837D01*
X121815667Y-92677407D01*
X121815665Y-92677411D01*
X121744384Y-92849501D01*
X121726695Y-92892206D01*
X121725540Y-92897018D01*
X121672845Y-93116509D01*
X121671265Y-93123089D01*
X121652635Y-93359800D01*
X119897989Y-93359800D01*
X119896316Y-90092470D01*
X122297960Y-90092470D01*
X122303687Y-90100120D01*
X122474842Y-90205005D01*
X122483637Y-90209487D01*
X122693788Y-90296534D01*
X122703173Y-90299583D01*
X122924354Y-90352685D01*
X122934101Y-90354228D01*
X123160870Y-90372075D01*
X123170730Y-90372075D01*
X123397499Y-90354228D01*
X123407246Y-90352685D01*
X123628427Y-90299583D01*
X123637812Y-90296534D01*
X123847963Y-90209487D01*
X123856758Y-90205005D01*
X124024245Y-90102368D01*
X124033200Y-90092470D01*
X128797960Y-90092470D01*
X128803687Y-90100120D01*
X128974842Y-90205005D01*
X128983637Y-90209487D01*
X129193788Y-90296534D01*
X129203173Y-90299583D01*
X129424354Y-90352685D01*
X129434101Y-90354228D01*
X129660870Y-90372075D01*
X129670730Y-90372075D01*
X129897499Y-90354228D01*
X129907246Y-90352685D01*
X130128427Y-90299583D01*
X130137812Y-90296534D01*
X130347963Y-90209487D01*
X130356758Y-90205005D01*
X130524245Y-90102368D01*
X130533707Y-90091910D01*
X130529924Y-90083134D01*
X129678612Y-89231822D01*
X129664668Y-89224208D01*
X129662835Y-89224339D01*
X129656220Y-89228590D01*
X128804720Y-90080090D01*
X128797960Y-90092470D01*
X124033200Y-90092470D01*
X124033707Y-90091910D01*
X124029924Y-90083134D01*
X123178612Y-89231822D01*
X123164668Y-89224208D01*
X123162835Y-89224339D01*
X123156220Y-89228590D01*
X122304720Y-90080090D01*
X122297960Y-90092470D01*
X119896316Y-90092470D01*
X119895687Y-88864730D01*
X121653525Y-88864730D01*
X121671372Y-89091499D01*
X121672915Y-89101246D01*
X121726017Y-89322427D01*
X121729066Y-89331812D01*
X121816113Y-89541963D01*
X121820595Y-89550758D01*
X121923232Y-89718245D01*
X121933690Y-89727707D01*
X121942466Y-89723924D01*
X122793778Y-88872612D01*
X122800156Y-88860932D01*
X123530208Y-88860932D01*
X123530339Y-88862765D01*
X123534590Y-88869380D01*
X124386090Y-89720880D01*
X124398470Y-89727640D01*
X124406120Y-89721913D01*
X124511005Y-89550758D01*
X124515487Y-89541963D01*
X124602534Y-89331812D01*
X124605583Y-89322427D01*
X124658685Y-89101246D01*
X124660228Y-89091499D01*
X124678075Y-88864730D01*
X128153525Y-88864730D01*
X128171372Y-89091499D01*
X128172915Y-89101246D01*
X128226017Y-89322427D01*
X128229066Y-89331812D01*
X128316113Y-89541963D01*
X128320595Y-89550758D01*
X128423232Y-89718245D01*
X128433690Y-89727707D01*
X128442466Y-89723924D01*
X129293778Y-88872612D01*
X129300156Y-88860932D01*
X130030208Y-88860932D01*
X130030339Y-88862765D01*
X130034590Y-88869380D01*
X130886090Y-89720880D01*
X130898470Y-89727640D01*
X130906120Y-89721913D01*
X131011005Y-89550758D01*
X131015487Y-89541963D01*
X131102534Y-89331812D01*
X131105583Y-89322427D01*
X131158685Y-89101246D01*
X131160228Y-89091499D01*
X131178075Y-88864730D01*
X131178075Y-88854870D01*
X131160228Y-88628101D01*
X131158685Y-88618354D01*
X131105583Y-88397173D01*
X131102534Y-88387788D01*
X131015487Y-88177637D01*
X131011005Y-88168842D01*
X130908368Y-88001355D01*
X130897910Y-87991893D01*
X130889134Y-87995676D01*
X130037822Y-88846988D01*
X130030208Y-88860932D01*
X129300156Y-88860932D01*
X129301392Y-88858668D01*
X129301261Y-88856835D01*
X129297010Y-88850220D01*
X128445510Y-87998720D01*
X128433130Y-87991960D01*
X128425480Y-87997687D01*
X128320595Y-88168842D01*
X128316113Y-88177637D01*
X128229066Y-88387788D01*
X128226017Y-88397173D01*
X128172915Y-88618354D01*
X128171372Y-88628101D01*
X128153525Y-88854870D01*
X128153525Y-88864730D01*
X124678075Y-88864730D01*
X124678075Y-88854870D01*
X124660228Y-88628101D01*
X124658685Y-88618354D01*
X124605583Y-88397173D01*
X124602534Y-88387788D01*
X124515487Y-88177637D01*
X124511005Y-88168842D01*
X124408368Y-88001355D01*
X124397910Y-87991893D01*
X124389134Y-87995676D01*
X123537822Y-88846988D01*
X123530208Y-88860932D01*
X122800156Y-88860932D01*
X122801392Y-88858668D01*
X122801261Y-88856835D01*
X122797010Y-88850220D01*
X121945510Y-87998720D01*
X121933130Y-87991960D01*
X121925480Y-87997687D01*
X121820595Y-88168842D01*
X121816113Y-88177637D01*
X121729066Y-88387788D01*
X121726017Y-88397173D01*
X121672915Y-88618354D01*
X121671372Y-88628101D01*
X121653525Y-88854870D01*
X121653525Y-88864730D01*
X119895687Y-88864730D01*
X119895054Y-87627690D01*
X122297893Y-87627690D01*
X122301676Y-87636466D01*
X123152988Y-88487778D01*
X123166932Y-88495392D01*
X123168765Y-88495261D01*
X123175380Y-88491010D01*
X124026880Y-87639510D01*
X124033334Y-87627690D01*
X128797893Y-87627690D01*
X128801676Y-87636466D01*
X129652988Y-88487778D01*
X129666932Y-88495392D01*
X129668765Y-88495261D01*
X129675380Y-88491010D01*
X130526880Y-87639510D01*
X130533640Y-87627130D01*
X130527913Y-87619480D01*
X130356758Y-87514595D01*
X130347963Y-87510113D01*
X130137812Y-87423066D01*
X130128427Y-87420017D01*
X129907246Y-87366915D01*
X129897499Y-87365372D01*
X129670730Y-87347525D01*
X129660870Y-87347525D01*
X129434101Y-87365372D01*
X129424354Y-87366915D01*
X129203173Y-87420017D01*
X129193788Y-87423066D01*
X128983637Y-87510113D01*
X128974842Y-87514595D01*
X128807355Y-87617232D01*
X128797893Y-87627690D01*
X124033334Y-87627690D01*
X124033640Y-87627130D01*
X124027913Y-87619480D01*
X123856758Y-87514595D01*
X123847963Y-87510113D01*
X123637812Y-87423066D01*
X123628427Y-87420017D01*
X123407246Y-87366915D01*
X123397499Y-87365372D01*
X123170730Y-87347525D01*
X123160870Y-87347525D01*
X122934101Y-87365372D01*
X122924354Y-87366915D01*
X122703173Y-87420017D01*
X122693788Y-87423066D01*
X122483637Y-87510113D01*
X122474842Y-87514595D01*
X122307355Y-87617232D01*
X122297893Y-87627690D01*
X119895054Y-87627690D01*
X119892386Y-82416006D01*
X168138823Y-82416006D01*
X168144104Y-82423061D01*
X168320480Y-82526127D01*
X168329763Y-82530574D01*
X168536403Y-82609483D01*
X168546301Y-82612359D01*
X168763053Y-82656457D01*
X168773283Y-82657676D01*
X168994314Y-82665782D01*
X169004623Y-82665314D01*
X169224023Y-82637208D01*
X169234088Y-82635068D01*
X169445957Y-82571505D01*
X169455552Y-82567744D01*
X169654178Y-82470438D01*
X169663036Y-82465159D01*
X169720497Y-82424172D01*
X169728897Y-82413474D01*
X169721910Y-82400321D01*
X168948211Y-81626621D01*
X168934268Y-81619008D01*
X168932434Y-81619139D01*
X168925820Y-81623390D01*
X168145580Y-82403631D01*
X168138823Y-82416006D01*
X119892386Y-82416006D01*
X119891776Y-81225238D01*
X167523293Y-81225238D01*
X167536027Y-81446068D01*
X167537461Y-81456270D01*
X167586085Y-81672039D01*
X167589173Y-81681892D01*
X167672386Y-81886820D01*
X167677034Y-81896021D01*
X167765497Y-82040381D01*
X167775953Y-82049842D01*
X167784731Y-82046058D01*
X168563379Y-81267411D01*
X168569756Y-81255732D01*
X169299808Y-81255732D01*
X169299939Y-81257566D01*
X169304190Y-81264180D01*
X170081707Y-82041696D01*
X170093713Y-82048252D01*
X170105452Y-82039284D01*
X170143410Y-81986459D01*
X170148721Y-81977620D01*
X170246718Y-81779337D01*
X170250517Y-81769742D01*
X170314815Y-81558117D01*
X170316994Y-81548036D01*
X170346102Y-81326938D01*
X170346621Y-81320263D01*
X170348144Y-81257964D01*
X170347950Y-81251246D01*
X170329679Y-81029000D01*
X170327996Y-81018838D01*
X170274110Y-80804308D01*
X170270789Y-80794553D01*
X170182593Y-80591718D01*
X170177715Y-80582620D01*
X170104624Y-80469638D01*
X170093938Y-80460435D01*
X170084373Y-80464838D01*
X169307421Y-81241789D01*
X169299808Y-81255732D01*
X168569756Y-81255732D01*
X168570992Y-81253468D01*
X168570861Y-81251634D01*
X168566610Y-81245020D01*
X167789262Y-80467673D01*
X167777730Y-80461376D01*
X167765448Y-80470999D01*
X167709867Y-80552477D01*
X167704779Y-80561433D01*
X167611652Y-80762059D01*
X167608089Y-80771746D01*
X167548981Y-80984880D01*
X167547050Y-80995000D01*
X167523545Y-81214949D01*
X167523293Y-81225238D01*
X119891776Y-81225238D01*
X119890583Y-78896168D01*
X124751582Y-78896168D01*
X124780408Y-79145299D01*
X124781787Y-79150173D01*
X124781788Y-79150177D01*
X124820726Y-79287781D01*
X124848694Y-79386617D01*
X124850828Y-79391192D01*
X124850830Y-79391199D01*
X124952547Y-79609331D01*
X124954684Y-79613913D01*
X124957526Y-79618094D01*
X124957526Y-79618095D01*
X125092805Y-79817152D01*
X125092808Y-79817156D01*
X125095651Y-79821339D01*
X125099128Y-79825016D01*
X125099129Y-79825017D01*
X125199438Y-79931091D01*
X125267967Y-80003559D01*
X125271993Y-80006637D01*
X125271994Y-80006638D01*
X125463181Y-80152812D01*
X125463185Y-80152815D01*
X125467201Y-80155885D01*
X125471659Y-80158275D01*
X125471660Y-80158276D01*
X125498811Y-80172834D01*
X125688226Y-80274397D01*
X125693007Y-80276043D01*
X125693011Y-80276045D01*
X125918738Y-80353769D01*
X125925356Y-80356048D01*
X125978133Y-80365164D01*
X126168580Y-80398060D01*
X126168586Y-80398061D01*
X126172490Y-80398735D01*
X126176451Y-80398915D01*
X126176452Y-80398915D01*
X126201131Y-80400036D01*
X126201150Y-80400036D01*
X126202550Y-80400100D01*
X126377215Y-80400100D01*
X126379723Y-80399898D01*
X126379728Y-80399898D01*
X126559144Y-80385463D01*
X126559149Y-80385462D01*
X126564185Y-80385057D01*
X126569093Y-80383852D01*
X126569096Y-80383851D01*
X126802825Y-80326441D01*
X126807739Y-80325234D01*
X126812391Y-80323259D01*
X126812395Y-80323258D01*
X127033941Y-80229217D01*
X127033942Y-80229217D01*
X127038596Y-80227241D01*
X127248098Y-80095311D01*
X168140908Y-80095311D01*
X168147651Y-80107640D01*
X168922589Y-80882579D01*
X168936532Y-80890192D01*
X168938366Y-80890061D01*
X168944980Y-80885810D01*
X169724394Y-80106395D01*
X169731411Y-80093544D01*
X169723637Y-80082874D01*
X169721302Y-80081030D01*
X169712720Y-80075329D01*
X169519078Y-79968433D01*
X169509672Y-79964206D01*
X169301172Y-79890372D01*
X169291209Y-79887740D01*
X169073447Y-79848950D01*
X169063196Y-79847981D01*
X168842016Y-79845279D01*
X168831732Y-79845999D01*
X168613093Y-79879455D01*
X168603066Y-79881844D01*
X168392826Y-79950561D01*
X168383316Y-79954558D01*
X168187125Y-80056689D01*
X168178407Y-80062178D01*
X168149361Y-80083986D01*
X168140908Y-80095311D01*
X127248098Y-80095311D01*
X127250815Y-80093600D01*
X127438938Y-79927747D01*
X127598124Y-79733951D01*
X127724278Y-79517196D01*
X127814155Y-79283061D01*
X127825377Y-79229348D01*
X127864406Y-79042521D01*
X127865441Y-79037567D01*
X127867470Y-78992899D01*
X127871862Y-78896168D01*
X127876818Y-78787032D01*
X127872394Y-78748792D01*
X127871813Y-78743768D01*
X204913982Y-78743768D01*
X204914563Y-78748788D01*
X204914563Y-78748792D01*
X204918988Y-78787032D01*
X204942808Y-78992899D01*
X204944187Y-78997773D01*
X204944188Y-78997777D01*
X204985933Y-79145299D01*
X205011094Y-79234217D01*
X205013228Y-79238792D01*
X205013230Y-79238799D01*
X205082159Y-79386617D01*
X205117084Y-79461513D01*
X205119926Y-79465694D01*
X205119926Y-79465695D01*
X205255205Y-79664752D01*
X205255208Y-79664756D01*
X205258051Y-79668939D01*
X205261528Y-79672616D01*
X205261529Y-79672617D01*
X205361838Y-79778691D01*
X205430367Y-79851159D01*
X205434393Y-79854237D01*
X205434394Y-79854238D01*
X205625581Y-80000412D01*
X205625585Y-80000415D01*
X205629601Y-80003485D01*
X205634059Y-80005875D01*
X205634060Y-80005876D01*
X205777662Y-80082874D01*
X205850626Y-80121997D01*
X205855407Y-80123643D01*
X205855411Y-80123645D01*
X206061514Y-80194612D01*
X206087756Y-80203648D01*
X206169428Y-80217755D01*
X206330980Y-80245660D01*
X206330986Y-80245661D01*
X206334890Y-80246335D01*
X206338851Y-80246515D01*
X206338852Y-80246515D01*
X206363531Y-80247636D01*
X206363550Y-80247636D01*
X206364950Y-80247700D01*
X206539615Y-80247700D01*
X206542123Y-80247498D01*
X206542128Y-80247498D01*
X206721544Y-80233063D01*
X206721549Y-80233062D01*
X206726585Y-80232657D01*
X206731493Y-80231452D01*
X206731496Y-80231451D01*
X206965225Y-80174041D01*
X206970139Y-80172834D01*
X206974791Y-80170859D01*
X206974795Y-80170858D01*
X207196341Y-80076817D01*
X207196342Y-80076817D01*
X207200996Y-80074841D01*
X207392003Y-79954558D01*
X207408934Y-79943896D01*
X207408935Y-79943895D01*
X207413215Y-79941200D01*
X207601338Y-79775347D01*
X207760524Y-79581551D01*
X207886678Y-79364796D01*
X207918054Y-79283061D01*
X207974743Y-79135381D01*
X207976555Y-79130661D01*
X207994969Y-79042521D01*
X208026806Y-78890121D01*
X208027841Y-78885167D01*
X208039218Y-78634632D01*
X208010392Y-78385501D01*
X207971410Y-78247739D01*
X207943484Y-78149052D01*
X207943483Y-78149050D01*
X207942106Y-78144183D01*
X207939972Y-78139608D01*
X207939970Y-78139601D01*
X207838253Y-77921469D01*
X207838251Y-77921465D01*
X207836116Y-77916887D01*
X207796221Y-77858183D01*
X207697995Y-77713648D01*
X207697992Y-77713644D01*
X207695149Y-77709461D01*
X207594525Y-77603053D01*
X207526313Y-77530921D01*
X207522833Y-77527241D01*
X207427016Y-77453983D01*
X207327619Y-77377988D01*
X207327615Y-77377985D01*
X207323599Y-77374915D01*
X207295675Y-77359942D01*
X207107035Y-77258795D01*
X207102574Y-77256403D01*
X207097793Y-77254757D01*
X207097789Y-77254755D01*
X206870233Y-77176401D01*
X206865444Y-77174752D01*
X206761911Y-77156869D01*
X206622220Y-77132740D01*
X206622214Y-77132739D01*
X206618310Y-77132065D01*
X206614349Y-77131885D01*
X206614348Y-77131885D01*
X206589669Y-77130764D01*
X206589650Y-77130764D01*
X206588250Y-77130700D01*
X206413585Y-77130700D01*
X206411077Y-77130902D01*
X206411072Y-77130902D01*
X206231656Y-77145337D01*
X206231651Y-77145338D01*
X206226615Y-77145743D01*
X206221707Y-77146948D01*
X206221704Y-77146949D01*
X205989926Y-77203880D01*
X205983061Y-77205566D01*
X205978409Y-77207541D01*
X205978405Y-77207542D01*
X205795596Y-77285140D01*
X205752204Y-77303559D01*
X205539985Y-77437200D01*
X205351862Y-77603053D01*
X205192676Y-77796849D01*
X205066522Y-78013604D01*
X204976645Y-78247739D01*
X204975612Y-78252685D01*
X204975610Y-78252691D01*
X204948884Y-78380623D01*
X204925359Y-78493233D01*
X204925130Y-78498282D01*
X204925129Y-78498288D01*
X204923102Y-78542934D01*
X204913982Y-78743768D01*
X127871813Y-78743768D01*
X127848574Y-78542934D01*
X127847992Y-78537901D01*
X127835353Y-78493233D01*
X127781084Y-78301452D01*
X127781083Y-78301450D01*
X127779706Y-78296583D01*
X127777572Y-78292008D01*
X127777570Y-78292001D01*
X127675853Y-78073869D01*
X127675851Y-78073865D01*
X127673716Y-78069287D01*
X127632901Y-78009230D01*
X127535595Y-77866048D01*
X127535592Y-77866044D01*
X127532749Y-77861861D01*
X127432125Y-77755453D01*
X127363913Y-77683321D01*
X127360433Y-77679641D01*
X127265372Y-77606961D01*
X127165219Y-77530388D01*
X127165215Y-77530385D01*
X127161199Y-77527315D01*
X126940174Y-77408803D01*
X126935393Y-77407157D01*
X126935389Y-77407155D01*
X126707833Y-77328801D01*
X126703044Y-77327152D01*
X126555014Y-77301583D01*
X126459820Y-77285140D01*
X126459814Y-77285139D01*
X126455910Y-77284465D01*
X126451949Y-77284285D01*
X126451948Y-77284285D01*
X126427269Y-77283164D01*
X126427250Y-77283164D01*
X126425850Y-77283100D01*
X126251185Y-77283100D01*
X126248677Y-77283302D01*
X126248672Y-77283302D01*
X126069256Y-77297737D01*
X126069251Y-77297738D01*
X126064215Y-77298143D01*
X126059307Y-77299348D01*
X126059304Y-77299349D01*
X125827526Y-77356280D01*
X125820661Y-77357966D01*
X125816009Y-77359941D01*
X125816005Y-77359942D01*
X125695261Y-77411195D01*
X125589804Y-77455959D01*
X125377585Y-77589600D01*
X125189462Y-77755453D01*
X125030276Y-77949249D01*
X124904122Y-78166004D01*
X124902309Y-78170727D01*
X124902308Y-78170729D01*
X124870846Y-78252691D01*
X124814245Y-78400139D01*
X124813212Y-78405085D01*
X124813210Y-78405091D01*
X124786484Y-78533023D01*
X124762959Y-78645633D01*
X124751582Y-78896168D01*
X119890583Y-78896168D01*
X119888825Y-75463141D01*
X119908792Y-75395010D01*
X119962424Y-75348489D01*
X120014860Y-75337076D01*
X210185859Y-75362124D01*
G37*
%TD.AperFunction*%
%TA.AperFunction,Conductor*%
G36*
X155328230Y-84924702D02*
G01*
X155374723Y-84978358D01*
X155384827Y-85048632D01*
X155353545Y-85115233D01*
X155342093Y-85127891D01*
X155345876Y-85136666D01*
X156197188Y-85987978D01*
X156211132Y-85995592D01*
X156212965Y-85995461D01*
X156219580Y-85991210D01*
X157071080Y-85139710D01*
X157077840Y-85127330D01*
X157062029Y-85106209D01*
X157037218Y-85039689D01*
X157052309Y-84970315D01*
X157102512Y-84920112D01*
X157162897Y-84904700D01*
X157791571Y-84904700D01*
X157859692Y-84924702D01*
X157906185Y-84978358D01*
X157916289Y-85048632D01*
X157886795Y-85113212D01*
X157865633Y-85132635D01*
X157864799Y-85133241D01*
X157860584Y-85135824D01*
X157680031Y-85290031D01*
X157676823Y-85293787D01*
X157676818Y-85293792D01*
X157546294Y-85446616D01*
X157486844Y-85485426D01*
X157452442Y-85487640D01*
X157433333Y-85495877D01*
X156582022Y-86347188D01*
X156574408Y-86361132D01*
X156574539Y-86362965D01*
X156578790Y-86369580D01*
X157430290Y-87221080D01*
X157447102Y-87230260D01*
X157510350Y-87244020D01*
X157545775Y-87272776D01*
X157624860Y-87365372D01*
X157680031Y-87429969D01*
X157860584Y-87584176D01*
X157930226Y-87626853D01*
X157931336Y-87627533D01*
X157978967Y-87680181D01*
X157991500Y-87734965D01*
X157991500Y-88127229D01*
X157971498Y-88195350D01*
X157954595Y-88216324D01*
X157786924Y-88383995D01*
X157724612Y-88418021D01*
X157697829Y-88420900D01*
X153014670Y-88420900D01*
X152995720Y-88419467D01*
X152981485Y-88417301D01*
X152981481Y-88417301D01*
X152974251Y-88416201D01*
X152966959Y-88416794D01*
X152966956Y-88416794D01*
X152921582Y-88420485D01*
X152911367Y-88420900D01*
X152903307Y-88420900D01*
X152890017Y-88422449D01*
X152875093Y-88424189D01*
X152870718Y-88424622D01*
X152805261Y-88429946D01*
X152805258Y-88429947D01*
X152797963Y-88430540D01*
X152790999Y-88432796D01*
X152785040Y-88433987D01*
X152779185Y-88435371D01*
X152771919Y-88436218D01*
X152703273Y-88461135D01*
X152699145Y-88462552D01*
X152636664Y-88482793D01*
X152636662Y-88482794D01*
X152629701Y-88485049D01*
X152623446Y-88488845D01*
X152617972Y-88491351D01*
X152612542Y-88494070D01*
X152605663Y-88496567D01*
X152599543Y-88500580D01*
X152599542Y-88500580D01*
X152544624Y-88536586D01*
X152540920Y-88538923D01*
X152478493Y-88576805D01*
X152470116Y-88584203D01*
X152470092Y-88584176D01*
X152467100Y-88586829D01*
X152463867Y-88589532D01*
X152457748Y-88593544D01*
X152452716Y-88598856D01*
X152404472Y-88649783D01*
X152402094Y-88652225D01*
X152103595Y-88950724D01*
X152041283Y-88984750D01*
X151970468Y-88979685D01*
X151913632Y-88937138D01*
X151888821Y-88870618D01*
X151888500Y-88861629D01*
X151888500Y-87734965D01*
X151908502Y-87666844D01*
X151948664Y-87627533D01*
X151949774Y-87626853D01*
X152019416Y-87584176D01*
X152199969Y-87429969D01*
X152203177Y-87426213D01*
X152203182Y-87426208D01*
X152304189Y-87307944D01*
X152363639Y-87269134D01*
X152434634Y-87268628D01*
X152495811Y-87307944D01*
X152596818Y-87426208D01*
X152596823Y-87426213D01*
X152600031Y-87429969D01*
X152780584Y-87584176D01*
X152784792Y-87586755D01*
X152784798Y-87586759D01*
X152870880Y-87639510D01*
X152983037Y-87708240D01*
X152987607Y-87710133D01*
X152987611Y-87710135D01*
X153197833Y-87797211D01*
X153202406Y-87799105D01*
X153250349Y-87810615D01*
X153428476Y-87853380D01*
X153428482Y-87853381D01*
X153433289Y-87854535D01*
X153670000Y-87873165D01*
X153906711Y-87854535D01*
X153911518Y-87853381D01*
X153911524Y-87853380D01*
X154089651Y-87810615D01*
X154137594Y-87799105D01*
X154142167Y-87797211D01*
X154352389Y-87710135D01*
X154352393Y-87710133D01*
X154356963Y-87708240D01*
X154469120Y-87639510D01*
X154545556Y-87592670D01*
X155342160Y-87592670D01*
X155347887Y-87600320D01*
X155519042Y-87705205D01*
X155527837Y-87709687D01*
X155737988Y-87796734D01*
X155747373Y-87799783D01*
X155968554Y-87852885D01*
X155978301Y-87854428D01*
X156205070Y-87872275D01*
X156214930Y-87872275D01*
X156441699Y-87854428D01*
X156451446Y-87852885D01*
X156672627Y-87799783D01*
X156682012Y-87796734D01*
X156892163Y-87709687D01*
X156900958Y-87705205D01*
X157068445Y-87602568D01*
X157077907Y-87592110D01*
X157074124Y-87583334D01*
X156222812Y-86732022D01*
X156208868Y-86724408D01*
X156207035Y-86724539D01*
X156200420Y-86728790D01*
X155348920Y-87580290D01*
X155342160Y-87592670D01*
X154545556Y-87592670D01*
X154555202Y-87586759D01*
X154555208Y-87586755D01*
X154559416Y-87584176D01*
X154739969Y-87429969D01*
X154743177Y-87426213D01*
X154743182Y-87426208D01*
X154873706Y-87273384D01*
X154933156Y-87234574D01*
X154967558Y-87232360D01*
X154986667Y-87224123D01*
X155837978Y-86372812D01*
X155845592Y-86358868D01*
X155845461Y-86357035D01*
X155841210Y-86350420D01*
X154989710Y-85498920D01*
X154972898Y-85489740D01*
X154909650Y-85475980D01*
X154874225Y-85447224D01*
X154743177Y-85293787D01*
X154739969Y-85290031D01*
X154559416Y-85135824D01*
X154555201Y-85133241D01*
X154554367Y-85132635D01*
X154511014Y-85076413D01*
X154504939Y-85005676D01*
X154538071Y-84942885D01*
X154599892Y-84907974D01*
X154628429Y-84904700D01*
X155260109Y-84904700D01*
X155328230Y-84924702D01*
G37*
%TD.AperFunction*%
%TD*%
M02*
