%TF.GenerationSoftware,KiCad,Pcbnew,(6.0.8)*%
%TF.CreationDate,2022-12-01T23:19:17-05:00*%
%TF.ProjectId,HardwareDesign,48617264-7761-4726-9544-657369676e2e,1.0.*%
%TF.SameCoordinates,Original*%
%TF.FileFunction,Drillmap*%
%TF.FilePolarity,Positive*%
%FSLAX45Y45*%
G04 Gerber Fmt 4.5, Leading zero omitted, Abs format (unit mm)*
G04 Created by KiCad (PCBNEW (6.0.8)) date 2022-12-01 23:19:17*
%MOMM*%
%LPD*%
G01*
G04 APERTURE LIST*
%ADD10C,0.100000*%
%ADD11C,0.200000*%
%ADD12C,0.065000*%
%ADD13C,0.210000*%
G04 APERTURE END LIST*
D10*
X11938000Y-7482840D02*
X11940540Y-12443460D01*
X11940540Y-12443460D02*
X21084540Y-12446000D01*
X21082000Y-7485380D02*
X11938000Y-7482840D01*
X21084540Y-12446000D02*
X21082000Y-7485380D01*
D11*
D12*
X20360650Y-10427780D02*
X20425650Y-10492780D01*
X20425650Y-10427780D02*
X20360650Y-10492780D01*
X20360650Y-11005780D02*
X20425650Y-11070780D01*
X20425650Y-11005780D02*
X20360650Y-11070780D01*
D13*
X12688160Y-12037060D02*
G75*
G03*
X12688160Y-12037060I-105000J0D01*
G01*
X12736420Y-7884160D02*
G75*
G03*
X12736420Y-7884160I-105000J0D01*
G01*
X20719640Y-12042140D02*
G75*
G03*
X20719640Y-12042140I-105000J0D01*
G01*
X20752660Y-7868920D02*
G75*
G03*
X20752660Y-7868920I-105000J0D01*
G01*
D11*
X12190619Y-12761476D02*
X12190619Y-12561476D01*
X12238238Y-12561476D01*
X12266809Y-12571000D01*
X12285857Y-12590048D01*
X12295381Y-12609095D01*
X12304905Y-12647190D01*
X12304905Y-12675762D01*
X12295381Y-12713857D01*
X12285857Y-12732905D01*
X12266809Y-12751952D01*
X12238238Y-12761476D01*
X12190619Y-12761476D01*
X12390619Y-12761476D02*
X12390619Y-12628143D01*
X12390619Y-12666238D02*
X12400143Y-12647190D01*
X12409667Y-12637667D01*
X12428714Y-12628143D01*
X12447762Y-12628143D01*
X12514428Y-12761476D02*
X12514428Y-12628143D01*
X12514428Y-12561476D02*
X12504905Y-12571000D01*
X12514428Y-12580524D01*
X12523952Y-12571000D01*
X12514428Y-12561476D01*
X12514428Y-12580524D01*
X12638238Y-12761476D02*
X12619190Y-12751952D01*
X12609667Y-12732905D01*
X12609667Y-12561476D01*
X12743000Y-12761476D02*
X12723952Y-12751952D01*
X12714428Y-12732905D01*
X12714428Y-12561476D01*
X12971571Y-12761476D02*
X12971571Y-12561476D01*
X13038238Y-12704333D01*
X13104905Y-12561476D01*
X13104905Y-12761476D01*
X13285857Y-12761476D02*
X13285857Y-12656714D01*
X13276333Y-12637667D01*
X13257286Y-12628143D01*
X13219190Y-12628143D01*
X13200143Y-12637667D01*
X13285857Y-12751952D02*
X13266809Y-12761476D01*
X13219190Y-12761476D01*
X13200143Y-12751952D01*
X13190619Y-12732905D01*
X13190619Y-12713857D01*
X13200143Y-12694809D01*
X13219190Y-12685286D01*
X13266809Y-12685286D01*
X13285857Y-12675762D01*
X13381095Y-12628143D02*
X13381095Y-12828143D01*
X13381095Y-12637667D02*
X13400143Y-12628143D01*
X13438238Y-12628143D01*
X13457286Y-12637667D01*
X13466809Y-12647190D01*
X13476333Y-12666238D01*
X13476333Y-12723381D01*
X13466809Y-12742428D01*
X13457286Y-12751952D01*
X13438238Y-12761476D01*
X13400143Y-12761476D01*
X13381095Y-12751952D01*
X13562048Y-12742428D02*
X13571571Y-12751952D01*
X13562048Y-12761476D01*
X13552524Y-12751952D01*
X13562048Y-12742428D01*
X13562048Y-12761476D01*
X13562048Y-12637667D02*
X13571571Y-12647190D01*
X13562048Y-12656714D01*
X13552524Y-12647190D01*
X13562048Y-12637667D01*
X13562048Y-12656714D01*
D12*
X11868000Y-13058500D02*
X11933000Y-13123500D01*
X11933000Y-13058500D02*
X11868000Y-13123500D01*
D11*
X12228714Y-12981476D02*
X12247762Y-12981476D01*
X12266809Y-12991000D01*
X12276333Y-13000524D01*
X12285857Y-13019571D01*
X12295381Y-13057667D01*
X12295381Y-13105286D01*
X12285857Y-13143381D01*
X12276333Y-13162428D01*
X12266809Y-13171952D01*
X12247762Y-13181476D01*
X12228714Y-13181476D01*
X12209667Y-13171952D01*
X12200143Y-13162428D01*
X12190619Y-13143381D01*
X12181095Y-13105286D01*
X12181095Y-13057667D01*
X12190619Y-13019571D01*
X12200143Y-13000524D01*
X12209667Y-12991000D01*
X12228714Y-12981476D01*
X12381095Y-13162428D02*
X12390619Y-13171952D01*
X12381095Y-13181476D01*
X12371571Y-13171952D01*
X12381095Y-13162428D01*
X12381095Y-13181476D01*
X12562048Y-12981476D02*
X12523952Y-12981476D01*
X12504905Y-12991000D01*
X12495381Y-13000524D01*
X12476333Y-13029095D01*
X12466809Y-13067190D01*
X12466809Y-13143381D01*
X12476333Y-13162428D01*
X12485857Y-13171952D01*
X12504905Y-13181476D01*
X12543000Y-13181476D01*
X12562048Y-13171952D01*
X12571571Y-13162428D01*
X12581095Y-13143381D01*
X12581095Y-13095762D01*
X12571571Y-13076714D01*
X12562048Y-13067190D01*
X12543000Y-13057667D01*
X12504905Y-13057667D01*
X12485857Y-13067190D01*
X12476333Y-13076714D01*
X12466809Y-13095762D01*
X12762048Y-12981476D02*
X12666809Y-12981476D01*
X12657286Y-13076714D01*
X12666809Y-13067190D01*
X12685857Y-13057667D01*
X12733476Y-13057667D01*
X12752524Y-13067190D01*
X12762048Y-13076714D01*
X12771571Y-13095762D01*
X12771571Y-13143381D01*
X12762048Y-13162428D01*
X12752524Y-13171952D01*
X12733476Y-13181476D01*
X12685857Y-13181476D01*
X12666809Y-13171952D01*
X12657286Y-13162428D01*
X12895381Y-12981476D02*
X12914428Y-12981476D01*
X12933476Y-12991000D01*
X12943000Y-13000524D01*
X12952524Y-13019571D01*
X12962048Y-13057667D01*
X12962048Y-13105286D01*
X12952524Y-13143381D01*
X12943000Y-13162428D01*
X12933476Y-13171952D01*
X12914428Y-13181476D01*
X12895381Y-13181476D01*
X12876333Y-13171952D01*
X12866809Y-13162428D01*
X12857286Y-13143381D01*
X12847762Y-13105286D01*
X12847762Y-13057667D01*
X12857286Y-13019571D01*
X12866809Y-13000524D01*
X12876333Y-12991000D01*
X12895381Y-12981476D01*
X13047762Y-13181476D02*
X13047762Y-13048143D01*
X13047762Y-13067190D02*
X13057286Y-13057667D01*
X13076333Y-13048143D01*
X13104905Y-13048143D01*
X13123952Y-13057667D01*
X13133476Y-13076714D01*
X13133476Y-13181476D01*
X13133476Y-13076714D02*
X13143000Y-13057667D01*
X13162048Y-13048143D01*
X13190619Y-13048143D01*
X13209667Y-13057667D01*
X13219190Y-13076714D01*
X13219190Y-13181476D01*
X13314428Y-13181476D02*
X13314428Y-13048143D01*
X13314428Y-13067190D02*
X13323952Y-13057667D01*
X13343000Y-13048143D01*
X13371571Y-13048143D01*
X13390619Y-13057667D01*
X13400143Y-13076714D01*
X13400143Y-13181476D01*
X13400143Y-13076714D02*
X13409667Y-13057667D01*
X13428714Y-13048143D01*
X13457286Y-13048143D01*
X13476333Y-13057667D01*
X13485857Y-13076714D01*
X13485857Y-13181476D01*
X13876333Y-12971952D02*
X13704905Y-13229095D01*
X14133476Y-12981476D02*
X14152524Y-12981476D01*
X14171571Y-12991000D01*
X14181095Y-13000524D01*
X14190619Y-13019571D01*
X14200143Y-13057667D01*
X14200143Y-13105286D01*
X14190619Y-13143381D01*
X14181095Y-13162428D01*
X14171571Y-13171952D01*
X14152524Y-13181476D01*
X14133476Y-13181476D01*
X14114428Y-13171952D01*
X14104905Y-13162428D01*
X14095381Y-13143381D01*
X14085857Y-13105286D01*
X14085857Y-13057667D01*
X14095381Y-13019571D01*
X14104905Y-13000524D01*
X14114428Y-12991000D01*
X14133476Y-12981476D01*
X14285857Y-13162428D02*
X14295381Y-13171952D01*
X14285857Y-13181476D01*
X14276333Y-13171952D01*
X14285857Y-13162428D01*
X14285857Y-13181476D01*
X14419190Y-12981476D02*
X14438238Y-12981476D01*
X14457286Y-12991000D01*
X14466809Y-13000524D01*
X14476333Y-13019571D01*
X14485857Y-13057667D01*
X14485857Y-13105286D01*
X14476333Y-13143381D01*
X14466809Y-13162428D01*
X14457286Y-13171952D01*
X14438238Y-13181476D01*
X14419190Y-13181476D01*
X14400143Y-13171952D01*
X14390619Y-13162428D01*
X14381095Y-13143381D01*
X14371571Y-13105286D01*
X14371571Y-13057667D01*
X14381095Y-13019571D01*
X14390619Y-13000524D01*
X14400143Y-12991000D01*
X14419190Y-12981476D01*
X14562048Y-13000524D02*
X14571571Y-12991000D01*
X14590619Y-12981476D01*
X14638238Y-12981476D01*
X14657286Y-12991000D01*
X14666809Y-13000524D01*
X14676333Y-13019571D01*
X14676333Y-13038619D01*
X14666809Y-13067190D01*
X14552524Y-13181476D01*
X14676333Y-13181476D01*
X14857286Y-12981476D02*
X14762048Y-12981476D01*
X14752524Y-13076714D01*
X14762048Y-13067190D01*
X14781095Y-13057667D01*
X14828714Y-13057667D01*
X14847762Y-13067190D01*
X14857286Y-13076714D01*
X14866809Y-13095762D01*
X14866809Y-13143381D01*
X14857286Y-13162428D01*
X14847762Y-13171952D01*
X14828714Y-13181476D01*
X14781095Y-13181476D01*
X14762048Y-13171952D01*
X14752524Y-13162428D01*
X15038238Y-12981476D02*
X15000143Y-12981476D01*
X14981095Y-12991000D01*
X14971571Y-13000524D01*
X14952524Y-13029095D01*
X14943000Y-13067190D01*
X14943000Y-13143381D01*
X14952524Y-13162428D01*
X14962048Y-13171952D01*
X14981095Y-13181476D01*
X15019190Y-13181476D01*
X15038238Y-13171952D01*
X15047762Y-13162428D01*
X15057286Y-13143381D01*
X15057286Y-13095762D01*
X15047762Y-13076714D01*
X15038238Y-13067190D01*
X15019190Y-13057667D01*
X14981095Y-13057667D01*
X14962048Y-13067190D01*
X14952524Y-13076714D01*
X14943000Y-13095762D01*
X15133476Y-12981476D02*
X15133476Y-13019571D01*
X15209667Y-12981476D02*
X15209667Y-13019571D01*
X15504905Y-13257667D02*
X15495381Y-13248143D01*
X15476333Y-13219571D01*
X15466809Y-13200524D01*
X15457286Y-13171952D01*
X15447762Y-13124333D01*
X15447762Y-13086238D01*
X15457286Y-13038619D01*
X15466809Y-13010048D01*
X15476333Y-12991000D01*
X15495381Y-12962428D01*
X15504905Y-12952905D01*
X15571571Y-13000524D02*
X15581095Y-12991000D01*
X15600143Y-12981476D01*
X15647762Y-12981476D01*
X15666809Y-12991000D01*
X15676333Y-13000524D01*
X15685857Y-13019571D01*
X15685857Y-13038619D01*
X15676333Y-13067190D01*
X15562048Y-13181476D01*
X15685857Y-13181476D01*
X15923952Y-13181476D02*
X15923952Y-12981476D01*
X16009667Y-13181476D02*
X16009667Y-13076714D01*
X16000143Y-13057667D01*
X15981095Y-13048143D01*
X15952524Y-13048143D01*
X15933476Y-13057667D01*
X15923952Y-13067190D01*
X16133476Y-13181476D02*
X16114428Y-13171952D01*
X16104905Y-13162428D01*
X16095381Y-13143381D01*
X16095381Y-13086238D01*
X16104905Y-13067190D01*
X16114428Y-13057667D01*
X16133476Y-13048143D01*
X16162048Y-13048143D01*
X16181095Y-13057667D01*
X16190619Y-13067190D01*
X16200143Y-13086238D01*
X16200143Y-13143381D01*
X16190619Y-13162428D01*
X16181095Y-13171952D01*
X16162048Y-13181476D01*
X16133476Y-13181476D01*
X16314428Y-13181476D02*
X16295381Y-13171952D01*
X16285857Y-13152905D01*
X16285857Y-12981476D01*
X16466809Y-13171952D02*
X16447762Y-13181476D01*
X16409667Y-13181476D01*
X16390619Y-13171952D01*
X16381095Y-13152905D01*
X16381095Y-13076714D01*
X16390619Y-13057667D01*
X16409667Y-13048143D01*
X16447762Y-13048143D01*
X16466809Y-13057667D01*
X16476333Y-13076714D01*
X16476333Y-13095762D01*
X16381095Y-13114809D01*
X16552524Y-13171952D02*
X16571571Y-13181476D01*
X16609667Y-13181476D01*
X16628714Y-13171952D01*
X16638238Y-13152905D01*
X16638238Y-13143381D01*
X16628714Y-13124333D01*
X16609667Y-13114809D01*
X16581095Y-13114809D01*
X16562048Y-13105286D01*
X16552524Y-13086238D01*
X16552524Y-13076714D01*
X16562048Y-13057667D01*
X16581095Y-13048143D01*
X16609667Y-13048143D01*
X16628714Y-13057667D01*
X16704905Y-13257667D02*
X16714428Y-13248143D01*
X16733476Y-13219571D01*
X16743000Y-13200524D01*
X16752524Y-13171952D01*
X16762048Y-13124333D01*
X16762048Y-13086238D01*
X16752524Y-13038619D01*
X16743000Y-13010048D01*
X16733476Y-12991000D01*
X16714428Y-12962428D01*
X16704905Y-12952905D01*
X17066810Y-13257667D02*
X17057286Y-13248143D01*
X17038238Y-13219571D01*
X17028714Y-13200524D01*
X17019190Y-13171952D01*
X17009667Y-13124333D01*
X17009667Y-13086238D01*
X17019190Y-13038619D01*
X17028714Y-13010048D01*
X17038238Y-12991000D01*
X17057286Y-12962428D01*
X17066810Y-12952905D01*
X17143000Y-13048143D02*
X17143000Y-13181476D01*
X17143000Y-13067190D02*
X17152524Y-13057667D01*
X17171571Y-13048143D01*
X17200143Y-13048143D01*
X17219190Y-13057667D01*
X17228714Y-13076714D01*
X17228714Y-13181476D01*
X17352524Y-13181476D02*
X17333476Y-13171952D01*
X17323952Y-13162428D01*
X17314429Y-13143381D01*
X17314429Y-13086238D01*
X17323952Y-13067190D01*
X17333476Y-13057667D01*
X17352524Y-13048143D01*
X17381095Y-13048143D01*
X17400143Y-13057667D01*
X17409667Y-13067190D01*
X17419190Y-13086238D01*
X17419190Y-13143381D01*
X17409667Y-13162428D01*
X17400143Y-13171952D01*
X17381095Y-13181476D01*
X17352524Y-13181476D01*
X17476333Y-13048143D02*
X17552524Y-13048143D01*
X17504905Y-12981476D02*
X17504905Y-13152905D01*
X17514429Y-13171952D01*
X17533476Y-13181476D01*
X17552524Y-13181476D01*
X17771571Y-13048143D02*
X17771571Y-13248143D01*
X17771571Y-13057667D02*
X17790619Y-13048143D01*
X17828714Y-13048143D01*
X17847762Y-13057667D01*
X17857286Y-13067190D01*
X17866810Y-13086238D01*
X17866810Y-13143381D01*
X17857286Y-13162428D01*
X17847762Y-13171952D01*
X17828714Y-13181476D01*
X17790619Y-13181476D01*
X17771571Y-13171952D01*
X17981095Y-13181476D02*
X17962048Y-13171952D01*
X17952524Y-13152905D01*
X17952524Y-12981476D01*
X18143000Y-13181476D02*
X18143000Y-13076714D01*
X18133476Y-13057667D01*
X18114429Y-13048143D01*
X18076333Y-13048143D01*
X18057286Y-13057667D01*
X18143000Y-13171952D02*
X18123952Y-13181476D01*
X18076333Y-13181476D01*
X18057286Y-13171952D01*
X18047762Y-13152905D01*
X18047762Y-13133857D01*
X18057286Y-13114809D01*
X18076333Y-13105286D01*
X18123952Y-13105286D01*
X18143000Y-13095762D01*
X18209667Y-13048143D02*
X18285857Y-13048143D01*
X18238238Y-12981476D02*
X18238238Y-13152905D01*
X18247762Y-13171952D01*
X18266810Y-13181476D01*
X18285857Y-13181476D01*
X18428714Y-13171952D02*
X18409667Y-13181476D01*
X18371571Y-13181476D01*
X18352524Y-13171952D01*
X18343000Y-13152905D01*
X18343000Y-13076714D01*
X18352524Y-13057667D01*
X18371571Y-13048143D01*
X18409667Y-13048143D01*
X18428714Y-13057667D01*
X18438238Y-13076714D01*
X18438238Y-13095762D01*
X18343000Y-13114809D01*
X18609667Y-13181476D02*
X18609667Y-12981476D01*
X18609667Y-13171952D02*
X18590619Y-13181476D01*
X18552524Y-13181476D01*
X18533476Y-13171952D01*
X18523952Y-13162428D01*
X18514429Y-13143381D01*
X18514429Y-13086238D01*
X18523952Y-13067190D01*
X18533476Y-13057667D01*
X18552524Y-13048143D01*
X18590619Y-13048143D01*
X18609667Y-13057667D01*
X18685857Y-13257667D02*
X18695381Y-13248143D01*
X18714429Y-13219571D01*
X18723952Y-13200524D01*
X18733476Y-13171952D01*
X18743000Y-13124333D01*
X18743000Y-13086238D01*
X18733476Y-13038619D01*
X18723952Y-13010048D01*
X18714429Y-12991000D01*
X18695381Y-12962428D01*
X18685857Y-12952905D01*
X11933000Y-13355000D02*
G75*
G03*
X11933000Y-13355000I-100000J0D01*
G01*
X12181095Y-13264524D02*
X12190619Y-13255000D01*
X12209667Y-13245476D01*
X12257286Y-13245476D01*
X12276333Y-13255000D01*
X12285857Y-13264524D01*
X12295381Y-13283571D01*
X12295381Y-13302619D01*
X12285857Y-13331190D01*
X12171571Y-13445476D01*
X12295381Y-13445476D01*
X12381095Y-13426428D02*
X12390619Y-13435952D01*
X12381095Y-13445476D01*
X12371571Y-13435952D01*
X12381095Y-13426428D01*
X12381095Y-13445476D01*
X12581095Y-13445476D02*
X12466809Y-13445476D01*
X12523952Y-13445476D02*
X12523952Y-13245476D01*
X12504905Y-13274048D01*
X12485857Y-13293095D01*
X12466809Y-13302619D01*
X12704905Y-13245476D02*
X12723952Y-13245476D01*
X12743000Y-13255000D01*
X12752524Y-13264524D01*
X12762048Y-13283571D01*
X12771571Y-13321667D01*
X12771571Y-13369286D01*
X12762048Y-13407381D01*
X12752524Y-13426428D01*
X12743000Y-13435952D01*
X12723952Y-13445476D01*
X12704905Y-13445476D01*
X12685857Y-13435952D01*
X12676333Y-13426428D01*
X12666809Y-13407381D01*
X12657286Y-13369286D01*
X12657286Y-13321667D01*
X12666809Y-13283571D01*
X12676333Y-13264524D01*
X12685857Y-13255000D01*
X12704905Y-13245476D01*
X12895381Y-13245476D02*
X12914428Y-13245476D01*
X12933476Y-13255000D01*
X12943000Y-13264524D01*
X12952524Y-13283571D01*
X12962048Y-13321667D01*
X12962048Y-13369286D01*
X12952524Y-13407381D01*
X12943000Y-13426428D01*
X12933476Y-13435952D01*
X12914428Y-13445476D01*
X12895381Y-13445476D01*
X12876333Y-13435952D01*
X12866809Y-13426428D01*
X12857286Y-13407381D01*
X12847762Y-13369286D01*
X12847762Y-13321667D01*
X12857286Y-13283571D01*
X12866809Y-13264524D01*
X12876333Y-13255000D01*
X12895381Y-13245476D01*
X13047762Y-13445476D02*
X13047762Y-13312143D01*
X13047762Y-13331190D02*
X13057286Y-13321667D01*
X13076333Y-13312143D01*
X13104905Y-13312143D01*
X13123952Y-13321667D01*
X13133476Y-13340714D01*
X13133476Y-13445476D01*
X13133476Y-13340714D02*
X13143000Y-13321667D01*
X13162048Y-13312143D01*
X13190619Y-13312143D01*
X13209667Y-13321667D01*
X13219190Y-13340714D01*
X13219190Y-13445476D01*
X13314428Y-13445476D02*
X13314428Y-13312143D01*
X13314428Y-13331190D02*
X13323952Y-13321667D01*
X13343000Y-13312143D01*
X13371571Y-13312143D01*
X13390619Y-13321667D01*
X13400143Y-13340714D01*
X13400143Y-13445476D01*
X13400143Y-13340714D02*
X13409667Y-13321667D01*
X13428714Y-13312143D01*
X13457286Y-13312143D01*
X13476333Y-13321667D01*
X13485857Y-13340714D01*
X13485857Y-13445476D01*
X13876333Y-13235952D02*
X13704905Y-13493095D01*
X14133476Y-13245476D02*
X14152524Y-13245476D01*
X14171571Y-13255000D01*
X14181095Y-13264524D01*
X14190619Y-13283571D01*
X14200143Y-13321667D01*
X14200143Y-13369286D01*
X14190619Y-13407381D01*
X14181095Y-13426428D01*
X14171571Y-13435952D01*
X14152524Y-13445476D01*
X14133476Y-13445476D01*
X14114428Y-13435952D01*
X14104905Y-13426428D01*
X14095381Y-13407381D01*
X14085857Y-13369286D01*
X14085857Y-13321667D01*
X14095381Y-13283571D01*
X14104905Y-13264524D01*
X14114428Y-13255000D01*
X14133476Y-13245476D01*
X14285857Y-13426428D02*
X14295381Y-13435952D01*
X14285857Y-13445476D01*
X14276333Y-13435952D01*
X14285857Y-13426428D01*
X14285857Y-13445476D01*
X14419190Y-13245476D02*
X14438238Y-13245476D01*
X14457286Y-13255000D01*
X14466809Y-13264524D01*
X14476333Y-13283571D01*
X14485857Y-13321667D01*
X14485857Y-13369286D01*
X14476333Y-13407381D01*
X14466809Y-13426428D01*
X14457286Y-13435952D01*
X14438238Y-13445476D01*
X14419190Y-13445476D01*
X14400143Y-13435952D01*
X14390619Y-13426428D01*
X14381095Y-13407381D01*
X14371571Y-13369286D01*
X14371571Y-13321667D01*
X14381095Y-13283571D01*
X14390619Y-13264524D01*
X14400143Y-13255000D01*
X14419190Y-13245476D01*
X14600143Y-13331190D02*
X14581095Y-13321667D01*
X14571571Y-13312143D01*
X14562048Y-13293095D01*
X14562048Y-13283571D01*
X14571571Y-13264524D01*
X14581095Y-13255000D01*
X14600143Y-13245476D01*
X14638238Y-13245476D01*
X14657286Y-13255000D01*
X14666809Y-13264524D01*
X14676333Y-13283571D01*
X14676333Y-13293095D01*
X14666809Y-13312143D01*
X14657286Y-13321667D01*
X14638238Y-13331190D01*
X14600143Y-13331190D01*
X14581095Y-13340714D01*
X14571571Y-13350238D01*
X14562048Y-13369286D01*
X14562048Y-13407381D01*
X14571571Y-13426428D01*
X14581095Y-13435952D01*
X14600143Y-13445476D01*
X14638238Y-13445476D01*
X14657286Y-13435952D01*
X14666809Y-13426428D01*
X14676333Y-13407381D01*
X14676333Y-13369286D01*
X14666809Y-13350238D01*
X14657286Y-13340714D01*
X14638238Y-13331190D01*
X14752524Y-13264524D02*
X14762048Y-13255000D01*
X14781095Y-13245476D01*
X14828714Y-13245476D01*
X14847762Y-13255000D01*
X14857286Y-13264524D01*
X14866809Y-13283571D01*
X14866809Y-13302619D01*
X14857286Y-13331190D01*
X14743000Y-13445476D01*
X14866809Y-13445476D01*
X14933476Y-13245476D02*
X15066809Y-13245476D01*
X14981095Y-13445476D01*
X15133476Y-13245476D02*
X15133476Y-13283571D01*
X15209667Y-13245476D02*
X15209667Y-13283571D01*
X15504905Y-13521667D02*
X15495381Y-13512143D01*
X15476333Y-13483571D01*
X15466809Y-13464524D01*
X15457286Y-13435952D01*
X15447762Y-13388333D01*
X15447762Y-13350238D01*
X15457286Y-13302619D01*
X15466809Y-13274048D01*
X15476333Y-13255000D01*
X15495381Y-13226428D01*
X15504905Y-13216905D01*
X15666809Y-13312143D02*
X15666809Y-13445476D01*
X15619190Y-13235952D02*
X15571571Y-13378809D01*
X15695381Y-13378809D01*
X15923952Y-13445476D02*
X15923952Y-13245476D01*
X16009667Y-13445476D02*
X16009667Y-13340714D01*
X16000143Y-13321667D01*
X15981095Y-13312143D01*
X15952524Y-13312143D01*
X15933476Y-13321667D01*
X15923952Y-13331190D01*
X16133476Y-13445476D02*
X16114428Y-13435952D01*
X16104905Y-13426428D01*
X16095381Y-13407381D01*
X16095381Y-13350238D01*
X16104905Y-13331190D01*
X16114428Y-13321667D01*
X16133476Y-13312143D01*
X16162048Y-13312143D01*
X16181095Y-13321667D01*
X16190619Y-13331190D01*
X16200143Y-13350238D01*
X16200143Y-13407381D01*
X16190619Y-13426428D01*
X16181095Y-13435952D01*
X16162048Y-13445476D01*
X16133476Y-13445476D01*
X16314428Y-13445476D02*
X16295381Y-13435952D01*
X16285857Y-13416905D01*
X16285857Y-13245476D01*
X16466809Y-13435952D02*
X16447762Y-13445476D01*
X16409667Y-13445476D01*
X16390619Y-13435952D01*
X16381095Y-13416905D01*
X16381095Y-13340714D01*
X16390619Y-13321667D01*
X16409667Y-13312143D01*
X16447762Y-13312143D01*
X16466809Y-13321667D01*
X16476333Y-13340714D01*
X16476333Y-13359762D01*
X16381095Y-13378809D01*
X16552524Y-13435952D02*
X16571571Y-13445476D01*
X16609667Y-13445476D01*
X16628714Y-13435952D01*
X16638238Y-13416905D01*
X16638238Y-13407381D01*
X16628714Y-13388333D01*
X16609667Y-13378809D01*
X16581095Y-13378809D01*
X16562048Y-13369286D01*
X16552524Y-13350238D01*
X16552524Y-13340714D01*
X16562048Y-13321667D01*
X16581095Y-13312143D01*
X16609667Y-13312143D01*
X16628714Y-13321667D01*
X16704905Y-13521667D02*
X16714428Y-13512143D01*
X16733476Y-13483571D01*
X16743000Y-13464524D01*
X16752524Y-13435952D01*
X16762048Y-13388333D01*
X16762048Y-13350238D01*
X16752524Y-13302619D01*
X16743000Y-13274048D01*
X16733476Y-13255000D01*
X16714428Y-13226428D01*
X16704905Y-13216905D01*
X17066810Y-13521667D02*
X17057286Y-13512143D01*
X17038238Y-13483571D01*
X17028714Y-13464524D01*
X17019190Y-13435952D01*
X17009667Y-13388333D01*
X17009667Y-13350238D01*
X17019190Y-13302619D01*
X17028714Y-13274048D01*
X17038238Y-13255000D01*
X17057286Y-13226428D01*
X17066810Y-13216905D01*
X17143000Y-13312143D02*
X17143000Y-13445476D01*
X17143000Y-13331190D02*
X17152524Y-13321667D01*
X17171571Y-13312143D01*
X17200143Y-13312143D01*
X17219190Y-13321667D01*
X17228714Y-13340714D01*
X17228714Y-13445476D01*
X17352524Y-13445476D02*
X17333476Y-13435952D01*
X17323952Y-13426428D01*
X17314429Y-13407381D01*
X17314429Y-13350238D01*
X17323952Y-13331190D01*
X17333476Y-13321667D01*
X17352524Y-13312143D01*
X17381095Y-13312143D01*
X17400143Y-13321667D01*
X17409667Y-13331190D01*
X17419190Y-13350238D01*
X17419190Y-13407381D01*
X17409667Y-13426428D01*
X17400143Y-13435952D01*
X17381095Y-13445476D01*
X17352524Y-13445476D01*
X17476333Y-13312143D02*
X17552524Y-13312143D01*
X17504905Y-13245476D02*
X17504905Y-13416905D01*
X17514429Y-13435952D01*
X17533476Y-13445476D01*
X17552524Y-13445476D01*
X17771571Y-13312143D02*
X17771571Y-13512143D01*
X17771571Y-13321667D02*
X17790619Y-13312143D01*
X17828714Y-13312143D01*
X17847762Y-13321667D01*
X17857286Y-13331190D01*
X17866810Y-13350238D01*
X17866810Y-13407381D01*
X17857286Y-13426428D01*
X17847762Y-13435952D01*
X17828714Y-13445476D01*
X17790619Y-13445476D01*
X17771571Y-13435952D01*
X17981095Y-13445476D02*
X17962048Y-13435952D01*
X17952524Y-13416905D01*
X17952524Y-13245476D01*
X18143000Y-13445476D02*
X18143000Y-13340714D01*
X18133476Y-13321667D01*
X18114429Y-13312143D01*
X18076333Y-13312143D01*
X18057286Y-13321667D01*
X18143000Y-13435952D02*
X18123952Y-13445476D01*
X18076333Y-13445476D01*
X18057286Y-13435952D01*
X18047762Y-13416905D01*
X18047762Y-13397857D01*
X18057286Y-13378809D01*
X18076333Y-13369286D01*
X18123952Y-13369286D01*
X18143000Y-13359762D01*
X18209667Y-13312143D02*
X18285857Y-13312143D01*
X18238238Y-13245476D02*
X18238238Y-13416905D01*
X18247762Y-13435952D01*
X18266810Y-13445476D01*
X18285857Y-13445476D01*
X18428714Y-13435952D02*
X18409667Y-13445476D01*
X18371571Y-13445476D01*
X18352524Y-13435952D01*
X18343000Y-13416905D01*
X18343000Y-13340714D01*
X18352524Y-13321667D01*
X18371571Y-13312143D01*
X18409667Y-13312143D01*
X18428714Y-13321667D01*
X18438238Y-13340714D01*
X18438238Y-13359762D01*
X18343000Y-13378809D01*
X18609667Y-13445476D02*
X18609667Y-13245476D01*
X18609667Y-13435952D02*
X18590619Y-13445476D01*
X18552524Y-13445476D01*
X18533476Y-13435952D01*
X18523952Y-13426428D01*
X18514429Y-13407381D01*
X18514429Y-13350238D01*
X18523952Y-13331190D01*
X18533476Y-13321667D01*
X18552524Y-13312143D01*
X18590619Y-13312143D01*
X18609667Y-13321667D01*
X18685857Y-13521667D02*
X18695381Y-13512143D01*
X18714429Y-13483571D01*
X18723952Y-13464524D01*
X18733476Y-13435952D01*
X18743000Y-13388333D01*
X18743000Y-13350238D01*
X18733476Y-13302619D01*
X18723952Y-13274048D01*
X18714429Y-13255000D01*
X18695381Y-13226428D01*
X18685857Y-13216905D01*
M02*
